<?xml version="1.0" encoding="utf-8"?>
<!-- Generator: Adobe Illustrator 16.0.0, SVG Export Plug-In . SVG Version: 6.00 Build 0)  -->
<!DOCTYPE svg PUBLIC "-//W3C//DTD SVG 1.1//EN" "http://www.w3.org/Graphics/SVG/1.1/DTD/svg11.dtd">
<svg version="1.1" xmlns="http://www.w3.org/2000/svg" xmlns:xlink="http://www.w3.org/1999/xlink" x="0px" y="0px" width="191px"
	 height="239px" viewBox="0 0 191 239" enable-background="new 0 0 191 239" xml:space="preserve">
<g id="Layer_3">
</g>
<g id="Layer_1" display="none">
</g>
<g id="Amphore">
</g>
<g id="Colonne">
</g>
<g id="gro_rocher">
</g>
<g id="petit_rocher">
</g>
<g id="étoile">
</g>
<g id="oursins">
</g>
<g id="algues">
	<g>
		<g>
			<path fill="#E2005C" d="M44.875,37.209c-2.335,7.263-2.041,14.716,0.368,21.911c2.062,6.161,5.873,12.036,6.396,18.627
				c0.615,7.754-0.295,15.535-0.086,23.297c0.249,9.249,3.259,16.968,5.979,25.616c1.945,6.185,0.45,12.986-0.088,19.284
				c-0.734,8.589,0.898,16.944,4.312,24.799c1.375,3.161,3.29,6.097,4.882,9.149c1.555,2.981,1.449,4.536,0.428,7.6
				c-1.291,3.873-2.309,7.382-2.566,11.508c-0.282,4.521,1.097,9.357,1.875,13.791c0.991,5.644,7.799,8.741,12.917,7.334
				c5.905-1.624,8.322-7.284,7.333-12.916c-0.436-2.483-1.592-5.836-1.154-8.374c0.594-3.451,2.32-6.646,3.032-10.087
				c1.747-8.452-1.836-16.18-5.863-23.385c-3.273-5.858-4.586-11.223-4.294-17.968c0.344-7.956,1.417-15.133,0.181-23.114
				c-1.163-7.512-5.335-14.004-5.901-21.736c-0.521-7.115,0.304-14.29,0.172-21.417c-0.151-8.161-2.164-15.219-5.324-22.649
				c-2.339-5.502-4.214-9.886-2.349-15.688C69.282,29.862,49.002,24.37,44.875,37.209L44.875,37.209z"/>
		</g>
	</g>
	<g>
		<g>
			<path fill="#FF004F" d="M74.375,12.709c-1.299,4.043-3.871,7.583-5.34,11.591c-1.852,5.052-1.817,10.137-0.516,15.323
				c1.725,6.878,8.782,12.974,6.853,19.408c-1.06,3.534-3.013,6.745-4.035,10.314c-1.448,5.058-0.799,10.458,0.363,15.485
				c1.899,8.21,6.638,14.912,4.05,23.448c-1.329,4.383-2.931,8.307-3.486,12.908c-0.626,5.192,0.266,10.404,1.623,15.422
				c2.03,7.508,7.136,15.815,3.669,23.562c-1.836,4.104-3.814,8.096-4.68,12.537c-0.929,4.766-0.916,9.73-0.733,14.56
				c0.367,9.728,2.009,19.457,3.733,29.022c1.016,5.639,7.78,8.747,12.917,7.334c5.886-1.619,8.348-7.289,7.333-12.916
				c-1.495-8.293-2.725-16.58-3.043-25.013c-0.133-3.53-0.162-7.106,0.765-10.505c1.171-4.29,3.718-8.13,4.969-12.43
				c2.81-9.657-0.718-19.553-3.733-28.658c-1.251-3.781-2.176-7.316-2.014-11.304c0.158-3.87,2.809-8.153,3.757-11.923
				c2.415-9.598-0.49-18.486-3.614-27.466c-0.902-2.594-2.189-5.757-1.625-8.482c0.84-4.06,3.253-7.706,4.443-11.675
				c2.819-9.406-1.297-17.735-5.72-25.763c-1.219-2.213-2.178-3.862-1.557-6.156c1.21-4.477,4.428-8.547,5.873-13.044
				C98.779,5.361,78.5-0.131,74.375,12.709L74.375,12.709z"/>
		</g>
	</g>
	<g>
		<g>
			<path fill="#D3054F" d="M99.875,39.709c-2.173,7.61-4.011,15.14-4.774,23.037c-0.81,8.377,0.765,16.801,1.958,25.06
				c1.064,7.364,1.746,14.28-1.353,21.221c-4.072,9.123-5.921,16.672-4.354,26.679c0.598,3.816,1.802,7.535,2.546,11.326
				c0.705,3.592-0.559,7.058-1.819,10.352c-2.568,6.713-4.504,12.471-5.278,19.646c-1.267,11.748-2.175,24.582,0.074,36.263
				c1.083,5.624,7.73,8.761,12.917,7.334c5.837-1.605,8.415-7.302,7.333-12.916c-0.44-2.284,0.255,2.681-0.035-0.107
				c-0.134-1.283-0.185-2.576-0.241-3.865c-0.121-2.762-0.101-5.531-0.066-8.295c0.077-6.145,0.411-12.298,1.019-18.413
				c0.036-0.359,0.468-3.656,0.079-0.902c0.221-1.562,0.612-3.068,1.051-4.583c0.994-3.435,2.671-6.679,3.946-10.011
				c3.351-8.758,1.986-17.727-0.202-26.552c-0.719-2.901-1.656-6.079-1.084-9.089c0.611-3.216,2.243-6.193,3.519-9.172
				c3.743-8.732,4.397-17.229,3.282-26.608c-0.975-8.199-2.646-16.262-2.459-24.555c0.153-6.819,2.292-13.609,4.192-20.266
				C123.851,32.241,103.586,26.71,99.875,39.709L99.875,39.709z"/>
		</g>
	</g>
	<g>
		<g>
			<path fill="#E2005C" d="M123.934,57.2c-4.053,7.327-5.731,15.069-5.822,23.406c-0.087,7.976,1.482,15.875,1.414,23.861
				c-0.125,14.688-10.645,27.609-12.94,42.02c-0.731,4.589-1.555,9.235-3.334,15.334c-1.798,6.165-3.869,12.248-5.751,18.388
				c-3.238,10.559-7.404,23.646-3.625,34.582c4.395,12.719,24.685,7.253,20.25-5.582c-0.865-2.504-0.678-5.852-0.026-9.393
				c1.043-5.659,2.768-11.199,4.472-16.686c3.39-10.912,6.733-21.448,8.533-32.746c2.273-14.271,11.346-26.298,13.026-40.791
				c1.56-13.457-4.93-29.382,1.937-41.794C148.626,55.941,130.489,45.351,123.934,57.2L123.934,57.2z"/>
		</g>
	</g>
	<g>
		<g>
			<path fill="#D3054F" d="M24.875,78.709c-1.642,7.38-1.548,14.449,0.579,21.721c1.841,6.291,5.285,12.277,5.92,18.875
				c0.638,6.621-0.515,13.248-0.888,19.847c-0.444,7.86,1.184,15.586,4.359,22.75c3.047,6.876,7.4,13.068,10.717,19.812
				c0.601,1.222,1.016,2.495,1.449,3.784c0.34,1.085,0.627,2.183,0.863,3.294c0.122-2.085,0.04-2.278-0.247-0.581
				c-0.902,4.134-1.038,8.014,0.247,12.081c1.543,4.885,4.731,9.441,7.584,13.627c2.73,4.004,6.144,9.504,10.741,11.648
				c5.188,2.419,11.277,1.506,14.366-3.767c2.689-4.591,1.42-11.947-3.767-14.366c-1.571-0.732,2.058,1.944,0.279,0.258
				c-0.649-0.615-1.216-1.325-1.789-2.009c1.25,1.489-1.062-1.453-1.019-1.394c-0.698-0.969-1.357-1.966-2.019-2.96
				c-1.237-1.858-2.39-3.772-3.494-5.713c-0.424-0.745-0.813-1.508-1.195-2.275c0.73,1.888,0.753,1.822,0.067-0.195
				c-0.126,2.145-0.044,2.36,0.247,0.647c3.329-15.194-7.878-28.021-14.157-40.816c-5.039-10.267-0.646-22.784-1.346-33.672
				c-0.435-6.762-2.438-12.978-4.828-19.253c-2.022-5.311-3.683-10.092-2.422-15.761C48.06,71.098,27.815,65.491,24.875,78.709
				L24.875,78.709z"/>
		</g>
	</g>
	<g>
		<g>
			<path fill="#FF004F" d="M11.375,114.709c-1.898,6.945-3.126,13.776-2.125,20.957c0.934,6.698,4.305,12.892,8.057,18.421
				c1.197,1.764,4.199,5.082,4.755,5.828c1.327,1.781,0.948,2.579,0.245,4.832c-2.528,8.106-1.56,15.94,3.993,22.582
				c3.637,4.35,8.7,7.049,13.775,9.362c2.59,1.181,5.174,2.337,7.656,3.734c-0.124-0.07,2.833,2.046,1.613,1.021
				c1.13,0.949,0.558,0.144,1.554,1.806c-1.127-1.882,0.196,0.56,0.343,1.018c0.311,0.968,0.55,1.961,0.807,2.943
				c0.743,2.847,1.591,5.595,2.854,8.266C58.063,222.166,63.917,225.226,71,226c5.702,0.623,10.5-5.248,10.5-10.5
				c0-6.194-4.812-9.878-10.5-10.5c1.445,0.158,3.201,2.089,2.438,0.733c1.064,1.891-0.229-0.791-0.335-1.133
				c-0.306-0.978-0.547-1.978-0.805-2.969c-1.287-4.946-3.072-9.59-6.551-13.438c-6.237-6.896-17.41-8.949-23.094-14.049
				c-0.856-0.936-1.027-1.09-0.51-0.461c-1.449-2.051-0.394,1.452-0.366-1.342c-0.014,1.449,0.844-2.205,0.782-2.013
				c0.396-1.237,0.71-2.454,0.958-3.729c1.458-7.474-0.874-14.572-5.654-20.339c-3.15-3.799-6.146-7.717-7.636-12.495
				c-1.252-4.017,0.071-8.619,1.399-13.477C35.201,107.207,14.941,101.661,11.375,114.709L11.375,114.709z"/>
		</g>
	</g>
	<g>
		<g>
			<path fill="#FF004F" d="M161.934,126.2c-6.045,9.56-11.43,19.55-21.468,25.461c-7.479,4.403-14.889,8.384-19.386,16.157
				c-2.457,4.246-3.895,9.193-5.204,13.891c-0.692,2.482-1.174,4.998-1.985,7.451c-0.315,0.953-0.41,1.029-0.981,1.693
				c-6.128,7.12-19.684,10.074-21.534,20.355c-1.012,5.627,1.446,11.297,7.333,12.916c5.135,1.412,11.902-1.695,12.917-7.334
				c-0.41,2.279-2.218,2.573,0.866,0.526c2.229-1.479,4.564-2.795,6.809-4.251c4.263-2.765,8.361-6.748,11.271-10.917
				c2.479-3.552,3.817-7.8,4.873-11.961c0.714-2.813,1.417-5.597,2.322-8.359c0.809-2.472,0.477-1.736,1.897-4.191
				c0.679-0.997,0.616-0.979-0.188,0.054c0.494-0.639,1.075-1.204,1.651-1.767c1.93-1.885-1.81,1.209,0.487-0.449
				c0.756-0.545,1.554-1.033,2.344-1.526c4.13-2.581,8.472-4.748,12.39-7.666c10.409-7.753,16.897-18.693,23.721-29.483
				C187.328,125.317,169.149,114.791,161.934,126.2L161.934,126.2z"/>
		</g>
	</g>
</g>
<g id="algues_vertes">
</g>
</svg>
