<?xml version="1.0" encoding="utf-8"?>
<!-- Generator: Adobe Illustrator 16.0.0, SVG Export Plug-In . SVG Version: 6.00 Build 0)  -->
<!DOCTYPE svg PUBLIC "-//W3C//DTD SVG 1.1//EN" "http://www.w3.org/Graphics/SVG/1.1/DTD/svg11.dtd">
<svg version="1.1" xmlns="http://www.w3.org/2000/svg" xmlns:xlink="http://www.w3.org/1999/xlink" x="0px" y="0px" width="126px"
	 height="239px" viewBox="0 0 126 239" enable-background="new 0 0 126 239" xml:space="preserve">
<g id="Layer_3">
</g>
<g id="Layer_1" display="none">
</g>
<g id="Amphore">
</g>
<g id="Colonne">
</g>
<g id="gro_rocher">
</g>
<g id="petit_rocher">
</g>
<g id="étoile">
</g>
<g id="oursins">
</g>
<g id="algues">
	<g>
		<g>
			<path fill="#D3054F" d="M20.292,174.625c2.441-0.506,2.338-0.506,4.479-0.469c-2.321-0.041,0.777,0.758-1.75-0.527
				c-1.543-0.785-2.146-2.188-2.755-3.679c1.041,2.546,0.059-2.031,0.206,0.992c0.072,1.491,0.022,2.99,0.042,4.483
				c0.125,9.729,4.452,20.369,15.044,22.478c1.672,0.332,5.584,0.499,6.54,0.689c-3.647-0.726-3.315-5.226-2.785-1.326
				c0.234,1.722,0.849,3.03,1.541,4.663c1.757,4.144,4.078,8.368,6.768,11.982c7.618,10.237,19.005,12.51,30.671,7.713
				c5.289-2.175,8.991-6.89,7.333-12.916c-1.379-5.014-7.613-9.515-12.917-7.334c-1.587,0.652-4.902,1.816-5.663,1.882
				c-2.889,0.248,1.037,0.525-1.442-0.145c2.124,0.573-1.127-1.115,0.519,0.271c-0.486-0.442-0.943-0.913-1.371-1.412
				c1.328,1.454-0.723-1.159-0.786-1.258c-1.215-1.906-2.229-3.946-3.285-5.942c-0.874-1.65-1-2.21-1.243-3.999
				c-0.458-3.377-2.839-6.254-5.013-8.696c-2.644-2.97-7.025-3.958-10.773-4.354c-1.332-0.14-2.66-0.222-3.996-0.306
				c1.338,0.084,2.001,0.896,2.693,1.828c-0.307-0.451-0.579-0.922-0.815-1.414c1.165,2.208,0.212,0.151,0.058-0.5
				c-0.617-2.6,0.174,2.319-0.021-0.339c-0.057-0.778-0.059-1.562-0.068-2.341c-0.044-3.435,0.045-6.962-0.987-10.282
				c-3.63-11.674-15.768-12.071-25.807-9.993c-5.606,1.16-8.776,7.672-7.333,12.916C8.965,173.071,14.692,175.784,20.292,174.625
				L20.292,174.625z"/>
		</g>
	</g>
	<g>
		<g>
			<path fill="#E2005C" d="M61.434,16.7c-5.571,9.269-5.896,19.76-4.433,30.186c1.12,7.976,4.408,17.18,2.798,23.947
				c-2.237,9.407-6.103,17.495-4.292,27.462c0.729,4.011,2.178,7.813,3.255,11.734c1.239,4.511,0.779,8.313-0.516,12.718
				c-2.947,10.021-4.147,18.883-1.483,29.188c1.173,4.534,2.953,8.899,4.225,13.408c0.473,1.675,0.824,3.303,0.967,5.027
				c0.044,0.536-0.242,5.469,0.014,3.566c-1.845,13.697-10.11,34.538,2.607,45.488c4.333,3.73,10.579,4.271,14.85,0
				c3.819-3.819,4.34-11.112,0-14.85c-0.839-0.815-0.858-0.719-0.057,0.292c-0.562-1.024-0.583-0.977-0.064,0.143
				c-0.196-0.6-0.352-1.209-0.467-1.83c0.135,1.142,0.148,1.052,0.039-0.269c-0.224-3.509,0.251-6.34,0.719-9.119
				c1.172-6.967,2.975-13.86,3.388-20.938c0.537-9.192-3.492-17.88-5.969-26.503c-2.33-8.113,0.796-14.466,2.615-22.304
				c2.216-9.556-0.299-18.365-2.999-27.471c-1.997-6.736,1.581-13.357,3.42-20.162c2.478-9.164,0.591-18.02-1.38-27.056
				c-1.56-7.151-3.06-15.478,0.897-22.06C86.562,15.662,68.4,5.111,61.434,16.7L61.434,16.7z"/>
		</g>
	</g>
	<g>
		<g>
			<path fill="#FF004F" d="M33.875,92.709c-3.067,13.361-2.096,26.354,0.736,39.655c2.496,11.719,5.976,23.043,5.889,35.136
				c-0.045,6.233,1.132,11.646,3.692,17.293c2.027,4.468,5.307,8.306,7.517,12.697c1.099,2.184,0.748,1.863,0.836,4.233
				c0.087,2.332,0.036,4.65,0.29,6.976c0.788,7.218,3.979,12.209,10.873,14.926c5.333,2.102,11.521-2.26,12.917-7.334
				c1.641-5.965-2.014-10.819-7.333-12.916c3.836,5.234,5.284,6.41,4.343,3.527c0.552,2.062-0.019-1.314-0.027-1.552
				c-0.069-2.013-0.053-4.021-0.187-6.031c-0.362-5.446-2.284-10.149-4.876-14.907c-1.912-3.509-4.402-6.652-6.219-10.219
				c-1.165-2.286-0.762-8.063-0.909-11.724c-0.868-21.606-12.285-42.429-7.292-64.179C57.151,85.109,36.904,79.512,33.875,92.709
				L33.875,92.709z"/>
		</g>
	</g>
	<g>
		<g>
			<path fill="#FF004F" d="M98.075,118.575c-4.641,5.012-6.128,12.395-7.633,18.847c-2.218,9.509-3.96,19.127-5.976,28.68
				c-2.02,9.575-4.159,19.202-7.445,28.435c-0.264,0.741-0.548,1.475-0.834,2.208c-0.709,1.819,0.872-1.868-0.385,0.833
				c-0.702,1.509-1.521,2.958-2.455,4.334c-1.056,1.554,1.822-2.038,0.009-0.144c-1.739,1.818,1.718-1.102,0.413-0.29
				c-0.93,0.485-0.45,0.294,1.44-0.575c-1.031,0.273-0.466,0.223,1.692-0.154c-2.255,0.268,2.429,0.578,0.889,0.127
				c-13.028-3.813-18.552,16.454-5.583,20.25c20.873,6.109,27.363-26.907,30.541-40.525c2.464-10.561,4.43-21.229,6.673-31.838
				c0.856-4.05,1.759-8.095,2.867-12.084c0.408-1.467,0.869-2.919,1.402-4.345c0.653-1.747-1.263,2.671-0.183,0.518
				c1.108-2.207-1.003,1.027-0.584,0.574C122.109,123.506,107.294,108.62,98.075,118.575L98.075,118.575z"/>
		</g>
	</g>
</g>
<g id="algues_vertes">
</g>
</svg>
