<?xml version="1.0" encoding="utf-8"?>
<!-- Generator: Adobe Illustrator 16.0.0, SVG Export Plug-In . SVG Version: 6.00 Build 0)  -->
<!DOCTYPE svg PUBLIC "-//W3C//DTD SVG 1.1//EN" "http://www.w3.org/Graphics/SVG/1.1/DTD/svg11.dtd">
<svg version="1.1" xmlns="http://www.w3.org/2000/svg" xmlns:xlink="http://www.w3.org/1999/xlink" x="0px" y="0px" width="122px"
	 height="212px" viewBox="0 0 122 212" enable-background="new 0 0 122 212" xml:space="preserve">
<g id="Layer_3">
</g>
<g id="Layer_1" display="none">
</g>
<g id="Amphore">
</g>
<g id="Colonne">
</g>
<g id="gro_rocher">
</g>
<g id="petit_rocher">
</g>
<g id="étoile">
</g>
<g id="oursins">
</g>
<g id="algues">
</g>
<g id="algues_vertes">
	<g>
		<g>
			<path fill="#0A5B4C" d="M86.2,112.434c-8.591,5.032-16.734,10.144-22.396,18.562c-3.304,4.912-4.46,10.966-4.128,16.78
				c0.254,4.438,2.325,9.515,1.382,13.932c-0.487,2.279,1.085-0.907-0.167,0.447c-1.043,1.128-2.208,2.148-3.347,3.178
				c-2.624,2.373-5.314,4.665-7.815,7.171c-6.131,6.142-10.509,15.722-3.154,22.921c9.681,9.475,24.54-5.365,14.85-14.85
				c1.886,2.296,2.561,4.754,2.025,7.375c-0.675,1.509-0.713,1.737-0.113,0.688c-1.36,2.181,0.808-0.832,1.241-1.284
				c1.96-2.049,4.133-3.902,6.254-5.78c5.091-4.511,9.314-8.844,10.796-15.784c1.051-4.923,0.338-9.757-0.439-14.654
				c-0.432-2.721-1.234-5.78,0.04-8.329c2.939-5.881,10.176-9.079,15.571-12.239C108.474,123.728,97.911,105.574,86.2,112.434
				L86.2,112.434z"/>
		</g>
	</g>
	<g>
		<g>
			<path fill="#157764" d="M81.7,20.934c-17.009,9.136-13.492,28.071-8.264,43.238c1.229,3.568,2.5,7.119,3.58,10.736
				c0.497,1.663,0.9,3.349,1.249,5.048c0.212,1.27,0.229,1.29,0.05,0.062c0.105,0.895,0.114,1.793,0.114,2.692
				c-0.085,1.238-0.045,1.143,0.122-0.29c-0.167,1.051-0.555,2.063-0.905,3.062c0.447-1.275-2.364,3.198-1.292,1.925
				c-2.499,2.968-3.723,3.519-7.296,5.645c-6.934,4.127-14.027,7.448-20.12,12.877c-7.565,6.741-10.479,16.455-11.586,26.178
				c-1.15,10.098,1.131,20.608,2.849,30.516c1.395,8.051,3.04,17.354,1.173,24.587c-3.386,13.123,16.869,18.687,20.25,5.582
				c4.745-18.39-3.076-36.638-3.498-55.04c-0.177-7.728,1.59-13.346,6.48-17.703c1.343-1.197,5.318-3.494,8.147-5.051
				c3.276-1.803,6.58-3.535,9.728-5.559c7.454-4.793,12.858-11.094,15.803-19.485c2.436-6.94,0.698-14.871-1.333-21.671
				c-2.051-6.87-4.854-13.487-6.556-20.465c-0.162-0.687-0.308-1.378-0.439-2.071c-0.652-3.251,0.116,1.966-0.152-1.206
				c-0.07-0.83,0.423-5.129-0.036-2.723c0.125-0.569,0.285-1.129,0.48-1.678c-0.864,2.69,1.088-1.202-0.536,0.864
				c0.399-0.47,0.831-0.909,1.294-1.316c-1.478,1.399,1.065-0.5,1.291-0.621C104.232,32.657,93.628,14.527,81.7,20.934L81.7,20.934z
				"/>
		</g>
	</g>
	<g>
		<g>
			<path fill="#0C6655" d="M36.075,50.075c-6.06,6.498-9.288,14.396-8.127,23.336c0.877,6.754,4.354,14.374,2.882,19.988
				c-1.484,5.664-5.938,10.889-9.071,15.925c-3.948,6.345-6.389,13.635-5.77,21.167c0.766,9.324,5.031,17.254,10.71,24.48
				c4.303,5.475,8.315,9.929,9.814,16.977c-0.646-3.035-0.046,0.657-0.016,1.367c0.058,1.315,0.08,2.632,0.124,3.948
				c0.115,3.476,0.425,7.027,1.29,10.401c2.312,9.018,10.171,12.852,18.879,11.46c5.659-0.904,8.723-7.863,7.333-12.916
				c-1.642-5.968-7.27-8.236-12.917-7.334c2.86-0.457,5.167,0.506,6.803,2.866c1.363,1.968-0.013-0.247-0.242-1.384
				c0.483,2.402-0.026-0.734-0.05-1.07c-0.096-1.342-0.12-2.689-0.159-4.033c-0.182-6.251-1.145-11.996-3.739-17.738
				c-4.776-10.57-17.294-19.007-16.927-30.643c-0.056,1.764,0.351-1.479,0.378-1.585c0.199-0.693,0.429-1.375,0.691-2.046
				c-0.341,0.86-0.244,0.713,0.291-0.442c1.174-2.345,2.672-4.534,4.109-6.723c3.563-5.428,6.575-10.937,8.718-17.096
				c2.323-6.677,0.828-14.285-0.831-20.907c-1.375-5.488-3.18-9.017,0.675-13.149C60.148,55.036,45.33,40.153,36.075,50.075
				L36.075,50.075z"/>
		</g>
	</g>
</g>
</svg>
