<?xml version="1.0" encoding="utf-8"?>
<!-- Generator: Adobe Illustrator 16.0.0, SVG Export Plug-In . SVG Version: 6.00 Build 0)  -->
<!DOCTYPE svg PUBLIC "-//W3C//DTD SVG 1.1//EN" "http://www.w3.org/Graphics/SVG/1.1/DTD/svg11.dtd">
<svg version="1.1" xmlns="http://www.w3.org/2000/svg" xmlns:xlink="http://www.w3.org/1999/xlink" x="0px" y="0px" width="281px"
	 height="293px" viewBox="0 0 281 293" enable-background="new 0 0 281 293" xml:space="preserve">
<g id="Layer_3">
</g>
<g id="Layer_1" display="none">
</g>
<g id="Amphore">
	<path fill="#FFC34E" d="M209.333,63.667c0,0,1.248-22-15-32.333c-22.19-14.112-47-4.667-47-4.667s-8.521,5.708-8.333,5.771s2,9,2,9
		l6.438-2.625c0,0,18.875-8.062,31.938,1.375S188.938,66,188.938,66L209.333,63.667z"/>
	<path fill="#D4A341" d="M188.938,66c0,0,3.5-16.375-9.562-25.812s-31.938-1.375-31.938-1.375L141,41.438
		c0,0-0.384-1.892-0.816-3.941c0,0,8.983-7.996,28.816-6.996S198.708,50.667,188.938,66z"/>
	<polygon fill="#DC8A5D" points="141,20.333 145.898,68.46 150.25,65.667 147.333,26.667 	"/>
	<polygon fill="#F1A57A" points="107.26,8 71.666,24.667 107.26,72 126.999,60.75 	"/>
	<polygon fill="#F49E6E" points="128.667,13.667 139.915,65.166 145.333,62.907 141,20.333 	"/>
	<polygon fill="#FFC19F" points="107.26,8 126.999,60.75 138.583,59.064 128.667,13.667 	"/>
	<polygon fill="#F49E6E" points="52.332,48.334 88.413,85.502 106.004,70.33 71.666,24.667 	"/>
	<polygon fill="#DC895C" points="46.332,65.667 79.332,98.001 88.413,85.502 52.332,48.334 	"/>
	<path fill="#AD7A60" d="M106.004,181.5l-1.493,37.491c-22.721-14.036-41.667-33.572-45.178-60.324
		c-2.887-22,2.451-42.584,12.714-59.738C72.047,98.929,46.723,132.672,106.004,181.5z"/>
	<path fill="#C58B6D" d="M106.004,181.5L121,142.75c0,0-36-44.749-22.226-73.417c0,0-19.749,17.934-26.727,29.596
		C72.047,98.929,46.723,132.478,106.004,181.5z"/>
	<path fill="#D59777" d="M121,142.75l57.75-45.499c-22.25-49.999-42.418-44.919-42.418-44.919
		c-13.099,2.456-26.071,8.399-37.558,17.001C98.774,69.333,83.388,92.418,121,142.75z"/>
	<path fill="#E2A585" d="M136.332,52.332c11.793-1.939,19.476-2.254,27.944-1.708c0,0,43.725-0.874,53.725,53.376l-39.25-6.749
		C155.875,46.75,136.332,52.332,136.332,52.332z"/>
	<path fill="#C58B6D" d="M185.194,53.987c-6.101-1.394-13.092-2.858-20.919-3.363c0,0,43.227-0.806,53.725,53.376l16.75,9
		C234.75,113,228.888,63.972,185.194,53.987z"/>
	<path fill="#AD7A60" d="M234.75,113l7.583,9.334c-3.667-48-33-58.667-33-58.667s-9.019-5.749-24.139-9.68
		C185.194,53.987,225.5,59.834,234.75,113z"/>
	<path fill="#DC8A5D" d="M196,251.334c0,0-51.572-7.683-91.49-32.343l1.493-37.491c0,0,27.909,37.914,96.328,58.832L196,251.334z"/>
	<path fill="#F49E6E" d="M106.004,181.5L121,142.75c0,0,35.913,53.33,89.582,87.915l-8.25,9.667
		C202.332,240.332,143.758,225,106.004,181.5z"/>
	<path fill="#F1A57A" d="M121,142.75l57.75-45.499c0,0,18.25,30.499,41.915,125.081l-10.083,8.333
		C210.582,230.665,160.25,200.5,121,142.75z"/>
	<path fill="#FFC19F" d="M218,104c0,0,12.778,28,12.778,112.999l-10.113,5.333c0,0-22.165-91.082-41.915-125.081L218,104z"/>
	<path fill="#F49E6E" d="M234.75,113c0,0,7.583,28.75,3.609,101.595l-7.581,2.404c0,0,2.222-68.249-12.778-112.999L234.75,113z"/>
	<path fill="#DC8A5D" d="M234.872,113.5l7.461,8.833c3.667,48,0,91,0,91l-3.974,1.261c0,0,3.974-71.845-3.609-101.595"/>
	<path fill="#AF7B61" d="M202.5,260.667l-5.5,19.667c-1.333-1-8.667-12.666-1-29l6.331-11.002L202.5,260.667z"/>
	<polygon fill="#C58B6D" points="202.332,240.332 210.582,230.665 219.333,243.667 202.5,260.667 	"/>
	<polygon fill="#D59777" points="210.582,230.665 220.665,222.332 235.5,231.667 219.333,243.667 	"/>
	<polygon fill="#E2A585" points="250.667,223.167 235.5,231.667 220.665,222.332 230.778,216.999 	"/>
	<path fill="#C48A6D" d="M230.778,216.999l11.555-3.665c0,0,17.667,0.999,25.333,4.666l-17,5.167L230.778,216.999z"/>
	<path fill="#DC8A5D" d="M219.333,243.667l-16.833,17l-5.5,19.667c1.333,1,29-8.667,29-8.667L219.333,243.667z"/>
	<polygon fill="#F49E6E" points="228.139,237.131 219.333,243.667 226,271.667 243,260.334 	"/>
	<polygon fill="#F1A57A" points="235.5,231.667 228.139,237.131 243,260.334 257,246 	"/>
	<polygon fill="#F49E6E" points="267.667,233 257,246 235.5,231.667 246.428,225.541 	"/>
	<path fill="#DC8A5D" d="M267.667,233c3-9.667,0-15,0-15l-17,5.167l-4.238,2.374L267.667,233z"/>
	<path fill="#FFC34E" d="M59.333,158.667c0,0-30.001-2.667-37.667-25s2.834-53.167,24.667-68c9.15-6.217,12.751-7.751,16.168-9.167
		s8.084-1.415,10.333,2.333c1.88,3.134,2.331,8.5-1.168,10.75S53.417,79.501,44.75,93.918s-4.5,41.417,8.667,41.751
		s20.168-0.25,20.709,9.833S66.249,158.583,59.333,158.667z"/>
	<path fill="#D3A241" d="M53.417,135.669c0,0-9.542,0-12.465-15.31c-2.096-10.981-0.176-19.831,3.798-26.441
		c8.667-14.417,23.416-22.084,26.915-24.334s3.048-7.616,1.168-10.75c0,0-27.32,15.711-37,32.166
		C26.334,107.147,27,134.666,53.417,135.669z"/>
</g>
<g id="Colonne">
</g>
<g id="gro_rocher">
</g>
<g id="petit_rocher">
</g>
<g id="étoile">
</g>
<g id="oursins">
</g>
<g id="algues">
</g>
<g id="algues_vertes">
</g>
</svg>
