<?xml version="1.0" encoding="utf-8"?>
<!-- Generator: Adobe Illustrator 16.0.0, SVG Export Plug-In . SVG Version: 6.00 Build 0)  -->
<!DOCTYPE svg PUBLIC "-//W3C//DTD SVG 1.1//EN" "http://www.w3.org/Graphics/SVG/1.1/DTD/svg11.dtd">
<svg version="1.1" xmlns="http://www.w3.org/2000/svg" xmlns:xlink="http://www.w3.org/1999/xlink" x="0px" y="0px"
	 width="276.388px" height="255px" viewBox="0 0 276.388 255" enable-background="new 0 0 276.388 255" xml:space="preserve">
<g id="Layer_3">
</g>
<g id="Layer_1" display="none">
</g>
<g id="Amphore">
</g>
<g id="Colonne">
	<path fill="#D2C494" d="M45.646,35.762c4.96-5.411,11.574-10.095,23.741-12.095S206.221,8.5,206.221,8.5s15.584-1.417,21.167,9.833
		c5.599,11.282,38.5,83.333,38.5,83.333s4.787,10.988-4.833,22.667c-9.334,11.332-28.334,19.499-41.833,4.333l-21,5.167
		l-51.666,90.168L109.721,243l-36.5-1.333l-36.333-21l-14.833-15.5l3.5-46.833l39.832-53.667l-23.5-42
		C41.887,62.666,33.054,49.498,45.646,35.762z"/>
	<path fill="#FCF3D3" d="M227.387,18.333C220.886,6.663,206.221,8.5,206.221,8.5S81.554,21.667,69.387,23.667
		s-18.78,6.684-23.741,12.095c-1.208,1.317-2.218,2.628-3.058,3.924c0,0-5.203,7.311-2.37,13.978s13.833,11.331,25.833,6.833
		c13.959-5.232,16.5-14.833,16.5-14.833l99.668-11.167c0,0-5.938,11.998,2.333,17.167c7.272,4.545,20.081,3.743,28.167-0.833
		c8.482-4.801,13.833-11.667,15.255-17.257C228.915,29.873,230.028,23.074,227.387,18.333z"/>
	<path fill="#A09469" d="M248.458,134.154c4.942-2.327,9.353-5.883,12.596-9.821c9.62-11.679,4.833-22.667,4.833-22.667
		c-16.331-38.331-38.5-83.333-38.5-83.333c2.641,4.741,1.527,11.54,0.587,15.239c-1.421,5.59-6.772,12.456-15.255,17.257
		c-0.409,0.231-0.827,0.452-1.251,0.663L248.458,134.154z"/>
	<path fill="#A09469" d="M55.224,62.243c3.36,0.179,7.044-0.329,10.828-1.747c13.959-5.232,16.5-14.833,16.5-14.833l16.003,31.335
		l-15.833,30.667l-7.333-8.5L55.224,62.243z"/>
	<path fill="#FCF3D3" d="M65.387,104.666l-39.832,53.667l-3.5,46.833l7.333-36.002l32.833-25.833l-8.333,47l17.5-6.5l87.499-126.834
		c0,0-19.5-3.666-37.167,0.667S94.485,69.028,94.485,69.028L65.387,104.666z"/>
	<polygon fill="#FCF3D3" points="119.053,181.251 104.887,192.497 106.72,215.663 111.22,217.83 	"/>
	<polygon fill="#FCF3D3" points="54.551,214.163 73.218,212.83 73.221,241.667 	"/>
	<polygon fill="#FCF3D3" points="22.055,205.167 34.721,206 36.888,221.167 	"/>
	<polygon fill="#A09469" points="146.555,224.001 198.221,133.833 219.221,128.667 199.721,85.875 138.471,188.75 	"/>
	<polygon fill="#A09469" points="138.471,188.75 119.053,181.251 111.22,217.83 109.721,243 	"/>
	<polygon fill="#A09469" points="94.72,209.083 73.221,241.667 109.721,243 106.72,215.663 	"/>
	<polygon fill="#A09469" points="71.388,183.831 73.218,212.83 94.72,209.083 104.887,192.497 	"/>
	<polygon fill="#A09469" points="53.888,190.331 54.551,214.163 36.888,221.167 34.721,206 	"/>
	<polygon fill="#A09469" points="29.388,169.165 34.721,206 22.055,205.167 	"/>
	<g>
		<g>
			<path fill="#D2C494" d="M200.057,36.666c2.97,0.303,7.072-0.8,8.354-3.846c1.282-3.045-0.133-6.335-3.455-7.227
				c-7.355-1.974-13.838,2.523-16.196,9.477c-2.693,7.943,4.643,11.763,11.432,11.427c8.13-0.402,17.21-5.247,20.069-13.169
				c2.709-7.506-1.065-15.477-8.729-17.163c-10.049-2.21-20.676,0.107-30.684,1.26c-11.409,1.315-22.833,2.498-34.25,3.738
				c-17.169,1.866-34.338,3.736-51.501,5.667c-10.2,1.147-20.982,1.524-30.98,3.997c-8.519,2.107-17.255,8.014-17.699,17.493
				c-0.379,8.086,8.734,9.725,14.878,8.913c6.666-0.88,16.732-7.002,13.039-15.211c-3.505-7.788-14.655-4.63-19,0.584
				c-7.021,8.425,11.672,10.77,9.001,2.328c-0.581-1.837-3.478-1.052-2.893,0.798c0.736,2.327-7.364,3.048-3.286-1.847
				c0.903-1.084,2.274-1.783,3.493-2.439c2.812-1.513,7.499-1.799,9.629,1.057c3.083,4.132-2.469,9.269-5.826,10.616
				c-2.258,0.906-4.719,1.269-7.133,1.377c-6.066,0.274-10.037-3.054-8.4-9.373c1.655-6.387,9.299-9.78,14.995-11.403
				c10.131-2.888,21.663-2.933,32.07-4.103c28.093-3.156,56.227-5.977,84.307-9.244c9.081-1.057,17.853-2.39,27.015-1.646
				c3.415,0.277,6.7,1.115,8.509,4.261c2.635,4.583,0.81,10.836-2.567,14.37c-4.072,4.262-20.32,11.075-22.856,2.042
				c-1.101-3.919,2.457-8.251,5.457-10.168c1.88-1.202,4.192-1.336,6.335-1.008c2.049,0.166,2.732,1.494,2.047,3.985
				c-1.173,1.48-3.498,1.627-5.174,1.456C198.133,33.47,198.152,36.472,200.057,36.666L200.057,36.666z"/>
		</g>
	</g>
	<path fill="#A09469" d="M158.887,56.997l30.834,6.753l10,22.125C199.721,85.875,193.052,67.368,158.887,56.997z"/>
</g>
<g id="gro_rocher">
</g>
<g id="petit_rocher">
</g>
<g id="étoile">
</g>
<g id="oursins">
</g>
<g id="algues">
</g>
<g id="algues_vertes">
</g>
</svg>
