<?xml version="1.0" encoding="UTF-8" standalone="no"?>
<!-- Generator: Adobe Illustrator 16.0.0, SVG Export Plug-In . SVG Version: 6.00 Build 0)  -->

<svg
   xmlns:dc="http://purl.org/dc/elements/1.1/"
   xmlns:cc="http://creativecommons.org/ns#"
   xmlns:rdf="http://www.w3.org/1999/02/22-rdf-syntax-ns#"
   xmlns:svg="http://www.w3.org/2000/svg"
   xmlns="http://www.w3.org/2000/svg"
   xmlns:sodipodi="http://sodipodi.sourceforge.net/DTD/sodipodi-0.dtd"
   xmlns:inkscape="http://www.inkscape.org/namespaces/inkscape"
   version="1.1"
   x="0px"
   y="0px"
   width="1024"
   height="1024"
   viewBox="0 0 1024 1024"
   enable-background="new 0 0 281 293"
   xml:space="preserve"
   id="svg2"
   inkscape:version="0.48.4 r9939"
   sodipodi:docname="Amphore-06.svg"><metadata
   id="metadata82"><rdf:RDF><cc:Work
       rdf:about=""><dc:format>image/svg+xml</dc:format><dc:type
         rdf:resource="http://purl.org/dc/dcmitype/StillImage" /><dc:title></dc:title></cc:Work></rdf:RDF></metadata><defs
   id="defs80" /><sodipodi:namedview
   pagecolor="#ffffff"
   bordercolor="#666666"
   borderopacity="1"
   objecttolerance="10"
   gridtolerance="10"
   guidetolerance="10"
   inkscape:pageopacity="0"
   inkscape:pageshadow="2"
   inkscape:window-width="1440"
   inkscape:window-height="837"
   id="namedview78"
   showgrid="false"
   inkscape:zoom="0.71193345"
   inkscape:cx="627.36959"
   inkscape:cy="220.42371"
   inkscape:window-x="-8"
   inkscape:window-y="-8"
   inkscape:window-maximized="1"
   inkscape:current-layer="svg2" />
<g
   id="Layer_3"
   transform="translate(0,731)">
</g>
<g
   id="Layer_1"
   display="none"
   style="display:none"
   transform="translate(0,731)">
</g>
<g
   id="Amphore"
   transform="translate(90.537674,659.36409)"
   inkscape:export-filename="C:\Users\Nicolas\Desktop\PA\cf_heritage\Design\Obstacles\Greece.png"
   inkscape:export-xdpi="90"
   inkscape:export-ydpi="90">
	<path
   d="m 209.333,63.667 c 0,0 1.248,-22 -15,-32.333 -22.19,-14.112 -47,-4.667 -47,-4.667 0,0 -8.521,5.708 -8.333,5.771 0.188,0.063 2,9 2,9 l 6.438,-2.625 c 0,0 18.875,-8.062 31.938,1.375 13.063,9.437 9.562,25.812 9.562,25.812 l 20.395,-2.333 z"
   id="path7"
   inkscape:connector-curvature="0"
   style="fill:#ffc34e" />
	<path
   d="m 188.938,66 c 0,0 3.5,-16.375 -9.562,-25.812 -13.062,-9.437 -31.938,-1.375 -31.938,-1.375 L 141,41.438 c 0,0 -0.384,-1.892 -0.816,-3.941 0,0 8.983,-7.996 28.816,-6.996 19.833,1 29.708,20.166 19.938,35.499 z"
   id="path9"
   inkscape:connector-curvature="0"
   style="fill:#d4a341" />
	<polygon
   points="147.333,26.667 141,20.333 145.898,68.46 150.25,65.667 "
   id="polygon11"
   style="fill:#dc8a5d" />
	<polygon
   points="126.999,60.75 107.26,8 71.666,24.667 107.26,72 "
   id="polygon13"
   style="fill:#f1a57a" />
	<polygon
   points="141,20.333 128.667,13.667 139.915,65.166 145.333,62.907 "
   id="polygon15"
   style="fill:#f49e6e" />
	<polygon
   points="128.667,13.667 107.26,8 126.999,60.75 138.583,59.064 "
   id="polygon17"
   style="fill:#ffc19f" />
	<polygon
   points="71.666,24.667 52.332,48.334 88.413,85.502 106.004,70.33 "
   id="polygon19"
   style="fill:#f49e6e" />
	<polygon
   points="52.332,48.334 46.332,65.667 79.332,98.001 88.413,85.502 "
   id="polygon21"
   style="fill:#dc895c" />
	<path
   d="m 106.004,181.5 -1.493,37.491 C 81.79,204.955 62.844,185.419 59.333,158.667 c -2.887,-22 2.451,-42.584 12.714,-59.738 0,0 -25.324,33.743 33.957,82.571 z"
   id="path23"
   inkscape:connector-curvature="0"
   style="fill:#ad7a60" />
	<path
   d="M 106.004,181.5 121,142.75 c 0,0 -36,-44.749 -22.226,-73.417 0,0 -19.749,17.934 -26.727,29.596 0,0 -25.324,33.549 33.957,82.571 z"
   id="path25"
   inkscape:connector-curvature="0"
   style="fill:#c58b6d" />
	<path
   d="M 121,142.75 178.75,97.251 C 156.5,47.252 136.332,52.332 136.332,52.332 c -13.099,2.456 -26.071,8.399 -37.558,17.001 0,0 -15.386,23.085 22.226,73.417 z"
   id="path27"
   inkscape:connector-curvature="0"
   style="fill:#d59777" />
	<path
   d="m 136.332,52.332 c 11.793,-1.939 19.476,-2.254 27.944,-1.708 0,0 43.725,-0.874 53.725,53.376 l -39.25,-6.749 C 155.875,46.75 136.332,52.332 136.332,52.332 z"
   id="path29"
   inkscape:connector-curvature="0"
   style="fill:#e2a585" />
	<path
   d="m 185.194,53.987 c -6.101,-1.394 -13.092,-2.858 -20.919,-3.363 0,0 43.227,-0.806 53.725,53.376 l 16.75,9 c 0,0 -5.862,-49.028 -49.556,-59.013 z"
   id="path31"
   inkscape:connector-curvature="0"
   style="fill:#c58b6d" />
	<path
   d="m 234.75,113 7.583,9.334 c -3.667,-48 -33,-58.667 -33,-58.667 0,0 -9.019,-5.749 -24.139,-9.68 0,0 40.306,5.847 49.556,59.013 z"
   id="path33"
   inkscape:connector-curvature="0"
   style="fill:#ad7a60" />
	<path
   d="m 196,251.334 c 0,0 -51.572,-7.683 -91.49,-32.343 l 1.493,-37.491 c 0,0 27.909,37.914 96.328,58.832 L 196,251.334 z"
   id="path35"
   inkscape:connector-curvature="0"
   style="fill:#dc8a5d" />
	<path
   d="M 106.004,181.5 121,142.75 c 0,0 35.913,53.33 89.582,87.915 l -8.25,9.667 c 0,0 -58.574,-15.332 -96.328,-58.832 z"
   id="path37"
   inkscape:connector-curvature="0"
   style="fill:#f49e6e" />
	<path
   d="m 121,142.75 57.75,-45.499 c 0,0 18.25,30.499 41.915,125.081 l -10.083,8.333 c 0,0 -50.332,-30.165 -89.582,-87.915 z"
   id="path39"
   inkscape:connector-curvature="0"
   style="fill:#f1a57a" />
	<path
   d="m 218,104 c 0,0 12.778,28 12.778,112.999 l -10.113,5.333 c 0,0 -22.165,-91.082 -41.915,-125.081 L 218,104 z"
   id="path41"
   inkscape:connector-curvature="0"
   style="fill:#ffc19f" />
	<path
   d="m 234.75,113 c 0,0 7.583,28.75 3.609,101.595 l -7.581,2.404 c 0,0 2.222,-68.249 -12.778,-112.999 l 16.75,9 z"
   id="path43"
   inkscape:connector-curvature="0"
   style="fill:#f49e6e" />
	<path
   d="m 234.872,113.5 7.461,8.833 c 3.667,48 0,91 0,91 l -3.974,1.261 c 0,0 3.974,-71.845 -3.609,-101.595"
   id="path45"
   inkscape:connector-curvature="0"
   style="fill:#dc8a5d" />
	<path
   d="m 202.5,260.667 -5.5,19.667 c -1.333,-1 -8.667,-12.666 -1,-29 l 6.331,-11.002 0.169,20.335 z"
   id="path47"
   inkscape:connector-curvature="0"
   style="fill:#af7b61" />
	<polygon
   points="202.5,260.667 202.332,240.332 210.582,230.665 219.333,243.667 "
   id="polygon49"
   style="fill:#c58b6d" />
	<polygon
   points="219.333,243.667 210.582,230.665 220.665,222.332 235.5,231.667 "
   id="polygon51"
   style="fill:#d59777" />
	<polygon
   points="230.778,216.999 250.667,223.167 235.5,231.667 220.665,222.332 "
   id="polygon53"
   style="fill:#e2a585" />
	<path
   d="m 230.778,216.999 11.555,-3.665 c 0,0 17.667,0.999 25.333,4.666 l -17,5.167 -19.888,-6.168 z"
   id="path55"
   inkscape:connector-curvature="0"
   style="fill:#c48a6d" />
	<path
   d="m 219.333,243.667 -16.833,17 -5.5,19.667 c 1.333,1 29,-8.667 29,-8.667 l -6.667,-28 z"
   id="path57"
   inkscape:connector-curvature="0"
   style="fill:#dc8a5d" />
	<polygon
   points="243,260.334 228.139,237.131 219.333,243.667 226,271.667 "
   id="polygon59"
   style="fill:#f49e6e" />
	<polygon
   points="257,246 235.5,231.667 228.139,237.131 243,260.334 "
   id="polygon61"
   style="fill:#f1a57a" />
	<polygon
   points="246.428,225.541 267.667,233 257,246 235.5,231.667 "
   id="polygon63"
   style="fill:#f49e6e" />
	<path
   d="m 267.667,233 c 3,-9.667 0,-15 0,-15 l -17,5.167 -4.238,2.374 21.238,7.459 z"
   id="path65"
   inkscape:connector-curvature="0"
   style="fill:#dc8a5d" />
	<path
   d="m 59.333,158.667 c 0,0 -30.001,-2.667 -37.667,-25 C 14,111.334 24.5,80.5 46.333,65.667 55.483,59.45 59.084,57.916 62.501,56.5 c 3.417,-1.416 8.084,-1.415 10.333,2.333 1.88,3.134 2.331,8.5 -1.168,10.75 -3.499,2.25 -18.249,9.918 -26.916,24.335 -8.667,14.417 -4.5,41.417 8.667,41.751 13.167,0.334 20.168,-0.25 20.709,9.833 0.541,10.083 -7.877,13.081 -14.793,13.165 z"
   id="path67"
   inkscape:connector-curvature="0"
   style="fill:#ffc34e" />
	<path
   d="m 53.417,135.669 c 0,0 -9.542,0 -12.465,-15.31 -2.096,-10.981 -0.176,-19.831 3.798,-26.441 8.667,-14.417 23.416,-22.084 26.915,-24.334 3.499,-2.25 3.048,-7.616 1.168,-10.75 0,0 -27.32,15.711 -37,32.166 -9.499,16.147 -8.833,43.666 17.584,44.669 z"
   id="path69"
   inkscape:connector-curvature="0"
   style="fill:#d3a241" />
</g>
<g
   id="Colonne"
   transform="translate(0,731)">
</g>
<g
   id="gro_rocher"
   transform="translate(0,731)">
</g>
<g
   id="petit_rocher"
   transform="translate(0,731)">
</g>
<g
   id="étoile"
   transform="translate(0,731)">
</g>
<g
   id="oursins"
   transform="translate(0,731)">
</g>
<g
   id="algues"
   transform="translate(0,731)">
</g>
<g
   id="algues_vertes"
   transform="translate(0,731)">
</g>
<g
   transform="translate(677.35288,725.5337)"
   id="Colonne-1"><path
     style="fill:#d2c494"
     inkscape:connector-curvature="0"
     d="M 45.646,35.762 C 50.606,30.351 57.22,25.667 69.387,23.667 81.554,21.667 206.221,8.5 206.221,8.5 c 0,0 15.584,-1.417 21.167,9.833 5.599,11.282 38.5,83.333 38.5,83.333 0,0 4.787,10.988 -4.833,22.667 -9.334,11.332 -28.334,19.499 -41.833,4.333 l -21,5.167 -51.666,90.168 -36.835,18.999 -36.5,-1.333 -36.333,-21 -14.833,-15.5 3.5,-46.833 39.832,-53.667 -23.5,-42 c 0,-0.001 -8.833,-13.169 3.759,-26.905 z"
     id="path8" /><path
     style="fill:#fcf3d3"
     inkscape:connector-curvature="0"
     d="M 227.387,18.333 C 220.886,6.663 206.221,8.5 206.221,8.5 c 0,0 -124.667,13.167 -136.834,15.167 -12.167,2 -18.78,6.684 -23.741,12.095 -1.208,1.317 -2.218,2.628 -3.058,3.924 0,0 -5.203,7.311 -2.37,13.978 2.833,6.667 13.833,11.331 25.833,6.833 13.959,-5.232 16.5,-14.833 16.5,-14.833 l 99.668,-11.167 c 0,0 -5.938,11.998 2.333,17.167 7.272,4.545 20.081,3.743 28.167,-0.833 8.482,-4.801 13.833,-11.667 15.255,-17.257 0.941,-3.701 2.054,-10.5 -0.587,-15.241 z"
     id="path10" /><path
     style="fill:#a09469"
     inkscape:connector-curvature="0"
     d="m 248.458,134.154 c 4.942,-2.327 9.353,-5.883 12.596,-9.821 9.62,-11.679 4.833,-22.667 4.833,-22.667 -16.331,-38.331 -38.5,-83.333 -38.5,-83.333 2.641,4.741 1.527,11.54 0.587,15.239 -1.421,5.59 -6.772,12.456 -15.255,17.257 -0.409,0.231 -0.827,0.452 -1.251,0.663 l 36.99,82.662 z"
     id="path12" /><path
     style="fill:#a09469"
     inkscape:connector-curvature="0"
     d="m 55.224,62.243 c 3.36,0.179 7.044,-0.329 10.828,-1.747 13.959,-5.232 16.5,-14.833 16.5,-14.833 l 16.003,31.335 -15.833,30.667 -7.333,-8.5 -20.165,-36.922 z"
     id="path14" /><path
     style="fill:#fcf3d3"
     inkscape:connector-curvature="0"
     d="m 65.387,104.666 -39.832,53.667 -3.5,46.833 7.333,-36.002 32.833,-25.833 -8.333,47 17.5,-6.5 87.499,-126.834 c 0,0 -19.5,-3.666 -37.167,0.667 -17.667,4.333 -27.235,11.364 -27.235,11.364 l -29.098,35.638 z"
     id="path16" /><polygon
     style="fill:#fcf3d3"
     points="111.22,217.83 119.053,181.251 104.887,192.497 106.72,215.663 "
     id="polygon18" /><polygon
     style="fill:#fcf3d3"
     points="54.551,214.163 73.218,212.83 73.221,241.667 "
     id="polygon20" /><polygon
     style="fill:#fcf3d3"
     points="22.055,205.167 34.721,206 36.888,221.167 "
     id="polygon22" /><polygon
     style="fill:#a09469"
     points="146.555,224.001 198.221,133.833 219.221,128.667 199.721,85.875 138.471,188.75 "
     id="polygon24" /><polygon
     style="fill:#a09469"
     points="109.721,243 138.471,188.75 119.053,181.251 111.22,217.83 "
     id="polygon26" /><polygon
     style="fill:#a09469"
     points="106.72,215.663 94.72,209.083 73.221,241.667 109.721,243 "
     id="polygon28" /><polygon
     style="fill:#a09469"
     points="104.887,192.497 71.388,183.831 73.218,212.83 94.72,209.083 "
     id="polygon30" /><polygon
     style="fill:#a09469"
     points="34.721,206 53.888,190.331 54.551,214.163 36.888,221.167 "
     id="polygon32" /><polygon
     style="fill:#a09469"
     points="29.388,169.165 34.721,206 22.055,205.167 "
     id="polygon34" /><g
     id="g36"><g
       id="g38"><path
         style="fill:#d2c494"
         inkscape:connector-curvature="0"
         d="m 200.057,36.666 c 2.97,0.303 7.072,-0.8 8.354,-3.846 1.282,-3.045 -0.133,-6.335 -3.455,-7.227 -7.355,-1.974 -13.838,2.523 -16.196,9.477 -2.693,7.943 4.643,11.763 11.432,11.427 8.13,-0.402 17.21,-5.247 20.069,-13.169 2.709,-7.506 -1.065,-15.477 -8.729,-17.163 -10.049,-2.21 -20.676,0.107 -30.684,1.26 -11.409,1.315 -22.833,2.498 -34.25,3.738 -17.169,1.866 -34.338,3.736 -51.501,5.667 -10.2,1.147 -20.982,1.524 -30.98,3.997 -8.519,2.107 -17.255,8.014 -17.699,17.493 -0.379,8.086 8.734,9.725 14.878,8.913 6.666,-0.88 16.732,-7.002 13.039,-15.211 -3.505,-7.788 -14.655,-4.63 -19,0.584 -7.021,8.425 11.672,10.77 9.001,2.328 -0.581,-1.837 -3.478,-1.052 -2.893,0.798 0.736,2.327 -7.364,3.048 -3.286,-1.847 0.903,-1.084 2.274,-1.783 3.493,-2.439 2.812,-1.513 7.499,-1.799 9.629,1.057 3.083,4.132 -2.469,9.269 -5.826,10.616 -2.258,0.906 -4.719,1.269 -7.133,1.377 -6.066,0.274 -10.037,-3.054 -8.4,-9.373 1.655,-6.387 9.299,-9.78 14.995,-11.403 10.131,-2.888 21.663,-2.933 32.07,-4.103 28.093,-3.156 56.227,-5.977 84.307,-9.244 9.081,-1.057 17.853,-2.39 27.015,-1.646 3.415,0.277 6.7,1.115 8.509,4.261 2.635,4.583 0.81,10.836 -2.567,14.37 -4.072,4.262 -20.32,11.075 -22.856,2.042 -1.101,-3.919 2.457,-8.251 5.457,-10.168 1.88,-1.202 4.192,-1.336 6.335,-1.008 2.049,0.166 2.732,1.494 2.047,3.985 -1.173,1.48 -3.498,1.627 -5.174,1.456 -1.925,-0.195 -1.906,2.807 -0.001,3.001 l 0,0 z"
         id="path40" /></g></g><path
     style="fill:#a09469"
     inkscape:connector-curvature="0"
     d="m 158.887,56.997 30.834,6.753 10,22.125 c 0,0 -6.669,-18.507 -40.834,-28.878 z"
     id="path42" /></g></svg>