<?xml version="1.0" encoding="UTF-8" standalone="no"?>
<!-- Generator: Adobe Illustrator 16.0.0, SVG Export Plug-In . SVG Version: 6.00 Build 0)  -->

<svg
   xmlns:dc="http://purl.org/dc/elements/1.1/"
   xmlns:cc="http://creativecommons.org/ns#"
   xmlns:rdf="http://www.w3.org/1999/02/22-rdf-syntax-ns#"
   xmlns:svg="http://www.w3.org/2000/svg"
   xmlns="http://www.w3.org/2000/svg"
   xmlns:sodipodi="http://sodipodi.sourceforge.net/DTD/sodipodi-0.dtd"
   xmlns:inkscape="http://www.inkscape.org/namespaces/inkscape"
   version="1.1"
   x="0px"
   y="0px"
   width="512"
   height="512"
   viewBox="0 0 512.00001 511.99998"
   enable-background="new 0 0 147.851 147.251"
   xml:space="preserve"
   id="svg2"
   inkscape:version="0.48.4 r9939"
   sodipodi:docname="Oursin-04.svg"
   inkscape:export-filename="C:\Users\Nicolas\Desktop\PA\cf_heritage\Design\Obstacles\LivingObstacles.png"
   inkscape:export-xdpi="90"
   inkscape:export-ydpi="90"><metadata
   id="metadata262"><rdf:RDF><cc:Work
       rdf:about=""><dc:format>image/svg+xml</dc:format><dc:type
         rdf:resource="http://purl.org/dc/dcmitype/StillImage" /><dc:title></dc:title></cc:Work></rdf:RDF></metadata><defs
   id="defs260" /><sodipodi:namedview
   pagecolor="#ffffff"
   bordercolor="#666666"
   borderopacity="1"
   objecttolerance="10"
   gridtolerance="10"
   guidetolerance="10"
   inkscape:pageopacity="0"
   inkscape:pageshadow="2"
   inkscape:window-width="1440"
   inkscape:window-height="837"
   id="namedview258"
   showgrid="false"
   inkscape:zoom="1.6343379"
   inkscape:cx="267.82748"
   inkscape:cy="-13.171941"
   inkscape:window-x="-8"
   inkscape:window-y="-8"
   inkscape:window-maximized="1"
   inkscape:current-layer="svg2" />
<g
   id="Layer_3"
   transform="translate(0,364.749)">
</g>
<g
   id="Layer_1"
   display="none"
   style="display:none"
   transform="translate(0,364.749)">
</g>
<g
   id="Amphore"
   transform="translate(0,364.749)">
</g>
<g
   id="Colonne"
   transform="translate(0,364.749)">
</g>
<g
   id="gro_rocher"
   transform="translate(0,364.749)">
</g>
<g
   id="petit_rocher"
   transform="translate(0,364.749)">
</g>
<g
   id="étoile"
   transform="translate(0,364.749)">
</g>
<g
   id="oursins"
   transform="translate(5.6473051,354.1603)">
	<circle
   stroke-miterlimit="10"
   cx="74.850998"
   cy="73.352997"
   r="34.5"
   id="circle12"
   sodipodi:cx="74.850998"
   sodipodi:cy="73.352997"
   sodipodi:rx="34.5"
   sodipodi:ry="34.5"
   style="fill:#0e1e70;stroke:#0e1e70;stroke-width:2;stroke-miterlimit:10"
   d="m 109.351,73.352997 c 0,19.053824 -15.446178,34.500003 -34.500002,34.500003 -19.053824,0 -34.5,-15.446179 -34.5,-34.500003 0,-19.053824 15.446176,-34.5 34.5,-34.5 19.053824,0 34.500002,15.446176 34.500002,34.5 z" />
	<g
   id="g14">
		<g
   id="g16">
			<path
   d="M 75.351,71.853 C 75.067,50.031 64.849,29.972 61.69,8.656 60.841,2.931 52.17,5.374 53.011,11.049 c 3.036,20.484 13.068,39.864 13.339,60.804 0.076,5.799 9.076,5.806 9.001,0 l 0,0 z"
   id="path18"
   inkscape:connector-curvature="0"
   style="fill:#274daa" />
		</g>
	</g>
	<g
   id="g20">
		<g
   id="g22">
			<path
   d="m 71.236,76.081 c -4.313,-9.716 -9.569,-19 -14.407,-28.459 -4.282,-8.371 -9.771,-17.777 -10.979,-27.27 -0.722,-5.676 -9.731,-5.747 -9,0 1.316,10.347 6.3,20.007 10.903,29.232 5.175,10.371 11.007,20.438 15.711,31.039 2.351,5.296 10.104,0.713 7.772,-4.542 l 0,0 z"
   id="path24"
   inkscape:connector-curvature="0"
   style="fill:#0e32a5" />
		</g>
	</g>
	<g
   id="g26">
		<g
   id="g28">
			<path
   d="m 76.851,60.853 c 1.027,-18.188 2.489,-36.347 4,-54.5 -0.439,1.061 -0.879,2.121 -1.318,3.182 0.274,-0.236 0.549,-0.472 0.824,-0.708 -1.459,0.386 -2.919,0.771 -4.378,1.157 0.083,0.028 0.165,0.056 0.248,0.084 -1.101,-1.446 -2.202,-2.893 -3.304,-4.339 -0.13,1.197 -0.08,2.134 0.089,3.32 0.814,5.727 9.485,3.281 8.679,-2.393 0.292,2.057 0.162,-0.275 0.232,-0.928 0.222,-2.042 -1.553,-3.746 -3.304,-4.339 -3.242,-1.098 -6.506,1.822 -6.768,4.963 -0.485,5.826 -0.965,11.652 -1.43,17.479 -0.984,12.331 -1.873,24.67 -2.57,37.021 -0.328,5.802 8.674,5.77 9,0.001 l 0,0 z"
   id="path30"
   inkscape:connector-curvature="0"
   style="fill:#1d3496" />
		</g>
	</g>
	<g
   id="g32">
		<g
   id="g34">
			<path
   d="m 71.08,86.238 c -1.536,-2.697 -2.172,-3.446 -1.909,-2.247 -0.097,-0.775 -0.117,-0.882 -0.059,-0.32 0.057,0.603 0.083,1.209 0.113,1.814 0.092,1.826 0.126,3.656 0.163,5.484 0.114,5.583 0.132,11.168 0.158,16.752 0.044,9.357 -0.227,18.784 0.305,28.131 0.328,5.769 9.33,5.801 9,0 C 78.258,125.435 78.586,114.924 78.53,104.495 78.5,98.98 78.469,93.464 78.316,87.951 78.226,84.722 78.662,80.498 75.622,78.467 70.78,75.233 66.28,83.032 71.08,86.238 l 0,0 z"
   id="path36"
   inkscape:connector-curvature="0"
   style="fill:#032782" />
		</g>
	</g>
	<g
   id="g38">
		<g
   id="g40">
			<path
   d="m 73.965,79.124 c 9.096,19.063 13.71,40.094 19.046,60.425 1.472,5.609 10.153,3.227 8.679,-2.393 C 96.144,116.024 91.19,94.395 81.736,74.581 79.238,69.345 71.479,73.914 73.965,79.124 l 0,0 z"
   id="path42"
   inkscape:connector-curvature="0"
   style="fill:#1d3496" />
		</g>
	</g>
	<g
   id="g44">
		<g
   id="g46">
			<path
   d="m 75.632,77.346 c 7.44,4.323 13.215,11.338 18.486,18 5.809,7.341 10.984,15.362 15.294,23.67 2.674,5.153 10.44,0.601 7.771,-4.543 C 112.726,105.885 107.307,97.778 101.38,90.14 95.394,82.425 88.724,74.542 80.173,69.574 c -5.027,-2.921 -9.556,4.858 -4.541,7.772 l 0,0 z"
   id="path48"
   inkscape:connector-curvature="0"
   style="fill:#032782" />
		</g>
	</g>
	<g
   id="g50">
		<g
   id="g52">
			<path
   d="m 76.08,71.238 c 18.162,7.782 33.146,21.14 51,29.5 5.222,2.445 9.795,-5.312 4.542,-7.771 -17.854,-8.36 -32.837,-21.718 -51,-29.5 -5.273,-2.259 -9.863,5.491 -4.542,7.771 l 0,0 z"
   id="path54"
   inkscape:connector-curvature="0"
   style="fill:#274daa" />
		</g>
	</g>
	<g
   id="g56">
		<g
   id="g58">
			<path
   d="M 83.047,73.013 C 70.13,69.271 55.198,69.609 41.882,69.386 34.822,69.268 27.72,69.311 20.686,69.988 c -3.838,0.37 -10.107,0.643 -12.221,4.594 -2.736,5.116 5.033,9.662 7.771,4.543 -0.456,0.852 -1.445,1.076 -0.772,0.837 0.787,-0.278 1.62,-0.434 2.437,-0.592 2.248,-0.437 4.561,-0.556 6.841,-0.702 6.805,-0.434 13.647,-0.372 20.46,-0.215 11.492,0.264 24.305,0.01 35.451,3.24 5.589,1.618 7.957,-7.068 2.394,-8.68 l 0,0 z"
   id="path60"
   inkscape:connector-curvature="0"
   style="fill:#032782" />
		</g>
	</g>
	<g
   id="g62">
		<g
   id="g64">
			<path
   d="m 71.668,73.17 c -16.78,15.044 -36.414,26.741 -50.204,44.911 -3.511,4.626 4.311,9.102 7.771,4.543 C 42.454,105.206 61.939,93.961 78.031,79.535 82.362,75.653 75.976,69.309 71.668,73.17 l 0,0 z"
   id="path66"
   inkscape:connector-curvature="0"
   style="fill:#274daa" />
		</g>
	</g>
	<g
   id="g68">
		<g
   id="g70">
			<path
   d="m 68.511,82.156 c -0.201,0.674 -1.087,2.434 -1.895,3.893 -1.32,2.386 -2.753,4.711 -4.183,7.034 -3.803,6.179 -7.74,12.273 -11.557,18.444 -3.313,5.357 -6.666,10.765 -9.313,16.49 -1.515,3.275 -3.818,8.566 -0.395,11.518 4.372,3.77 10.767,-2.567 6.364,-6.364 0.881,0.76 0.868,2.014 0.815,2.329 0.133,-0.792 0.436,-1.561 0.717,-2.309 0.699,-1.863 1.733,-3.645 2.676,-5.393 2.996,-5.557 6.377,-10.911 9.728,-16.258 3.386,-5.404 6.833,-10.771 10.147,-16.22 2.054,-3.378 4.435,-6.945 5.574,-10.771 1.661,-5.577 -7.026,-7.942 -8.678,-2.393 l 0,0 z"
   id="path72"
   inkscape:connector-curvature="0"
   style="fill:#1d3496" />
		</g>
	</g>
	<g
   id="g74">
		<g
   id="g76">
			<path
   d="m 79.736,71.624 c 10.149,-18.356 10.693,-40.255 21,-58.5 2.858,-5.06 -4.917,-9.595 -7.771,-4.543 -10.338,18.302 -10.878,40.193 -21,58.5 -2.81,5.083 4.963,9.622 7.771,4.543 l 0,0 z"
   id="path78"
   inkscape:connector-curvature="0"
   style="fill:#032782" />
		</g>
	</g>
	<g
   id="g80">
		<g
   id="g82">
			<path
   d="m 81.033,70.535 c 11.342,-14.365 23.606,-28.048 37.5,-40 4.407,-3.792 -1.989,-10.128 -6.364,-6.364 -13.894,11.953 -26.158,25.635 -37.5,40 -3.555,4.501 2.769,10.917 6.364,6.364 l 0,0 z"
   id="path84"
   inkscape:connector-curvature="0"
   style="fill:#032782" />
		</g>
	</g>
	<g
   id="g86">
		<g
   id="g88">
			<path
   d="m 81.221,73.209 c 16.932,-9.586 36.908,-11.334 54.301,-19.941 5.202,-2.575 0.641,-10.336 -4.542,-7.771 -17.395,8.609 -37.293,10.313 -54.301,19.941 -5.049,2.858 -0.515,10.634 4.542,7.771 l 0,0 z"
   id="path90"
   inkscape:connector-curvature="0"
   style="fill:#032782" />
		</g>
	</g>
	<g
   id="g92">
		<g
   id="g94">
			<path
   d="m 85.547,80.192 c 15.518,-5.894 34.678,-8.14 51.107,-5.5 5.676,0.912 8.111,-7.76 2.393,-8.679 -18.018,-2.895 -38.804,-0.99 -55.893,5.5 -5.37,2.04 -3.043,10.743 2.393,8.679 l 0,0 z"
   id="path96"
   inkscape:connector-curvature="0"
   style="fill:#0e32a5" />
		</g>
	</g>
	<g
   id="g98">
		<g
   id="g100">
			<path
   d="M 68.19,70.656 C 66.497,61.713 56.506,54.406 50.006,48.975 41.857,42.166 32.996,36.194 25.032,29.17 c -4.335,-3.823 -10.725,2.518 -6.364,6.364 7.328,6.462 15.43,12.048 23.019,18.197 4.042,3.275 7.983,6.683 11.661,10.367 2.444,2.449 5.494,5.416 6.163,8.95 1.079,5.699 9.753,3.279 8.679,-2.392 l 0,0 z"
   id="path102"
   inkscape:connector-curvature="0"
   style="fill:#274daa" />
		</g>
	</g>
	<g
   id="g104">
		<g
   id="g106">
			<path
   d="M 72.033,75.67 C 55.089,61.584 32.934,54.09 12.547,46.513 c -5.452,-2.026 -7.783,6.675 -2.393,8.679 18.812,6.992 39.862,13.831 55.514,26.843 4.429,3.681 10.832,-2.65 6.365,-6.365 l 0,0 z"
   id="path108"
   inkscape:connector-curvature="0"
   style="fill:#0e32a5" />
		</g>
	</g>
	<g
   id="g110">
		<g
   id="g112">
			<path
   d="M 65.58,70.967 C 47.758,78.76 30.852,88.875 11.654,93.013 c -5.672,1.223 -3.266,9.898 2.393,8.679 19.94,-4.299 37.564,-14.859 56.075,-22.954 5.306,-2.321 0.72,-10.072 -4.542,-7.771 l 0,0 z"
   id="path114"
   inkscape:connector-curvature="0"
   style="fill:#0e32a5" />
		</g>
	</g>
	<g
   id="g116">
		<g
   id="g118">
			<path
   d="m 65.58,70.967 c -16.675,8.891 -30.171,22.859 -47,31.5 -5.165,2.652 -0.61,10.417 4.542,7.771 16.83,-8.641 30.326,-22.609 47,-31.5 5.123,-2.731 0.576,-10.5 -4.542,-7.771 l 0,0 z"
   id="path120"
   inkscape:connector-curvature="0"
   style="fill:#1d3496" />
		</g>
	</g>
	<g
   id="g122">
		<g
   id="g124">
			<path
   d="m 63.965,72.581 c -8.548,16.784 -20.757,31.55 -29,48.5 -2.527,5.196 5.233,9.762 7.771,4.543 8.243,-16.951 20.451,-31.717 29,-48.5 2.628,-5.16 -5.136,-9.716 -7.771,-4.543 l 0,0 z"
   id="path126"
   inkscape:connector-curvature="0"
   style="fill:#032782" />
		</g>
	</g>
	<g
   id="g128">
		<g
   id="g130">
			<path
   d="m 68.458,78.495 c -1.909,-0.71 -2.913,-1.892 -3.014,-3.543 0.005,0.199 0.002,0.398 -0.008,0.597 -0.031,0.932 -0.066,0.933 -0.146,1.474 -0.341,2.307 -0.82,4.595 -1.294,6.877 -1.328,6.396 -2.86,12.751 -4.387,19.102 -2.397,9.968 -5.541,20.009 -7.098,30.155 -0.871,5.676 7.8,8.115 8.679,2.393 1.82,-11.865 5.552,-23.605 8.321,-35.273 1.503,-6.332 3.008,-12.677 4.163,-19.083 0.664,-3.684 2.212,-9.983 -2.823,-11.376 -5.604,-1.552 -7.979,7.131 -2.393,8.677 l 0,0 z"
   id="path132"
   inkscape:connector-curvature="0"
   style="fill:#032782" />
		</g>
	</g>
	<g
   id="g134">
		<g
   id="g136">
			<path
   d="m 73.465,84.124 c 3.601,7.323 4.119,16.028 4.677,24.033 0.586,8.396 0.66,16.836 1.708,25.195 0.712,5.679 9.721,5.749 9,0 -2.211,-17.629 0.445,-37.378 -7.614,-53.771 -2.561,-5.208 -10.321,-0.645 -7.771,4.543 l 0,0 z"
   id="path138"
   inkscape:connector-curvature="0"
   style="fill:#0e32a5" />
		</g>
	</g>
	<g
   id="g140">
		<g
   id="g142">
			<path
   d="m 86.351,77.353 c 15.277,1.882 30.512,3.341 45.304,7.839 5.567,1.693 7.929,-6.995 2.393,-8.679 -15.55,-4.729 -31.638,-6.183 -47.696,-8.161 -5.753,-0.708 -5.685,8.3 -0.001,9.001 l 0,0 z"
   id="path144"
   inkscape:connector-curvature="0"
   style="fill:#032782" />
		</g>
	</g>
	<g
   id="g146">
		<g
   id="g148">
			<path
   d="m 89.547,65.192 c 15.774,-3.687 29.724,-16.672 41.486,-27.157 4.341,-3.87 -2.047,-10.212 -6.364,-6.364 -10.608,9.457 -23.283,21.517 -37.514,24.843 -5.651,1.32 -3.255,9.997 2.392,8.678 l 0,0 z"
   id="path150"
   inkscape:connector-curvature="0"
   style="fill:#1d3496" />
		</g>
	</g>
	<g
   id="g152">
		<g
   id="g154">
			<path
   d="m 86.533,57.035 c 11.035,-12.387 18.973,-27.114 27.204,-41.411 2.901,-5.039 -4.877,-9.57 -7.771,-4.543 -7.83,13.602 -15.298,27.805 -25.796,39.589 -3.848,4.318 2.495,10.706 6.363,6.365 l 0,0 z"
   id="path156"
   inkscape:connector-curvature="0"
   style="fill:#274daa" />
		</g>
	</g>
	<g
   id="g158">
		<g
   id="g160">
			<path
   d="m 76.622,51.738 c 4.159,-2.41 5.505,-7.712 6.598,-12.05 1.385,-5.497 1.995,-11.165 3.471,-16.639 1.512,-5.612 -7.17,-7.991 -8.679,-2.393 -1.156,4.291 -1.802,8.711 -2.678,13.064 -0.451,2.24 -1.076,8.984 -3.254,10.246 -5.019,2.909 -0.49,10.688 4.542,7.772 l 0,0 z"
   id="path162"
   inkscape:connector-curvature="0"
   style="fill:#0e32a5" />
		</g>
	</g>
	<g
   id="g164">
		<g
   id="g166">
			<path
   d="m 69.851,40.853 c 1.13,-8.423 1.672,-17.269 0.339,-25.696 -0.904,-5.72 -9.576,-3.283 -8.679,2.393 1.189,7.52 0.345,15.807 -0.661,23.304 -0.769,5.737 8.241,5.663 9.001,-10e-4 l 0,0 z"
   id="path168"
   inkscape:connector-curvature="0"
   style="fill:#032782" />
		</g>
	</g>
	<g
   id="g170">
		<g
   id="g172">
			<path
   d="M 62.851,52.353 C 62.137,46.905 61.185,41.486 60.178,36.085 59.501,32.455 59.236,25.629 55.622,23.467 50.629,20.48 46.106,28.263 51.08,31.238 50.443,30.857 49.302,28.84 49.642,29.942 c 0.278,0.899 0.474,1.828 0.684,2.745 0.521,2.273 0.945,4.57 1.373,6.862 0.749,4.012 1.735,9.625 2.152,12.804 0.742,5.669 9.752,5.742 9,0 l 0,0 z"
   id="path174"
   inkscape:connector-curvature="0"
   style="fill:#032782" />
		</g>
	</g>
	<g
   id="g176">
		<g
   id="g178">
			<path
   d="M 56.033,50.17 C 48.232,43.666 43.437,34.47 35.122,28.466 c -4.715,-3.404 -9.2,4.408 -4.542,7.771 7.592,5.481 11.919,14.319 19.089,20.296 4.423,3.69 10.826,-2.642 6.364,-6.363 l 0,0 z"
   id="path180"
   inkscape:connector-curvature="0"
   style="fill:#1d3496" />
		</g>
	</g>
	<g
   id="g182">
		<g
   id="g184">
			<path
   d="M 51.033,59.17 C 45.285,52.043 35.821,48.697 27.547,45.513 c -5.425,-2.087 -7.75,6.617 -2.393,8.679 6.898,2.654 14.731,5.412 19.514,11.343 3.645,4.519 9.972,-1.892 6.365,-6.365 l 0,0 z"
   id="path186"
   inkscape:connector-curvature="0"
   style="fill:#032782" />
		</g>
	</g>
	<g
   id="g188">
		<g
   id="g190">
			<path
   d="m 49.547,63.513 c -9.578,-2.608 -21.78,0.159 -30.425,-5.046 -4.985,-3.001 -9.506,4.782 -4.542,7.771 9.781,5.889 21.954,3.061 32.575,5.954 5.608,1.527 7.985,-7.155 2.392,-8.679 l 0,0 z"
   id="path192"
   inkscape:connector-curvature="0"
   style="fill:#1d3496" />
		</g>
	</g>
	<g
   id="g194">
		<g
   id="g196">
			<path
   d="m 62.654,64.013 c -7.145,2.072 -14.011,5.212 -20.932,7.913 -6.408,2.5 -14.33,6.601 -21.372,6.427 -5.807,-0.144 -5.793,8.856 0,9 7.221,0.179 14.78,-3.32 21.379,-5.828 7.74,-2.941 15.354,-6.523 23.317,-8.833 5.564,-1.613 3.195,-10.299 -2.392,-8.679 l 0,0 z"
   id="path198"
   inkscape:connector-curvature="0"
   style="fill:#274daa" />
		</g>
	</g>
	<g
   id="g200">
		<g
   id="g202">
			<path
   d="m 72.668,77.03 c 2.701,2.1 4.273,5.727 5.835,8.668 2.902,5.462 5.412,11.138 7.898,16.798 4.162,9.474 7.579,19.542 12.562,28.627 2.792,5.088 10.564,0.548 7.771,-4.543 -4.982,-9.081 -8.421,-19.148 -12.562,-28.627 -2.478,-5.669 -5.038,-11.311 -7.898,-16.798 -1.859,-3.567 -3.993,-7.963 -7.243,-10.49 -4.521,-3.516 -10.94,2.806 -6.363,6.365 l 0,0 z"
   id="path204"
   inkscape:connector-curvature="0"
   style="fill:#032782" />
		</g>
	</g>
	<g
   id="g206">
		<g
   id="g208">
			<path
   d="m 88.154,91.192 c 13.296,4.118 22.125,15.774 32.014,24.843 4.269,3.914 10.65,-2.434 6.364,-6.364 C 115.348,99.416 105.573,87.168 90.546,82.514 84.988,80.792 82.628,89.48 88.154,91.192 l 0,0 z"
   id="path210"
   inkscape:connector-curvature="0"
   style="fill:#032782" />
		</g>
	</g>
	<g
   id="g212">
		<g
   id="g214">
			<path
   d="m 80.146,75.898 c 17.768,-2.409 34.722,-10.606 52.704,-11.546 5.773,-0.302 5.803,-9.303 0,-9 -18.852,0.985 -36.501,9.347 -55.097,11.867 -5.728,0.778 -3.279,9.448 2.393,8.679 l 0,0 z"
   id="path216"
   inkscape:connector-curvature="0"
   style="fill:#274daa" />
		</g>
	</g>
	<g
   id="g218">
		<g
   id="g220">
			<path
   d="m 93.654,83.192 c 14.985,2.103 29.454,6.468 44,10.5 5.603,1.553 7.978,-7.13 2.393,-8.679 -14.546,-4.032 -29.015,-8.396 -44,-10.5 -5.674,-0.796 -8.12,7.875 -2.393,8.679 l 0,0 z"
   id="path222"
   inkscape:connector-curvature="0"
   style="fill:#1d3496" />
		</g>
	</g>
	<g
   id="g224">
		<g
   id="g226">
			<path
   d="m 66.511,73.049 c 3.346,10.481 0.481,23.469 -0.869,34.083 -1.437,11.289 -4.088,23.306 -2.792,34.72 0.647,5.698 9.654,5.762 9,0 -1.344,-11.831 1.469,-24.329 2.958,-36.03 1.417,-11.131 3.886,-24.188 0.381,-35.167 -1.757,-5.506 -10.448,-3.151 -8.678,2.394 l 0,0 z"
   id="path228"
   inkscape:connector-curvature="0"
   style="fill:#274daa" />
		</g>
	</g>
	<g
   id="g230">
		<g
   id="g232">
			<path
   d="m 88.455,64.072 c 9.541,-4.043 18.056,-10.301 24.578,-18.37 3.612,-4.47 -2.715,-10.879 -6.364,-6.364 -6.113,7.564 -13.815,13.174 -22.755,16.963 -5.33,2.258 -0.737,10.008 4.541,7.771 l 0,0 z"
   id="path234"
   inkscape:connector-curvature="0"
   style="fill:#0e32a5" />
		</g>
	</g>
	<g
   id="g236">
		<g
   id="g238">
			<path
   d="m 74.721,76.642 c 11.507,10.726 19.127,27.282 24.291,41.907 1.918,5.434 10.616,3.095 8.679,-2.393 -5.68,-16.087 -13.939,-34.072 -26.605,-45.878 -4.24,-3.951 -10.619,2.399 -6.365,6.364 l 0,0 z"
   id="path240"
   inkscape:connector-curvature="0"
   style="fill:#274daa" />
		</g>
	</g>
	<g
   id="g242">
		<g
   id="g244">
			<path
   d="m 74.654,75.898 c 7.332,2.97 13.897,8.819 20.113,13.568 6.694,5.115 13.301,10.868 20.812,14.772 5.142,2.672 9.693,-5.094 4.542,-7.771 C 104.723,88.465 93.272,73.794 77.046,67.22 c -5.381,-2.181 -7.698,6.529 -2.392,8.678 l 0,0 z"
   id="path246"
   inkscape:connector-curvature="0"
   style="fill:#1d3496" />
		</g>
	</g>
	
		<ellipse
   transform="matrix(0.9778,0.2097,-0.2097,0.9778,16.2009,-15.8915)"
   cx="83.023003"
   cy="68.435997"
   rx="14.152"
   ry="19.417999"
   id="ellipse248"
   sodipodi:cx="83.023003"
   sodipodi:cy="68.435997"
   sodipodi:rx="14.152"
   sodipodi:ry="19.417999"
   style="fill:#ffffff"
   d="m 97.175003,68.435997 c 0,10.724265 -6.336066,19.417999 -14.152,19.417999 -7.815934,0 -14.152001,-8.693734 -14.152001,-19.417999 0,-10.724265 6.336067,-19.417999 14.152001,-19.417999 7.815934,0 14.152,8.693734 14.152,19.417999 z" />
	
		<ellipse
   transform="matrix(0.9778,0.2097,-0.2097,0.9778,14.1416,-11.3776)"
   cx="60.713001"
   cy="60.985001"
   rx="11.32"
   ry="15.533"
   id="ellipse250"
   sodipodi:cx="60.713001"
   sodipodi:cy="60.985001"
   sodipodi:rx="11.32"
   sodipodi:ry="15.533"
   style="fill:#ffffff"
   d="m 72.033001,60.985001 c 0,8.578639 -5.068137,15.533 -11.32,15.533 -6.251863,0 -11.319999,-6.954361 -11.319999,-15.533 0,-8.578639 5.068136,-15.533 11.319999,-15.533 6.251863,0 11.32,6.954361 11.32,15.533 z" />
	<ellipse
   cx="56.403"
   cy="58.988998"
   rx="2.891"
   ry="3.9560001"
   id="ellipse252"
   sodipodi:cx="56.403"
   sodipodi:cy="58.988998"
   sodipodi:rx="2.891"
   sodipodi:ry="3.9560001"
   style="fill:#0e1e70"
   d="m 59.294,58.988998 c 0,2.184839 -1.294345,3.956001 -2.891,3.956001 -1.596655,0 -2.891,-1.771162 -2.891,-3.956001 0,-2.184838 1.294345,-3.956 2.891,-3.956 1.596655,0 2.891,1.771162 2.891,3.956 z" />
	<ellipse
   cx="87.896004"
   cy="65.378998"
   rx="5.1729999"
   ry="6.6939998"
   id="ellipse254"
   sodipodi:cx="87.896004"
   sodipodi:cy="65.378998"
   sodipodi:rx="5.1729999"
   sodipodi:ry="6.6939998"
   style="fill:#0e1e70"
   d="m 93.069004,65.378998 c 0,3.696994 -2.316031,6.694 -5.173,6.694 -2.856969,0 -5.173,-2.997006 -5.173,-6.694 0,-3.696994 2.316031,-6.694 5.173,-6.694 2.856969,0 5.173,2.997006 5.173,6.694 z" />
</g>
<g
   id="algues"
   transform="translate(0,364.749)">
</g>
<g
   id="algues_vertes"
   transform="translate(0,364.749)">
</g>
</svg>