<?xml version="1.0" encoding="utf-8"?>
<!-- Generator: Adobe Illustrator 16.0.0, SVG Export Plug-In . SVG Version: 6.00 Build 0)  -->
<!DOCTYPE svg PUBLIC "-//W3C//DTD SVG 1.1//EN" "http://www.w3.org/Graphics/SVG/1.1/DTD/svg11.dtd">
<svg version="1.1" xmlns="http://www.w3.org/2000/svg" xmlns:xlink="http://www.w3.org/1999/xlink" x="0px" y="0px"
	 width="147.851px" height="147.251px" viewBox="0 0 147.851 147.251" enable-background="new 0 0 147.851 147.251"
	 xml:space="preserve">
<g id="Layer_3">
</g>
<g id="Layer_1" display="none">
</g>
<g id="Amphore">
</g>
<g id="Colonne">
</g>
<g id="gro_rocher">
</g>
<g id="petit_rocher">
</g>
<g id="étoile">
</g>
<g id="oursins">
	<circle fill="#0E1E70" stroke="#0E1E70" stroke-width="2" stroke-miterlimit="10" cx="74.851" cy="73.353" r="34.5"/>
	<g>
		<g>
			<path fill="#274DAA" d="M75.351,71.853C75.067,50.031,64.849,29.972,61.69,8.656c-0.849-5.725-9.52-3.282-8.679,2.393
				c3.036,20.484,13.068,39.864,13.339,60.804C66.426,77.652,75.426,77.659,75.351,71.853L75.351,71.853z"/>
		</g>
	</g>
	<g>
		<g>
			<path fill="#0E32A5" d="M71.236,76.081c-4.313-9.716-9.569-19-14.407-28.459c-4.282-8.371-9.771-17.777-10.979-27.27
				c-0.722-5.676-9.731-5.747-9,0c1.316,10.347,6.3,20.007,10.903,29.232c5.175,10.371,11.007,20.438,15.711,31.039
				C65.815,85.919,73.568,81.336,71.236,76.081L71.236,76.081z"/>
		</g>
	</g>
	<g>
		<g>
			<path fill="#1D3496" d="M76.851,60.853c1.027-18.188,2.489-36.347,4-54.5c-0.439,1.061-0.879,2.121-1.318,3.182
				c0.274-0.236,0.549-0.472,0.824-0.708c-1.459,0.386-2.919,0.771-4.378,1.157c0.083,0.028,0.165,0.056,0.248,0.084
				c-1.101-1.446-2.202-2.893-3.304-4.339c-0.13,1.197-0.08,2.134,0.089,3.32c0.814,5.727,9.485,3.281,8.679-2.393
				c0.292,2.057,0.162-0.275,0.232-0.928c0.222-2.042-1.553-3.746-3.304-4.339c-3.242-1.098-6.506,1.822-6.768,4.963
				c-0.485,5.826-0.965,11.652-1.43,17.479c-0.984,12.331-1.873,24.67-2.57,37.021C67.523,66.654,76.525,66.622,76.851,60.853
				L76.851,60.853z"/>
		</g>
	</g>
	<g>
		<g>
			<path fill="#032782" d="M71.08,86.238c-1.536-2.697-2.172-3.446-1.909-2.247c-0.097-0.775-0.117-0.882-0.059-0.32
				c0.057,0.603,0.083,1.209,0.113,1.814c0.092,1.826,0.126,3.656,0.163,5.484c0.114,5.583,0.132,11.168,0.158,16.752
				c0.044,9.357-0.227,18.784,0.305,28.131c0.328,5.769,9.33,5.801,9,0c-0.593-10.417-0.265-20.928-0.321-31.357
				c-0.03-5.515-0.061-11.031-0.214-16.544c-0.09-3.229,0.346-7.453-2.694-9.484C70.78,75.233,66.28,83.032,71.08,86.238
				L71.08,86.238z"/>
		</g>
	</g>
	<g>
		<g>
			<path fill="#1D3496" d="M73.965,79.124c9.096,19.063,13.71,40.094,19.046,60.425c1.472,5.609,10.153,3.227,8.679-2.393
				c-5.546-21.132-10.5-42.761-19.954-62.575C79.238,69.345,71.479,73.914,73.965,79.124L73.965,79.124z"/>
		</g>
	</g>
	<g>
		<g>
			<path fill="#032782" d="M75.632,77.346c7.44,4.323,13.215,11.338,18.486,18c5.809,7.341,10.984,15.362,15.294,23.67
				c2.674,5.153,10.44,0.601,7.771-4.543c-4.457-8.588-9.876-16.695-15.803-24.333c-5.986-7.715-12.656-15.598-21.207-20.566
				C75.146,66.653,70.617,74.432,75.632,77.346L75.632,77.346z"/>
		</g>
	</g>
	<g>
		<g>
			<path fill="#274DAA" d="M76.08,71.238c18.162,7.782,33.146,21.14,51,29.5c5.222,2.445,9.795-5.312,4.542-7.771
				c-17.854-8.36-32.837-21.718-51-29.5C75.349,61.208,70.759,68.958,76.08,71.238L76.08,71.238z"/>
		</g>
	</g>
	<g>
		<g>
			<path fill="#032782" d="M83.047,73.013c-12.917-3.742-27.849-3.404-41.165-3.627c-7.06-0.118-14.162-0.075-21.196,0.602
				c-3.838,0.37-10.107,0.643-12.221,4.594c-2.736,5.116,5.033,9.662,7.771,4.543c-0.456,0.852-1.445,1.076-0.772,0.837
				c0.787-0.278,1.62-0.434,2.437-0.592c2.248-0.437,4.561-0.556,6.841-0.702c6.805-0.434,13.647-0.372,20.46-0.215
				c11.492,0.264,24.305,0.01,35.451,3.24C86.242,83.311,88.61,74.625,83.047,73.013L83.047,73.013z"/>
		</g>
	</g>
	<g>
		<g>
			<path fill="#274DAA" d="M71.668,73.17c-16.78,15.044-36.414,26.741-50.204,44.911c-3.511,4.626,4.311,9.102,7.771,4.543
				c13.219-17.418,32.704-28.663,48.796-43.089C82.362,75.653,75.976,69.309,71.668,73.17L71.668,73.17z"/>
		</g>
	</g>
	<g>
		<g>
			<path fill="#1D3496" d="M68.511,82.156c-0.201,0.674-1.087,2.434-1.895,3.893c-1.32,2.386-2.753,4.711-4.183,7.034
				c-3.803,6.179-7.74,12.273-11.557,18.444c-3.313,5.357-6.666,10.765-9.313,16.49c-1.515,3.275-3.818,8.566-0.395,11.518
				c4.372,3.77,10.767-2.567,6.364-6.364c0.881,0.76,0.868,2.014,0.815,2.329c0.133-0.792,0.436-1.561,0.717-2.309
				c0.699-1.863,1.733-3.645,2.676-5.393c2.996-5.557,6.377-10.911,9.728-16.258c3.386-5.404,6.833-10.771,10.147-16.22
				c2.054-3.378,4.435-6.945,5.574-10.771C78.85,78.972,70.163,76.607,68.511,82.156L68.511,82.156z"/>
		</g>
	</g>
	<g>
		<g>
			<path fill="#032782" d="M79.736,71.624c10.149-18.356,10.693-40.255,21-58.5c2.858-5.06-4.917-9.595-7.771-4.543
				c-10.338,18.302-10.878,40.193-21,58.5C69.155,72.164,76.928,76.703,79.736,71.624L79.736,71.624z"/>
		</g>
	</g>
	<g>
		<g>
			<path fill="#032782" d="M81.033,70.535c11.342-14.365,23.606-28.048,37.5-40c4.407-3.792-1.989-10.128-6.364-6.364
				c-13.894,11.953-26.158,25.635-37.5,40C71.114,68.672,77.438,75.088,81.033,70.535L81.033,70.535z"/>
		</g>
	</g>
	<g>
		<g>
			<path fill="#032782" d="M81.221,73.209c16.932-9.586,36.908-11.334,54.301-19.941c5.202-2.575,0.641-10.336-4.542-7.771
				c-17.395,8.609-37.293,10.313-54.301,19.941C71.63,68.296,76.164,76.072,81.221,73.209L81.221,73.209z"/>
		</g>
	</g>
	<g>
		<g>
			<path fill="#0E32A5" d="M85.547,80.192c15.518-5.894,34.678-8.14,51.107-5.5c5.676,0.912,8.111-7.76,2.393-8.679
				c-18.018-2.895-38.804-0.99-55.893,5.5C77.784,73.553,80.111,82.256,85.547,80.192L85.547,80.192z"/>
		</g>
	</g>
	<g>
		<g>
			<path fill="#274DAA" d="M68.19,70.656c-1.693-8.943-11.684-16.25-18.184-21.681c-8.149-6.809-17.01-12.781-24.974-19.805
				c-4.335-3.823-10.725,2.518-6.364,6.364c7.328,6.462,15.43,12.048,23.019,18.197c4.042,3.275,7.983,6.683,11.661,10.367
				c2.444,2.449,5.494,5.416,6.163,8.95C60.59,78.747,69.264,76.327,68.19,70.656L68.19,70.656z"/>
		</g>
	</g>
	<g>
		<g>
			<path fill="#0E32A5" d="M72.033,75.67c-16.944-14.086-39.099-21.58-59.486-29.157c-5.452-2.026-7.783,6.675-2.393,8.679
				c18.812,6.992,39.862,13.831,55.514,26.843C70.097,85.716,76.5,79.385,72.033,75.67L72.033,75.67z"/>
		</g>
	</g>
	<g>
		<g>
			<path fill="#0E32A5" d="M65.58,70.967C47.758,78.76,30.852,88.875,11.654,93.013c-5.672,1.223-3.266,9.898,2.393,8.679
				c19.94-4.299,37.564-14.859,56.075-22.954C75.428,76.417,70.842,68.666,65.58,70.967L65.58,70.967z"/>
		</g>
	</g>
	<g>
		<g>
			<path fill="#1D3496" d="M65.58,70.967c-16.675,8.891-30.171,22.859-47,31.5c-5.165,2.652-0.61,10.417,4.542,7.771
				c16.83-8.641,30.326-22.609,47-31.5C75.245,76.007,70.698,68.238,65.58,70.967L65.58,70.967z"/>
		</g>
	</g>
	<g>
		<g>
			<path fill="#032782" d="M63.965,72.581c-8.548,16.784-20.757,31.55-29,48.5c-2.527,5.196,5.233,9.762,7.771,4.543
				c8.243-16.951,20.451-31.717,29-48.5C74.364,71.964,66.6,67.408,63.965,72.581L63.965,72.581z"/>
		</g>
	</g>
	<g>
		<g>
			<path fill="#032782" d="M68.458,78.495c-1.909-0.71-2.913-1.892-3.014-3.543c0.005,0.199,0.002,0.398-0.008,0.597
				c-0.031,0.932-0.066,0.933-0.146,1.474c-0.341,2.307-0.82,4.595-1.294,6.877c-1.328,6.396-2.86,12.751-4.387,19.102
				c-2.397,9.968-5.541,20.009-7.098,30.155c-0.871,5.676,7.8,8.115,8.679,2.393c1.82-11.865,5.552-23.605,8.321-35.273
				c1.503-6.332,3.008-12.677,4.163-19.083c0.664-3.684,2.212-9.983-2.823-11.376C65.247,68.266,62.872,76.949,68.458,78.495
				L68.458,78.495z"/>
		</g>
	</g>
	<g>
		<g>
			<path fill="#0E32A5" d="M73.465,84.124c3.601,7.323,4.119,16.028,4.677,24.033c0.586,8.396,0.66,16.836,1.708,25.195
				c0.712,5.679,9.721,5.749,9,0c-2.211-17.629,0.445-37.378-7.614-53.771C78.675,74.373,70.915,78.936,73.465,84.124L73.465,84.124
				z"/>
		</g>
	</g>
	<g>
		<g>
			<path fill="#032782" d="M86.351,77.353c15.277,1.882,30.512,3.341,45.304,7.839c5.567,1.693,7.929-6.995,2.393-8.679
				c-15.55-4.729-31.638-6.183-47.696-8.161C80.599,67.644,80.667,76.652,86.351,77.353L86.351,77.353z"/>
		</g>
	</g>
	<g>
		<g>
			<path fill="#1D3496" d="M89.547,65.192c15.774-3.687,29.724-16.672,41.486-27.157c4.341-3.87-2.047-10.212-6.364-6.364
				c-10.608,9.457-23.283,21.517-37.514,24.843C81.504,57.834,83.9,66.511,89.547,65.192L89.547,65.192z"/>
		</g>
	</g>
	<g>
		<g>
			<path fill="#274DAA" d="M86.533,57.035c11.035-12.387,18.973-27.114,27.204-41.411c2.901-5.039-4.877-9.57-7.771-4.543
				c-7.83,13.602-15.298,27.805-25.796,39.589C76.322,54.988,82.665,61.376,86.533,57.035L86.533,57.035z"/>
		</g>
	</g>
	<g>
		<g>
			<path fill="#0E32A5" d="M76.622,51.738c4.159-2.41,5.505-7.712,6.598-12.05c1.385-5.497,1.995-11.165,3.471-16.639
				c1.512-5.612-7.17-7.991-8.679-2.393c-1.156,4.291-1.802,8.711-2.678,13.064c-0.451,2.24-1.076,8.984-3.254,10.246
				C67.061,46.875,71.59,54.654,76.622,51.738L76.622,51.738z"/>
		</g>
	</g>
	<g>
		<g>
			<path fill="#032782" d="M69.851,40.853c1.13-8.423,1.672-17.269,0.339-25.696c-0.904-5.72-9.576-3.283-8.679,2.393
				c1.189,7.52,0.345,15.807-0.661,23.304C60.081,46.591,69.091,46.517,69.851,40.853L69.851,40.853z"/>
		</g>
	</g>
	<g>
		<g>
			<path fill="#032782" d="M62.851,52.353c-0.714-5.448-1.666-10.867-2.673-16.268c-0.677-3.63-0.942-10.456-4.556-12.618
				c-4.993-2.987-9.516,4.796-4.542,7.771c-0.637-0.381-1.778-2.398-1.438-1.296c0.278,0.899,0.474,1.828,0.684,2.745
				c0.521,2.273,0.945,4.57,1.373,6.862c0.749,4.012,1.735,9.625,2.152,12.804C54.593,58.022,63.603,58.095,62.851,52.353
				L62.851,52.353z"/>
		</g>
	</g>
	<g>
		<g>
			<path fill="#1D3496" d="M56.033,50.17c-7.801-6.504-12.596-15.7-20.911-21.704c-4.715-3.404-9.2,4.408-4.542,7.771
				c7.592,5.481,11.919,14.319,19.089,20.296C54.092,60.223,60.495,53.891,56.033,50.17L56.033,50.17z"/>
		</g>
	</g>
	<g>
		<g>
			<path fill="#032782" d="M51.033,59.17c-5.748-7.127-15.212-10.473-23.486-13.657c-5.425-2.087-7.75,6.617-2.393,8.679
				c6.898,2.654,14.731,5.412,19.514,11.343C48.313,70.054,54.64,63.643,51.033,59.17L51.033,59.17z"/>
		</g>
	</g>
	<g>
		<g>
			<path fill="#1D3496" d="M49.547,63.513c-9.578-2.608-21.78,0.159-30.425-5.046c-4.985-3.001-9.506,4.782-4.542,7.771
				c9.781,5.889,21.954,3.061,32.575,5.954C52.763,73.719,55.14,65.037,49.547,63.513L49.547,63.513z"/>
		</g>
	</g>
	<g>
		<g>
			<path fill="#274DAA" d="M62.654,64.013c-7.145,2.072-14.011,5.212-20.932,7.913c-6.408,2.5-14.33,6.601-21.372,6.427
				c-5.807-0.144-5.793,8.856,0,9c7.221,0.179,14.78-3.32,21.379-5.828c7.74-2.941,15.354-6.523,23.317-8.833
				C70.61,71.079,68.241,62.393,62.654,64.013L62.654,64.013z"/>
		</g>
	</g>
	<g>
		<g>
			<path fill="#032782" d="M72.668,77.03c2.701,2.1,4.273,5.727,5.835,8.668c2.902,5.462,5.412,11.138,7.898,16.798
				c4.162,9.474,7.579,19.542,12.562,28.627c2.792,5.088,10.564,0.548,7.771-4.543c-4.982-9.081-8.421-19.148-12.562-28.627
				c-2.478-5.669-5.038-11.311-7.898-16.798c-1.859-3.567-3.993-7.963-7.243-10.49C74.51,67.149,68.091,73.471,72.668,77.03
				L72.668,77.03z"/>
		</g>
	</g>
	<g>
		<g>
			<path fill="#032782" d="M88.154,91.192c13.296,4.118,22.125,15.774,32.014,24.843c4.269,3.914,10.65-2.434,6.364-6.364
				c-11.184-10.255-20.959-22.503-35.986-27.157C84.988,80.792,82.628,89.48,88.154,91.192L88.154,91.192z"/>
		</g>
	</g>
	<g>
		<g>
			<path fill="#274DAA" d="M80.146,75.898c17.768-2.409,34.722-10.606,52.704-11.546c5.773-0.302,5.803-9.303,0-9
				c-18.852,0.985-36.501,9.347-55.097,11.867C72.025,67.997,74.474,76.667,80.146,75.898L80.146,75.898z"/>
		</g>
	</g>
	<g>
		<g>
			<path fill="#1D3496" d="M93.654,83.192c14.985,2.103,29.454,6.468,44,10.5c5.603,1.553,7.978-7.13,2.393-8.679
				c-14.546-4.032-29.015-8.396-44-10.5C90.373,73.717,87.927,82.388,93.654,83.192L93.654,83.192z"/>
		</g>
	</g>
	<g>
		<g>
			<path fill="#274DAA" d="M66.511,73.049c3.346,10.481,0.481,23.469-0.869,34.083c-1.437,11.289-4.088,23.306-2.792,34.72
				c0.647,5.698,9.654,5.762,9,0c-1.344-11.831,1.469-24.329,2.958-36.03c1.417-11.131,3.886-24.188,0.381-35.167
				C73.432,65.149,64.741,67.504,66.511,73.049L66.511,73.049z"/>
		</g>
	</g>
	<g>
		<g>
			<path fill="#0E32A5" d="M88.455,64.072c9.541-4.043,18.056-10.301,24.578-18.37c3.612-4.47-2.715-10.879-6.364-6.364
				c-6.113,7.564-13.815,13.174-22.755,16.963C78.584,58.559,83.177,66.309,88.455,64.072L88.455,64.072z"/>
		</g>
	</g>
	<g>
		<g>
			<path fill="#274DAA" d="M74.721,76.642c11.507,10.726,19.127,27.282,24.291,41.907c1.918,5.434,10.616,3.095,8.679-2.393
				c-5.68-16.087-13.939-34.072-26.605-45.878C76.846,66.327,70.467,72.677,74.721,76.642L74.721,76.642z"/>
		</g>
	</g>
	<g>
		<g>
			<path fill="#1D3496" d="M74.654,75.898c7.332,2.97,13.897,8.819,20.113,13.568c6.694,5.115,13.301,10.868,20.812,14.772
				c5.142,2.672,9.693-5.094,4.542-7.771c-15.398-8.002-26.849-22.673-43.075-29.247C71.665,65.039,69.348,73.749,74.654,75.898
				L74.654,75.898z"/>
		</g>
	</g>
	
		<ellipse transform="matrix(0.9778 0.2097 -0.2097 0.9778 16.2009 -15.8915)" fill="#FFFFFF" cx="83.023" cy="68.436" rx="14.152" ry="19.418"/>
	
		<ellipse transform="matrix(0.9778 0.2097 -0.2097 0.9778 14.1416 -11.3776)" fill="#FFFFFF" cx="60.713" cy="60.985" rx="11.32" ry="15.533"/>
	<ellipse fill="#0E1E70" cx="56.403" cy="58.989" rx="2.891" ry="3.956"/>
	<ellipse fill="#0E1E70" cx="87.896" cy="65.379" rx="5.173" ry="6.694"/>
</g>
<g id="algues">
</g>
<g id="algues_vertes">
</g>
</svg>
