<?xml version="1.0" encoding="utf-8"?>
<!-- Generator: Adobe Illustrator 16.0.0, SVG Export Plug-In . SVG Version: 6.00 Build 0)  -->
<!DOCTYPE svg PUBLIC "-//W3C//DTD SVG 1.1//EN" "http://www.w3.org/Graphics/SVG/1.1/DTD/svg11.dtd">
<svg version="1.1" xmlns="http://www.w3.org/2000/svg" xmlns:xlink="http://www.w3.org/1999/xlink" x="0px" y="0px"
	 width="308.901px" height="209.116px" viewBox="0 0 308.901 209.116" enable-background="new 0 0 308.901 209.116"
	 xml:space="preserve">
<g id="Layer_3">
</g>
<g id="Layer_1" display="none">
</g>
<g id="Amphore">
</g>
<g id="Colonne">
</g>
<g id="gro_rocher">
</g>
<g id="petit_rocher">
	<polygon fill="#5B5B5B" points="130.286,0 166.534,8.403 199.63,34.67 265.824,64.616 308.901,131.86 286.313,184.395 
		226.422,200.681 157.604,205.934 61.465,184.395 0,172.837 12.082,142.366 68.82,70.394 	"/>
	<path fill="none" stroke="#5B5B5B" stroke-miterlimit="10" d="M35.854,156.549"/>
	<polygon fill="#C1C1C1" points="12.082,142.366 35.854,156.549 0,172.837 	"/>
	<polygon fill="#C1C1C1" points="35.854,156.549 61.465,184.395 0,172.837 	"/>
	<polygon fill="#939393" points="91.94,136.851 35.854,156.549 61.465,184.395 	"/>
	<polygon fill="#A3A3A3" points="91.94,136.851 68.82,70.394 35.854,156.549 	"/>
	<polygon fill="#C1C1C1" points="12.082,142.366 35.854,156.549 68.82,70.394 	"/>
	<polygon fill="#939393" points="68.82,70.394 91.94,136.851 136.859,64.354 	"/>
	<polygon fill="#C1C1C1" points="68.82,70.394 130.286,0 136.859,64.354 	"/>
	<polygon fill="#A3A3A3" points="166.534,8.403 136.859,64.354 130.286,0 	"/>
	<polygon fill="#A3A3A3" points="166.534,8.403 199.63,34.67 136.859,64.354 	"/>
	<polygon fill="#939393" points="199.63,34.67 209.613,92.589 136.859,64.354 	"/>
	<polygon fill="#A3A3A3" points="136.859,64.354 209.613,92.589 152.755,136.765 	"/>
	<polygon fill="#C1C1C1" points="136.859,64.354 91.94,136.851 152.755,136.765 	"/>
	<polygon fill="#C1C1C1" points="91.94,136.851 157.604,205.934 61.465,184.395 	"/>
	<polygon fill="#A3A3A3" points="91.94,136.851 152.755,136.765 157.604,205.934 	"/>
	<polygon fill="#C1C1C1" points="157.604,205.934 226.422,200.681 217.373,142.366 	"/>
	<polygon fill="#939393" points="217.373,142.366 152.755,136.765 157.604,205.934 	"/>
	<polygon fill="#939393" points="217.373,142.366 286.313,184.395 226.422,200.681 	"/>
	<polygon fill="#939393" points="308.901,131.86 217.373,142.366 286.313,184.395 	"/>
	<polygon fill="#A3A3A3" points="152.755,136.765 209.613,92.589 217.373,142.366 	"/>
	<polygon fill="#A3A3A3" points="265.824,64.616 209.613,92.589 308.901,131.86 	"/>
	<polygon fill="#C1C1C1" points="209.613,92.589 217.373,142.366 308.901,131.86 	"/>
	<polygon fill="#C1C1C1" points="199.63,34.67 265.824,64.616 209.613,92.589 	"/>
</g>
<g id="étoile">
</g>
<g id="oursins">
</g>
<g id="algues">
</g>
<g id="algues_vertes">
</g>
</svg>
