<?xml version="1.0" encoding="utf-8"?>
<!-- Generator: Adobe Illustrator 16.0.0, SVG Export Plug-In . SVG Version: 6.00 Build 0)  -->
<!DOCTYPE svg PUBLIC "-//W3C//DTD SVG 1.1//EN" "http://www.w3.org/Graphics/SVG/1.1/DTD/svg11.dtd">
<svg version="1.1" xmlns="http://www.w3.org/2000/svg" xmlns:xlink="http://www.w3.org/1999/xlink" x="0px" y="0px"
	 width="891.832px" height="622.17px" viewBox="0 0 891.832 622.17" enable-background="new 0 0 891.832 622.17"
	 xml:space="preserve">
<g id="Layer_3">
</g>
<g id="Layer_1" display="none">
</g>
<g id="Amphore">
</g>
<g id="Colonne">
</g>
<g id="gro_rocher">
	<path fill="#939393" d="M21.098,581.337L0,528.448l52.899-84.042l26.45-68.51l-32.668-60.435l18.471-68.41l-27.726-96.73
		l72.688-82.554L214.835,0.001l99.177,78.848l83.162,29.566l20.328,100.41l107.187,47.433c0,0,81.93-14.168,83.777-14.784
		c1.849-0.616,96.099,72.689,96.099,72.689l28.336,83.162l46.201,72.074l57.905,41.272l54.825,73.922l-43.737,27.104l-84.394-10.472
		l-78.85-20.329L555.489,622.17L431.67,593.834l-88.705,12.936l-72.689-0.176L166.169,571.92H76.231L21.098,581.337z"/>
	<polygon fill="#C1C1C1" points="110.114,67.764 202.821,117.656 214.835,0 	"/>
	<polygon fill="#A3A3A3" points="37.427,150.314 202.821,117.656 110.114,67.764 	"/>
	<polygon fill="#939393" points="314.012,78.848 202.821,117.656 214.835,0 	"/>
	<polygon fill="#939393" points="417.502,208.826 425.202,321.864 524.688,256.259 	"/>
	<polygon fill="#A3A3A3" points="608.466,241.475 563.189,336.957 704.564,314.164 	"/>
	<polygon fill="#939393" points="704.564,314.164 641.73,401.33 732.9,397.326 	"/>
	<polygon fill="#939393" points="779.102,469.399 755.385,531.309 837.007,510.672 	"/>
	<polygon fill="#939393" points="837.007,510.672 848.095,611.698 891.832,584.594 	"/>
	<polygon fill="#A3A3A3" points="755.385,531.309 766.165,601.532 684.852,580.897 	"/>
	<polygon fill="#939393" points="555.489,622.17 641.73,401.33 711.34,491.884 684.852,580.897 	"/>
	<polygon fill="#C1C1C1" points="491.731,491.268 555.489,622.17 431.67,593.834 	"/>
	<polygon fill="#C1C1C1" points="371.917,461.391 270.275,606.154 342.965,606.77 	"/>
	<polygon fill="#939393" points="286.163,439.831 270.275,606.154 166.169,572.273 	"/>
	<path fill="#939393" d="M164.937,572.273"/>
	<path fill="#939393" d="M76.231,572.273"/>
	<polygon fill="#939393" points="76.231,572.273 52.899,444.297 21.098,580.897 	"/>
	<path fill="#C1C1C1" d="M168.632,467.198c0.204,0-92.4,104.722-92.4,104.722h89.938L168.632,467.198z"/>
	<polygon fill="#A3A3A3" points="52.899,444.297 168.632,467.551 79.35,375.842 	"/>
	<polygon fill="#939393" points="65.152,247.038 202.821,117.656 296.918,198.045 	"/>
	<polygon fill="#C1C1C1" points="37.427,150.314 107.854,155.849 65.152,247.038 	"/>
	<polygon fill="#939393" points="79.35,375.842 200.254,350.509 65.152,247.038 	"/>
	<polygon fill="#939393" points="296.918,198.045 200.254,350.509 316.477,295.068 	"/>
	<polygon fill="#A3A3A3" points="417.502,208.826 296.918,198.045 425.202,321.864 	"/>
	<polygon fill="#939393" points="200.254,350.509 168.632,467.551 286.163,439.831 	"/>
	<polygon fill="#C1C1C1" points="425.202,321.864 371.917,461.391 286.163,439.831 	"/>
	<polygon fill="#939393" points="316.477,295.068 286.163,439.831 425.202,321.864 	"/>
	<polygon fill="#A3A3A3" points="563.189,336.957 425.202,321.864 371.917,461.391 	"/>
	<polygon fill="#939393" points="491.731,491.268 563.189,336.957 641.73,401.33 	"/>
	<polygon fill="#939393" points="342.965,606.77 491.731,491.268 431.67,593.834 	"/>
	<polygon fill="#939393" points="371.917,461.391 491.731,491.268 342.965,606.77 	"/>
	<polygon fill="#939393" points="732.9,397.326 711.34,491.884 779.102,469.399 	"/>
	<polygon fill="#A3A3A3" points="107.854,155.849 202.821,117.656 37.427,150.314 	"/>
	<polygon fill="#A3A3A3" points="65.152,247.038 202.821,117.656 107.854,155.849 	"/>
	<polygon fill="#A3A3A3" points="314.012,78.848 296.918,198.045 202.821,117.656 	"/>
	<polygon fill="#C1C1C1" points="397.174,108.416 296.918,198.045 314.012,78.848 	"/>
	<polyline fill="#939393" points="417.502,208.826 296.918,198.045 397.174,108.416 	"/>
	<polygon fill="#A3A3A3" points="296.918,198.045 200.254,350.509 65.152,247.038 	"/>
	<polygon fill="#C1C1C1" points="65.152,247.038 79.35,375.842 46.682,315.435 	"/>
	<polygon fill="#C1C1C1" points="200.254,350.509 168.632,467.551 79.35,375.842 	"/>
	<polygon fill="#A3A3A3" points="316.477,295.068 200.254,350.509 286.163,439.831 	"/>
	<polygon fill="#C1C1C1" points="52.899,444.297 0,528.229 21.098,580.897 	"/>
	<polygon fill="#A3A3A3" points="168.632,467.551 52.899,444.297 76.231,572.273 	"/>
	<polygon fill="#C1C1C1" points="286.163,439.831 168.632,467.551 166.169,572.273 	"/>
	<polygon fill="#A3A3A3" points="371.917,461.391 270.275,606.154 286.163,439.831 	"/>
	<polygon fill="#939393" points="563.189,336.957 371.917,461.391 491.731,491.268 	"/>
	<polygon fill="#A3A3A3" points="641.73,401.33 491.731,491.268 555.489,622.17 	"/>
	<polygon fill="#A3A3A3" points="779.102,469.399 711.34,491.884 755.385,531.309 	"/>
	<polygon fill="#C1C1C1" points="684.852,580.897 711.34,491.884 755.385,531.309 	"/>
	<polygon fill="#A3A3A3" points="766.165,601.532 755.385,531.309 837.007,510.672 	"/>
	<polygon fill="#C1C1C1" points="848.095,611.698 837.007,510.672 766.165,601.532 	"/>
	<polygon fill="#C1C1C1" points="732.9,397.326 641.73,401.33 711.34,491.884 	"/>
	<polygon fill="#C1C1C1" points="704.564,314.164 563.189,336.957 641.73,401.33 	"/>
	<polygon fill="#C1C1C1" points="608.466,241.475 524.688,256.259 563.189,336.957 	"/>
	<polygon fill="#A3A3A3" points="425.202,321.864 524.688,256.259 563.189,336.957 	"/>
	<polygon fill="#C1C1C1" points="296.918,198.045 316.477,295.068 425.202,321.864 	"/>
</g>
<g id="petit_rocher">
</g>
<g id="étoile">
</g>
<g id="oursins">
</g>
<g id="algues">
</g>
<g id="algues_vertes">
</g>
</svg>
