<?xml version="1.0" encoding="utf-8"?>
<!-- Generator: Adobe Illustrator 16.0.0, SVG Export Plug-In . SVG Version: 6.00 Build 0)  -->
<!DOCTYPE svg PUBLIC "-//W3C//DTD SVG 1.1//EN" "http://www.w3.org/Graphics/SVG/1.1/DTD/svg11.dtd">
<svg version="1.1" xmlns="http://www.w3.org/2000/svg" xmlns:xlink="http://www.w3.org/1999/xlink" x="0px" y="0px" width="33.5px"
	 height="23.404px" viewBox="0 0 33.5 23.404" enable-background="new 0 0 33.5 23.404" xml:space="preserve">
<g id="sous_cul" display="none">
</g>
<g id="Layer_6">
</g>
<g id="FOOT">
</g>
<g id="BODY">
</g>
<g id="BRAS">
	<g>
		<path fill="#003B73" d="M19.322,18.815c-0.885-0.001-1.35-0.307-1.4-0.342c-0.225-0.156-0.281-0.465-0.127-0.691
			c1.361-2.003,1.415-5.209,0.123-7.3c-1.769-2.864-6.716-3.147-6.766-3.15c-0.145-0.007-0.278-0.077-0.368-0.191
			c-0.089-0.114-0.125-0.261-0.098-0.403c0.642-3.353,8.921-4.057,15.752-4.057c1.677,0,2.792,0.048,2.792,0.048
			c0.108-0.012,0.268-0.018,0.42-0.018c1.588,0,2.231,0.704,2.492,1.293c0.98,2.226-1.758,6.398-4.647,9.562
			C23.532,17.904,20.863,18.815,19.322,18.815L19.322,18.815z"/>
		<path fill="#003B73" d="M26.438,3.182c1.664,0,2.771,0.047,2.771,0.047c0.154-0.012,0.301-0.018,0.441-0.018
			c4.17,0,1.87,5.208-2.524,10.018c-3.934,4.306-6.478,5.086-7.804,5.086c-0.753,0-1.114-0.252-1.114-0.252
			c1.416-2.083,1.584-5.5,0.136-7.844c-1.928-3.12-7.166-3.387-7.166-3.387C11.798,3.592,21.539,3.182,26.438,3.182 M26.125,2.182v1
			V2.182c-10,0-15.52,1.501-16.086,4.463c-0.055,0.284,0.096,0.578,0.273,0.805c0.179,0.228,0.486,0.367,0.775,0.381
			c0.046,0.002,4.761,0.284,6.386,2.914c1.196,1.937,1.157,4.904-0.103,6.756c-0.308,0.453-0.189,1.069,0.261,1.383
			c0.145,0.102,0.698,0.432,1.688,0.432c1.641,0,4.457-0.939,8.543-5.412c1.454-1.591,6.093-7.022,4.735-10.1
			c-0.32-0.726-1.091-1.592-2.948-1.592c-0.146,0-0.455,0.005-0.615,0.016C28.782,2.218,28.125,2.182,26.125,2.182L26.125,2.182z"/>
	</g>
	<path fill="#0B2D49" stroke="#0A2A44" stroke-linecap="round" stroke-linejoin="round" stroke-miterlimit="10" d="M20.125,9.563
		c2.062,4.5,1.558,8.119,0.404,8.567c-1.53,0.595-2.992-0.352-2.992-0.352c1.416-2.083,2.255-5.216,0.807-7.56
		c-1.928-3.12-7.166-3.387-7.166-3.387c0.151-0.791,0.562-1.398,1.881-1.901S17.819,4.532,20.125,9.563z"/>
	<path fill="#FFE3A7" d="M18.458,9.563c0,0-3-4.405-8.5-2.369s-8.999,3.537-8.666,8.203s1.834,7.333,5.5,6.833
		s10.885-3.277,12.225-6.174C20.208,13.48,18.666,9.528,18.458,9.563z"/>
	<path fill="#E3C78B" d="M4.002,21.831c0.874,1.148,3,0.612,4.124,0.459c3.666-0.5,7.698-2.692,10.249-5.31
		c2.385-2.447,0.083-7.417,0.083-7.417s-6.824,0.961-10.333,2c-2.249,0.666-3.745,1.696-4.123,4
		C3.715,17.313,3.074,20.612,4.002,21.831z"/>
</g>
<g id="HEAD">
</g>
</svg>
