<?xml version="1.0" encoding="utf-8"?>
<!-- Generator: Adobe Illustrator 16.0.0, SVG Export Plug-In . SVG Version: 6.00 Build 0)  -->
<!DOCTYPE svg PUBLIC "-//W3C//DTD SVG 1.1//EN" "http://www.w3.org/Graphics/SVG/1.1/DTD/svg11.dtd">
<svg version="1.1" xmlns="http://www.w3.org/2000/svg" xmlns:xlink="http://www.w3.org/1999/xlink" x="0px" y="0px" width="82.5px"
	 height="66.26px" viewBox="0 0 82.5 66.26" enable-background="new 0 0 82.5 66.26" xml:space="preserve">
<g id="sous_cul" display="none">
</g>
<g id="Layer_6">
</g>
<g id="FOOT">
</g>
<g id="BODY">
	<path fill="#FFFFFF" d="M11.833,6.167c0.526-0.023,37.5-1.5,52.667,1s13.666,9.5,13.333,17.5s-2.5,20.501-4.333,25.667
		s-6.167,11.334-11.5,12s-39.166-0.167-46.333-3.167S4.334,54.001,4.5,45.834S4.156,18.333,4.495,14.5S6.673,6.398,11.833,6.167z"/>
	<g>
		<path fill="#003B73" d="M59,6.595c-1-0.154-3-0.283-5-0.392v56.346c2,0.003,4-0.023,5-0.077V6.595z"/>
		<path fill="#003B73" d="M49,5.955c-1-0.062-3-0.109-5-0.146v56.547c2,0.06,4,0.104,5,0.136V5.955z"/>
		<path fill="#003B73" d="M39,5.733c-1-0.015-3-0.022-5-0.02v56.153c2,0.106,4,0.201,5,0.281V5.733z"/>
		<path fill="#003B73" d="M24,60.999c2,0.183,4,0.348,5,0.497V5.742c-1,0.017-3,0.04-5,0.068V60.999z"/>
		<path fill="#003B73" d="M9,6.451C6,7.495,4.29,11.162,3.995,14.5C3.656,18.333,3.916,37.667,3.75,45.834
			C3.635,51.516,6,54.292,9,56.466V6.451z"/>
		<path fill="#003B73" d="M64,7.257v54.099c4-2.066,7.525-6.865,9-11.021c1.833-5.166,3.75-17.667,4.083-25.667
			C77.412,16.758,79,9.83,64,7.257z"/>
		<path fill="#003B73" d="M19,5.914c-1,0.049-3,0.099-5,0.141v52.83c1,0.094,0.438,0.187,0.667,0.282
			C15.651,59.579,18,59.949,19,60.281V5.914z"/>
	</g>
	<path fill="none" stroke="#003B73" stroke-width="2" stroke-miterlimit="10" d="M11.833,6.167c0.526-0.023,37.5-1.5,52.667,1
		s13.666,9.5,13.333,17.5s-2.5,20.501-4.333,25.667s-6.167,11.334-11.5,12s-39.166-0.167-46.333-3.167S4.334,54.001,4.5,45.834
		S4.156,18.333,4.495,14.5S6.673,6.398,11.833,6.167z"/>
	<path opacity="0.2" stroke="#000000" stroke-width="2" stroke-miterlimit="10" d="M4.398,16.971
		C4.377,31.458,15.895,45.481,57.5,41.41l16,8.924c-1.833,5.166-6.167,11.334-11.5,12s-39.166-0.167-46.333-3.167
		S4.334,54.001,4.5,45.834C4.643,38.818,4.287,23.562,4.398,16.971z"/>
</g>
<g id="BRAS">
</g>
<g id="HEAD">
</g>
</svg>
