<?xml version="1.0" encoding="utf-8"?>
<!-- Generator: Adobe Illustrator 16.0.0, SVG Export Plug-In . SVG Version: 6.00 Build 0)  -->
<!DOCTYPE svg PUBLIC "-//W3C//DTD SVG 1.1//EN" "http://www.w3.org/Graphics/SVG/1.1/DTD/svg11.dtd">
<svg version="1.1" xmlns="http://www.w3.org/2000/svg" xmlns:xlink="http://www.w3.org/1999/xlink" x="0px" y="0px"
	 width="103.75px" height="108.179px" viewBox="0 0 103.75 108.179" enable-background="new 0 0 103.75 108.179"
	 xml:space="preserve">
<g id="sous_cul" display="none">
</g>
<g id="Layer_6">
</g>
<g id="FOOT">
</g>
<g id="BODY">
</g>
<g id="BRAS">
</g>
<g id="HEAD">
	<path fill="#FFE4A8" d="M8.021,42.752c0,0-1.834,12.666-1.5,21.5s-0.041,27,5.5,33.167c6.193,6.894,27.334,10.666,42.167,10.833
		s31.833,0.011,38.333-7.333c6.85-7.739,8.5-22.333,8.5-37s-0.833-34.167-4.833-38.333s-33.375-5.833-42.438-5.5
		S9.52,26.091,8.021,42.752z"/>
	<path fill="#E3C78B" d="M95.904,95.777c1.32-1.704-2.073,3.663-3.383,5.143c-6.5,7.344-23.5,7.5-38.333,7.333
		s-35.974-3.939-42.167-10.833c-5.541-6.167-5.166-24.333-5.5-33.167s1.5-21.5,1.5-21.5c0.698-7.766,8.71-13.144,17.984-16.707
		c0,0-8.15,42.541-0.317,56.541s23.935,20.096,33.5,21.333C73.354,105.752,88.688,105.086,95.904,95.777z"/>
	<ellipse fill="#FFFFFF" cx="70.105" cy="51.042" rx="5.083" ry="13.123"/>
	<ellipse cx="72.563" cy="48.696" rx="2.625" ry="6.777"/>
	<ellipse fill="#FFFFFF" cx="73.821" cy="48.45" rx="1.368" ry="3.531"/>
	<ellipse fill="#FFFFFF" cx="86.105" cy="51.042" rx="5.083" ry="13.123"/>
	<ellipse cx="88.563" cy="48.696" rx="2.625" ry="6.777"/>
	<ellipse fill="#FFFFFF" cx="89.821" cy="48.45" rx="1.368" ry="3.531"/>
	<ellipse cx="77.855" cy="81.065" rx="1.667" ry="1.938"/>
	<path fill="#FF1E17" d="M46.271,0.752c9.104-1.17,29.5-1.125,41.625,15.375c0,0,10.5,2.521,13.625,6.375
		c1.182,1.458,2.632,3.552,2.125,6c-0.75,3.625-3.5,5.375-6.75,3.5s-22.5-7-41.25-4.25s-38.551,14.246-44.5,18.875
		c-4.242,3.301-5.237,4.023-7.875,2.75c-3.625-1.75-3.875-6.375-2.5-9.75s5-6.125,7.375-7.25
		C8.146,32.377,15.146,4.752,46.271,0.752z"/>
	<path fill="#CF2122" d="M87.896,16.127c-2.788-3.795-6.014-6.719-9.439-8.958c0,0,1.972,2.149,0,4.479
		c-2.311,2.729-16.686,2.731-21.811,2.979c-3.288,0.159-7.5,0.75-16.375,2.5s-16.125,2.625-18-1S31.519,5,31.519,5
		C12.821,13.927,8.146,32.377,8.146,32.377s15.5-9.625,28.375-13.125s26.957-4.25,33.416-4.25S87.896,16.127,87.896,16.127z"/>
	<path fill="#CF2122" d="M93.537,17.87c3.016,1.112,6.422,2.706,7.984,4.633c1.182,1.458,2.632,3.552,2.125,6
		c-0.75,3.625-3.5,5.375-6.75,3.5s-22.5-7-41.25-4.25s-38.551,14.246-44.5,18.875c-4.242,3.301-5.237,4.023-7.875,2.75
		c-3.625-1.75-3.875-6.375-2.5-9.75c0.924-2.268,2.864-4.253,4.76-5.653c0,0-3.385,5.737-1.26,7.945s7,0.958,12.125-1.917
		s25.207-10.875,35.479-13.125s23.521-1.969,31.271-1.734s12.375,2.734,13.875-1.266C98.039,21.163,93.537,17.87,93.537,17.87z"/>
</g>
</svg>
