<?xml version="1.0" encoding="utf-8"?>
<!-- Generator: Adobe Illustrator 16.0.0, SVG Export Plug-In . SVG Version: 6.00 Build 0)  -->
<!DOCTYPE svg PUBLIC "-//W3C//DTD SVG 1.1//EN" "http://www.w3.org/Graphics/SVG/1.1/DTD/svg11.dtd">
<svg version="1.1" xmlns="http://www.w3.org/2000/svg" xmlns:xlink="http://www.w3.org/1999/xlink" x="0px" y="0px" width="32px"
	 height="24.147px" viewBox="0 0 32 24.147" enable-background="new 0 0 32 24.147" xml:space="preserve">
<g id="sous_cul" display="none">
</g>
<g id="Layer_6">
</g>
<g id="FOOT">
	<path fill="#FFE3A7" d="M26.548,17.698c0,0-6.68,2.489-11.116,1.04c-5.157-1.686-9.298-4.938-11.226-7.523
		C1.646,7.782,2.819,3.387,6.872,4.936c2.96,1.13,14.021,4.844,17.896,4.795C28.642,9.683,30.905,15.897,26.548,17.698z"/>
	<path fill="#E3C78B" d="M26.13,9.984c2.974,1.178,4.232,6.138,0.418,7.714c0,0-6.631,3.032-12.547,1.158
		c-5.172-1.639-7.867-5.056-9.795-7.642C1.646,7.782,2.819,3.387,6.872,4.936c0,0-3.455-0.83-2.038,0.753
		c1.705,1.905,6.624,4.867,10.628,5.604c3.162,0.582,8.193,0.633,9.034,0.476C25.337,11.613,26.13,9.984,26.13,9.984z"/>
</g>
<g id="BODY">
</g>
<g id="BRAS">
</g>
<g id="HEAD">
</g>
</svg>
