<?xml version="1.0" encoding="utf-8"?>
<!-- Generator: Adobe Illustrator 16.0.0, SVG Export Plug-In . SVG Version: 6.00 Build 0)  -->
<!DOCTYPE svg PUBLIC "-//W3C//DTD SVG 1.1//EN" "http://www.w3.org/Graphics/SVG/1.1/DTD/svg11.dtd">
<svg version="1.1" xmlns="http://www.w3.org/2000/svg" xmlns:xlink="http://www.w3.org/1999/xlink" x="0px" y="0px"
	 width="31.333px" height="18.671px" viewBox="0 0 31.333 18.671" enable-background="new 0 0 31.333 18.671" xml:space="preserve">
<g id="sous_cul" display="none">
</g>
<g id="Layer_6">
</g>
<g id="FOOT">
	<path fill="#FFE3A7" d="M27.917,11.48c0,0-5.573,4.442-10.241,4.443c-5.426,0.001-10.373-1.803-13.009-3.661
		c-3.5-2.467-3.75-7.009,0.583-6.797c3.164,0.154,14.833,0.246,18.5-1.004S31.5,8.415,27.917,11.48z"/>
	<path fill="#E3C78B" d="M25.123,4.278c3.192,0.195,5.931,4.519,2.794,7.202c0,0-5.573,4.442-10.241,4.443
		c-5.426,0.001-10.373-1.803-13.009-3.661c-3.5-2.467-3.75-7.009,0.583-6.797c0,0-3.23-0.212-1.932,1.924
		c1.262,2.073,7.396,3.255,11.432,2.711c3.188-0.43,8.625-3.207,9.375-3.617S25.123,4.278,25.123,4.278z"/>
</g>
<g id="BODY">
</g>
<g id="BRAS">
</g>
<g id="HEAD">
</g>
</svg>
