<?xml version="1.0" encoding="UTF-8" standalone="no"?>
<!-- Created with Inkscape (http://www.inkscape.org/) -->

<svg
   xmlns:dc="http://purl.org/dc/elements/1.1/"
   xmlns:cc="http://creativecommons.org/ns#"
   xmlns:rdf="http://www.w3.org/1999/02/22-rdf-syntax-ns#"
   xmlns:svg="http://www.w3.org/2000/svg"
   xmlns="http://www.w3.org/2000/svg"
   xmlns:sodipodi="http://sodipodi.sourceforge.net/DTD/sodipodi-0.dtd"
   xmlns:inkscape="http://www.inkscape.org/namespaces/inkscape"
   width="711.84576"
   height="388.37091"
   id="svg2"
   version="1.1"
   inkscape:version="0.48.5 r10040"
   sodipodi:docname="gameover.svg"
   inkscape:export-filename="C:\Users\Cyriaque\Desktop\cf_heritage\Assets\Graphics\gameover.png"
   inkscape:export-xdpi="101.15"
   inkscape:export-ydpi="101.15">
  <defs
     id="defs4">
    <filter
       inkscape:collect="always"
       id="filter4590"
       color-interpolation-filters="sRGB">
      <feGaussianBlur
         inkscape:collect="always"
         stdDeviation="7.6974111"
         id="feGaussianBlur4592" />
    </filter>
  </defs>
  <sodipodi:namedview
     id="base"
     pagecolor="#ffffff"
     bordercolor="#666666"
     borderopacity="1.0"
     inkscape:pageopacity="0.0"
     inkscape:pageshadow="2"
     inkscape:zoom="0.98994949"
     inkscape:cx="228.68455"
     inkscape:cy="237.12419"
     inkscape:document-units="px"
     inkscape:current-layer="layer1"
     showgrid="false"
     inkscape:window-width="1920"
     inkscape:window-height="1018"
     inkscape:window-x="-6"
     inkscape:window-y="-6"
     inkscape:window-maximized="1"
     fit-margin-top="0"
     fit-margin-left="0"
     fit-margin-right="0"
     fit-margin-bottom="0" />
  <metadata
     id="metadata7">
    <rdf:RDF>
      <cc:Work
         rdf:about="">
        <dc:format>image/svg+xml</dc:format>
        <dc:type
           rdf:resource="http://purl.org/dc/dcmitype/StillImage" />
        <dc:title></dc:title>
      </cc:Work>
    </rdf:RDF>
  </metadata>
  <g
     inkscape:label="Calque 1"
     inkscape:groupmode="layer"
     id="layer1"
     transform="translate(227.77339,-191.9146)">
    <path
       inkscape:connector-curvature="0"
       id="path4576"
       d="m 46.535714,210.38839 c -9.745694,2.58504 -18.878275,8.07722 -25.25,15.78125 -2.100365,12.16823 -4.001197,24.37021 -5.75,36.59375 C 12.023923,255.59706 8.6839592,245.95406 -0.60046902,245.16591 -15.427135,240.46438 -29.823332,232.52331 -45.433036,231.45089 c -12.829314,3.76694 -21.332606,15.87954 -25.65625,28 -7.482882,-11.69681 -21.041288,-17.91925 -34.576414,-18.90416 -37.89009,-7.8597 -82.17898,10.46467 -97.45484,47.18541 -10.34107,24.16862 -7.86231,53.92759 8.64501,74.61559 11.38303,17.04549 29.65001,30.48096 50.35499,32.94691 -32.90428,16.77586 -58.13658,51.83912 -56.09375,89.8125 3.17251,43.45427 44.86661,80.4862 88.77852,76.39488 26.79201,-1.46456 52.685402,-17.04338 64.124112,-41.68637 3.657114,-6.81744 6.379307,-14.18709 8.503622,-21.64601 5.242473,13.17516 9.711154,28.54933 22.8125,35.96875 16.75777338,11.18591 39.764464,15.7888 58.53125,6.78125 8.917477,-5.10721 15.241406,-13.52632 20.53125,-22.15625 13.612152,15.82393 36.45009,19.15994 56.591856,19.06142 9.94613,0.60725 20.20326,0.60797 29.65814,-2.56142 14.78608,7.84362 37.39071,6.1731 45.75,-9.90625 5.7153,-10.75509 5.11428,-23.74741 1.96875,-35.21875 17.32649,10.03131 27.6384,28.85967 44.59375,39.40625 13.41508,10.13703 33.94768,8.16503 46.90625,-1.8125 16.01849,-15.68518 9.17988,-46.17126 -11.25,-54.59375 -13.29561,-6.78899 -31.63926,-7.91461 -39.5625,-21.8125 0.27568,-5.81652 7.90137,-6.54392 11.875,-9.1875 3.66384,-2.21437 4.555,-7.90485 9.4375,-7.75 2.229,-1.01239 -0.23872,3.29508 0.75,4.5625 2.13582,12.35294 18.19802,15.37258 27.96875,10.15625 2.05613,-0.44319 4.84658,-4.08896 5.78125,-3.5 1.53625,8.72962 10.14954,13.98174 18.1875,15.78125 2.54039,8.0904 6.14326,16.28128 8.0625,24.28125 -7.07513,6.24841 -12.14293,19.27135 -4.25,26.8125 8.95528,6.86278 22.90997,3.70342 29.5625,-4.625 12.83019,5.29639 28.44482,-8.61341 23.625,-21.90625 -2.21757,-8.38251 -11.35955,-14.29724 -19.8125,-11.46875 -3.90297,-2.10683 -2.98969,-8.15595 -5.39822,-11.66542 -1.64853,-4.60356 -3.40773,-9.16178 -4.94553,-13.80333 11.2022,1.90599 20.67597,-6.90345 28.52788,-13.63624 5.58738,-5.19208 10.04396,-11.91599 16.28462,-16.05126 7.79505,-0.0496 13.59959,-6.70294 16.625,-12.84375 4.66898,-0.65997 11.57267,-4.56503 14.46875,1.40625 7.65395,9.48053 22.72332,16.20116 33.6875,8.1875 8.10338,-5.26502 12.24061,-18.48313 5.03125,-25.96875 7.83846,-4.45827 15.597,-14.55362 11.0625,-23.78125 -7.94376,-10.91793 -23.38046,-10.75243 -35.625,-10.9375 -8.89891,1.37097 -13.89771,9.85066 -17.90625,17.0625 -3.70418,0.17754 -8.90298,2.6058 -11.625,1.21875 -2.81749,-36.55519 -35.62031,-67.51782 -72.21875,-68.5 -12.80148,-2.09859 -25.68918,0.87612 -38.0625,3.96875 8.87071,-5.7265 12.56167,-20.08367 3.90625,-27.71875 -5.40756,-5.01772 -13.67711,-6.86133 -20.875,-4.8125 3.78367,-13.43478 -1.93655,-30.5145 -16.125,-34.84375 -19.05689,-7.92558 -40.26034,-6.9728 -60.5,-8.40625 -10.25645,0.53532 -20.23445,4.25941 -28.59375,9.8125 -13.21508,-15.73574 -33.5287,-24.53431 -53.59375,-26.875 -6.33783,2.6895 -5.92843,10.92664 -9.64831,15.91073 -4.908804,10.59365 -9.597914,21.2926 -14.664186,31.80802 0.41964,-13.96807 1.648133,-31.00351 -10.78125,-40.375 -8.580385,-7.69186 -19.897212,-12.52647 -31.40625,-13.25 z m -82.53125,72.5 c 2.835671,1.42452 4.511712,6.59575 2.125,8.46875 -2.06652,-2.18404 -2.146971,-5.7818 -2.125,-8.46875 z m 256.906246,9.8125 c 5.3188,0.0339 10.65061,0.71548 15.75,1.9375 1.04571,4.66278 -3.74375,0.7059 -5.9375,1.65625 -5.11444,-0.2553 -10.62279,-0.23366 -15.15625,-2.59375 1.73044,-0.62239 3.48654,-0.88071 5.34375,-1 z m -296.593746,6.6875 c 1.120036,1.86871 0.432549,5.6429 -2.1875,3.40625 -3.773043,0.4695 3.088622,-5.43524 2.1875,-3.40625 z m -41.625004,2.9375 c 6.07486,-0.031 12.59348,0.79684 18.312504,1.375 -12.740144,2.99951 -25.404664,6.82321 -38.218754,8.90625 -7.73247,4.4691 -4.17102,15.08296 -7.34879,22.01996 -1.37419,1.99512 -0.97361,12.40313 -3.71371,9.16754 -9.97364,-12.94991 -1.94761,-32.97976 12.75,-38.375 5.76407,-2.44139 12.00593,-2.99629 18.21875,-3.09375 z m 373.84375,15.90625 c 1.57224,0.1294 5.69587,-0.33459 2.40625,1.28125 -1.92014,3.04811 -2.595,1.56001 -2.8125,-1.1875 0.1368,-0.0118 0.26715,-0.0883 0.40625,-0.0937 z m -153.375,11.34375 c -3.623286,13.65394 -9.978955,29.77931 -1.5625,42.90625 8.19502,10.77977 22.68237,11.94972 35.1875,12.65625 5.91935,1.09894 13.59909,2.0161 18.28125,3.4375 -6.95906,2.89864 -14.45663,7.16219 -22.00877,3.57041 -15.22843,-3.58905 -31.50528,-0.36163 -45.147476,6.64834 -3.172168,-1.68184 -3.69946,-6.29749 -7.09375,-8.03125 -9.705806,-9.25523 -25.503029,-10.30074 -36.6875,-3 -18.598385,9.77373 -29.572633,30.90309 -29.177325,51.85915 -1.475588,8.00302 -2.610763,17.65316 -7.1039247,23.9846 -8.26076049,-20.7545 -9.4843545,-46.3781 -27.4062503,-61.875 -5.193774,-4.30891 -11.751915,-6.80557 -18.5,-7.28125 12.408815,-8.13314 19.911975,-24.43267 14.59375,-38.9375 -1.834826,-8.26665 -6.906192,-17.03262 -3.40625,-25.5 12.123988,0.95543 15.947083,14.94421 20.7187503,24.03125 4.3681272,10.57974 15.3348537,19.4628 27.2812497,16.53125 6.159343,-1.90123 11.627649,3.16087 17.96875,1.375 13.24051,-1.60641 22.746527,-14.86605 21.03125,-27.96875 -0.292021,-4.41796 -1.455339,-8.63172 -2.25,-12.96875 6.987632,9.14499 18.382315,18.33135 30.5625,14.78125 7.542994,-2.84218 11.26511,-10.48089 14.968746,-17.125 l -0.25,0.90625 z m 151.03125,8.25 c -0.82931,2.71756 -3.78195,4.64221 -4.71875,7.5625 -1.02819,1.78639 -2.14163,7.17196 -4.53125,3.25 -1.91484,-1.69128 -5.32352,-3.16643 -7.03125,-3.875 6.05526,-0.13277 12.61364,-2.17047 16.28125,-6.9375 z m -45.125,2.15625 c 3.68069,0.0518 7.19,1.34119 10.625,2.4375 -4.67785,-0.50624 -10.43529,0.38041 -14.5625,-1.78125 1.21604,-0.56146 2.5873,-0.59649 3.9375,-0.65625 z m -333.03125,7.9375 c -3.491,4.77932 -10.5713,4.68675 -15.59375,2.5625 4.90787,-0.77812 11.5791,-2.88434 15.59375,-2.5625 z m 42.750004,40.5625 c 0.586824,2.01602 1.323666,4.37051 2.65625,6.1875 -2.220396,-1.88118 -13.1073,-3.5841 -6.4375,-5.125 1.276731,-0.41123 2.436081,-0.9605 3.78125,-1.0625 z m 263.093746,37.0625 c 3.28903,0.0112 -1.85782,4.24905 -1.5625,5.0625 -0.39243,-1.74195 -0.44061,-4.38232 1.5625,-5.0625 z m -67.9375,16.5625 c 9.95202,1.74772 -4.74817,-0.62734 0,0 z m -236.71875,21.9375 c 11.83247,2.3753 27.037182,-1.51229 35.562504,9.21875 5.5152,10.11669 -5.405244,21.78137 -15.687504,21.96875 -11.7611,1.92703 -26.32827,2.62844 -35.1875,-6.65625 -6.9986,-10.71744 3.49535,-24.56794 15.3125,-24.53125 z"
       style="opacity:0.6;fill:#000000;stroke:none;filter:url(#filter4590)" />
    <path
       style="fill:#fd3301;stroke:none"
       d="m 47.25,202.53125 c -9.745694,2.58504 -18.878275,8.07722 -25.25,15.78125 -2.100365,12.16823 -4.001197,24.37021 -5.75,36.59375 -3.511791,-7.16633 -6.8517551,-16.80933 -16.1361833,-17.59748 -14.8266657,-4.70153 -29.2228627,-12.6426 -44.8325667,-13.71502 -12.829314,3.76694 -21.332606,15.87954 -25.65625,28 -7.482882,-11.69681 -21.041288,-17.91925 -34.57641,-18.90416 -37.89009,-7.8597 -82.17898,10.46467 -97.45484,47.18541 -10.34107,24.16862 -7.86231,53.92759 8.64501,74.61559 11.38303,17.04549 29.65001,30.48096 50.35499,32.94691 -32.90428,16.77586 -58.13658,51.83912 -56.09375,89.8125 3.17251,43.45427 44.86661,80.4862 88.77852,76.39488 26.792006,-1.46456 52.685398,-17.04338 64.124108,-41.68637 3.657114,-6.81744 6.379307,-14.18709 8.503622,-21.64601 5.242473,13.17516 9.711154,28.54933 22.8125,35.96875 16.7577731,11.18591 39.764464,15.7888 58.53125,6.78125 8.917477,-5.10721 15.241406,-13.52632 20.53125,-22.15625 13.612152,15.82393 36.45009,19.15994 56.59186,19.06142 9.94613,0.60725 20.20326,0.60797 29.65814,-2.56142 14.78608,7.84362 37.39071,6.1731 45.75,-9.90625 5.7153,-10.75509 5.11428,-23.74741 1.96875,-35.21875 17.32649,10.03131 27.6384,28.85967 44.59375,39.40625 13.41508,10.13703 33.94768,8.16503 46.90625,-1.8125 16.01849,-15.68518 9.17988,-46.17126 -11.25,-54.59375 -13.29561,-6.78899 -31.63926,-7.91461 -39.5625,-21.8125 0.27568,-5.81652 7.90137,-6.54392 11.875,-9.1875 3.66384,-2.21437 4.555,-7.90485 9.4375,-7.75 2.229,-1.01239 -0.23872,3.29508 0.75,4.5625 2.13582,12.35294 18.19802,15.37258 27.96875,10.15625 2.05613,-0.44319 4.84658,-4.08896 5.78125,-3.5 1.53625,8.72962 10.14954,13.98174 18.1875,15.78125 2.54039,8.0904 6.14326,16.28128 8.0625,24.28125 -7.07513,6.24841 -12.14293,19.27135 -4.25,26.8125 8.95528,6.86278 22.90997,3.70342 29.5625,-4.625 12.83019,5.29639 28.44482,-8.61341 23.625,-21.90625 -2.21757,-8.38251 -11.35955,-14.29724 -19.8125,-11.46875 -3.90297,-2.10683 -2.98969,-8.15595 -5.39822,-11.66542 -1.64853,-4.60356 -3.40773,-9.16178 -4.94553,-13.80333 11.2022,1.90599 20.67597,-6.90345 28.52788,-13.63624 5.58738,-5.19208 10.04396,-11.91599 16.28462,-16.05126 7.79505,-0.0496 13.59959,-6.70294 16.625,-12.84375 4.66898,-0.65997 11.57267,-4.56503 14.46875,1.40625 7.65395,9.48053 22.72332,16.20116 33.6875,8.1875 8.10338,-5.26502 12.24061,-18.48313 5.03125,-25.96875 7.83846,-4.45827 15.597,-14.55362 11.0625,-23.78125 -7.94376,-10.91793 -23.38046,-10.75243 -35.625,-10.9375 -8.89891,1.37097 -13.89771,9.85066 -17.90625,17.0625 -3.70418,0.17754 -8.90298,2.6058 -11.625,1.21875 -2.81749,-36.55519 -35.62031,-67.51782 -72.21875,-68.5 -12.80148,-2.09859 -25.68918,0.87612 -38.0625,3.96875 8.87071,-5.7265 12.56167,-20.08367 3.90625,-27.71875 -5.40756,-5.01772 -13.67711,-6.86133 -20.875,-4.8125 3.78367,-13.43478 -1.93655,-30.5145 -16.125,-34.84375 -19.05689,-7.92558 -40.26034,-6.9728 -60.5,-8.40625 -10.25645,0.53532 -20.23445,4.25941 -28.59375,9.8125 -13.21508,-15.73574 -33.5287,-24.53431 -53.59375,-26.875 -6.33783,2.6895 -5.92843,10.92664 -9.64831,15.91073 -4.908808,10.59365 -9.597918,21.2926 -14.66419,31.80802 0.41964,-13.96807 1.648133,-31.00351 -10.78125,-40.375 -8.580385,-7.69186 -19.897212,-12.52647 -31.40625,-13.25 z m -82.53125,72.5 c 2.835671,1.42452 4.511712,6.59575 2.125,8.46875 -2.06652,-2.18404 -2.146971,-5.7818 -2.125,-8.46875 z m 256.90625,9.8125 c 5.3188,0.0339 10.65061,0.71548 15.75,1.9375 1.04571,4.66278 -3.74375,0.7059 -5.9375,1.65625 -5.11444,-0.2553 -10.62279,-0.23366 -15.15625,-2.59375 1.73044,-0.62239 3.48654,-0.88071 5.34375,-1 z m -296.59375,6.6875 c 1.120036,1.86871 0.432549,5.6429 -2.1875,3.40625 -3.773043,0.4695 3.088622,-5.43524 2.1875,-3.40625 z m -41.625,2.9375 c 6.07486,-0.031 12.59348,0.79684 18.3125,1.375 -12.74014,2.99951 -25.40466,6.82321 -38.21875,8.90625 -7.73247,4.4691 -4.17102,15.08296 -7.34879,22.01996 -1.37419,1.99512 -0.97361,12.40313 -3.71371,9.16754 -9.97364,-12.94991 -1.94761,-32.97976 12.75,-38.375 5.76407,-2.44139 12.00593,-2.99629 18.21875,-3.09375 z M 257.25,310.375 c 1.57224,0.1294 5.69587,-0.33459 2.40625,1.28125 -1.92014,3.04811 -2.595,1.56001 -2.8125,-1.1875 0.1368,-0.0118 0.26715,-0.0883 0.40625,-0.0937 z m -153.375,11.34375 c -3.62329,13.65394 -9.978959,29.77931 -1.5625,42.90625 8.19502,10.77977 22.68237,11.94972 35.1875,12.65625 5.91935,1.09894 13.59909,2.0161 18.28125,3.4375 -6.95906,2.89864 -14.45663,7.16219 -22.00877,3.57041 -15.22843,-3.58905 -31.50528,-0.36163 -45.14748,6.64834 -3.172168,-1.68184 -3.69946,-6.29749 -7.09375,-8.03125 -9.705806,-9.25523 -25.503029,-10.30074 -36.6875,-3 -18.598385,9.77373 -29.572633,30.90309 -29.177325,51.85915 -1.475588,8.00302 -2.610763,17.65316 -7.103925,23.9846 -8.26076047,-20.7545 -9.48435453,-46.3781 -27.40625,-61.875 -5.193774,-4.30891 -11.751915,-6.80557 -18.5,-7.28125 12.408815,-8.13314 19.911975,-24.43267 14.59375,-38.9375 -1.834826,-8.26665 -6.906192,-17.03262 -3.40625,-25.5 12.123988,0.95543 15.947083,14.94421 20.71875,24.03125 4.3681272,10.57974 15.3348537,19.4628 27.28125,16.53125 6.159343,-1.90123 11.627649,3.16087 17.96875,1.375 13.24051,-1.60641 22.746527,-14.86605 21.03125,-27.96875 -0.292021,-4.41796 -1.455339,-8.63172 -2.25,-12.96875 6.987632,9.14499 18.382315,18.33135 30.5625,14.78125 7.542994,-2.84218 11.26511,-10.48089 14.96875,-17.125 l -0.25,0.90625 z m 151.03125,8.25 c -0.82931,2.71756 -3.78195,4.64221 -4.71875,7.5625 -1.02819,1.78639 -2.14163,7.17196 -4.53125,3.25 -1.91484,-1.69128 -5.32352,-3.16643 -7.03125,-3.875 6.05526,-0.13277 12.61364,-2.17047 16.28125,-6.9375 z m -45.125,2.15625 c 3.68069,0.0518 7.19,1.34119 10.625,2.4375 -4.67785,-0.50624 -10.43529,0.38041 -14.5625,-1.78125 1.21604,-0.56146 2.5873,-0.59649 3.9375,-0.65625 z M -123.25,340.0625 c -3.491,4.77932 -10.5713,4.68675 -15.59375,2.5625 4.90787,-0.77812 11.5791,-2.88434 15.59375,-2.5625 z m 42.75,40.5625 c 0.586824,2.01602 1.323666,4.37051 2.65625,6.1875 -2.220396,-1.88118 -13.1073,-3.5841 -6.4375,-5.125 1.276731,-0.41123 2.436081,-0.9605 3.78125,-1.0625 z m 263.09375,37.0625 c 3.28903,0.0112 -1.85782,4.24905 -1.5625,5.0625 -0.39243,-1.74195 -0.44061,-4.38232 1.5625,-5.0625 z m -67.9375,16.5625 c 9.95202,1.74772 -4.74817,-0.62734 0,0 z m -236.71875,21.9375 c 11.83247,2.3753 27.037178,-1.51229 35.5625,9.21875 5.5152,10.11669 -5.405244,21.78137 -15.6875,21.96875 -11.7611,1.92703 -26.32827,2.62844 -35.1875,-6.65625 -6.9986,-10.71744 3.49535,-24.56794 15.3125,-24.53125 z"
       id="path4419"
       inkscape:connector-curvature="0" />
    <path
       style="fill:#000000;stroke:none"
       d="m 202.75,373.90625 c -24.7722,0.16862 -50.9994,11.37498 -73.15625,20.50446 5.32568,40.70843 9.50588,86.98885 17.57143,127.15625 9.16222,9.77816 36.08698,10.12269 43.53472,-1.80836 9.08471,-11.14067 7.22005,-29.41258 2.14385,-42.91485 19.97452,6.40091 30.8342,29.48002 48.46429,39.75 8.98252,12.28167 37.54709,10.82775 47.44642,-0.53571 9.95462,-9.59585 7.551,-35.40404 -4.90178,-43.41072 -14.06755,-11.44452 -38.38355,-10.83909 -48.22768,-27.30357 -2.74834,-8.21443 7.84894,-10.355 13.84375,-14.29018 5.74475,-4.70863 10.18038,-18.89676 5.24554,-24.63839 -5.15623,-7.35227 -11.61438,-17.51708 -15.71875,-25.54018 -7.13624,-8.91336 -25.07601,-7.41442 -36.24554,-6.96875 z m -9.40625,37.91964 c 8.33766,-0.53797 14.05639,10.10838 5.875,14.23661 -5.99045,3.01238 -10.38847,6.4656 -16.67411,8.20536 -3.27995,-3.98985 -3.39374,-7.31777 -4.63839,-12.17411 -1.4582,-8.54992 9.11687,-8.71934 15.4375,-10.26786 z"
       id="path4411"
       inkscape:connector-curvature="0"
       sodipodi:nodetypes="cccccccccccccccccc" />
    <path
       style="fill:#000000;stroke:none"
       d="m 116.74554,385.78571 c -16.40505,0.88296 -29.737072,10.85161 -45.37054,14.93304 -0.789326,34.35081 -11.967623,68.39766 -9.053571,102.73661 7.492113,15.93564 33.844162,24.0756 49.834821,22.8616 14.42277,1.1865 36.34271,3.38782 47.39732,-8.45982 10.43809,-11.87928 0.20648,-38.50332 -15.88839,-40.6116 -12.00824,-3.00742 -24.73085,4.12489 -35.58482,-3.03572 -1.74032,-4.00786 1.4098,-6.05841 4.58772,-3.60745 15.16326,3.27587 34.8291,4.0948 45.11317,-9.63362 4.59671,-6.52268 0.44587,-16.08806 -7.0625,-17.96875 -14.65645,-7.26861 -33.3564,-0.90129 -47.09375,-10.0625 0.49271,-5.09039 8.9521,-2.21909 12.69643,-1.3125 9.83854,1.86796 25.01499,3.51842 33.12053,-3.90179 8.55558,-6.15778 12.07861,-24.99267 2.64733,-32.45982 -8.33742,-6.89461 -24.76514,-9.80037 -35.34375,-9.47768 z"
       id="path4345"
       inkscape:connector-curvature="0"
       sodipodi:nodetypes="ccccccccccccccc" />
    <path
       style="fill:#eeeeee;stroke:none"
       d="m 202.83928,376.89286 c -9.02342,0.14518 -18.32892,2.32911 -26.03125,5.125 -13.57751,4.49444 -25.6653,12.29248 -38.9375,17.5 4.63457,39.39051 9.01822,78.82105 15.25,118 28.46706,24.06678 49.18356,-24.27931 34.25,-44.4375 20.15789,-8e-4 37.92343,25.22547 57,35.21875 23.25934,30.068 64.44242,-15.6025 27.6875,-34 -17.78459,-10.24573 -60.32777,-25.82145 -28.71875,-48.40625 15.3201,-10.54159 -3.3305,-21.72791 -8.78125,-32.21875 -5.95174,-12.86565 -18.53067,-16.99344 -31.71875,-16.78125 z m -9.125,29.09375 c 4.15706,0.15571 8.08923,2.44567 10.3125,6.5 5.19481,6.01298 1.25585,14.69158 -5.375,17.625 -5.84223,3.04778 -10.18057,8.81213 -16.53125,10.71875 -6.25312,-3.01094 -5.48612,-14.12513 -7.84375,-20.625 l 0.3125,-0.71875 0.25,-0.78125 c 1.01372,-5.97069 6.45195,-8.55104 11.46875,-10.625 2.32985,-1.50065 4.91202,-2.18718 7.40625,-2.09375 z"
       id="path4046"
       inkscape:connector-curvature="0" />
    <path
       style="fill:#eeeeee;stroke:none"
       d="m 74.285713,403.07647 c -1.193668,32.76401 -4.445922,65.50038 -3.24616,98.3151 4.37809,11.8605 17.820335,16.85872 29.525527,17.45986 9.1027,0.57791 18.33563,-0.29423 27.31208,1.6785 9.98557,0.81762 21.86871,-1.44575 27.60456,-10.49534 5.3153,-10.28398 -0.33001,-25.34337 -12.1898,-27.66261 -12.29182,-3.11348 -25.5154,2.10413 -37.43824,-3.1342 -6.7099,-3.57188 -1.87334,-14.87842 5.35031,-11.96266 7.82208,0.92522 15.58409,3.20999 23.5273,2.08765 8.89991,-0.5629 19.15511,-4.65061 22.06392,-13.85638 0.93147,-7.56749 -8.15963,-10.3281 -13.9372,-11.99399 -13.37183,-3.29836 -28.12298,-0.34999 -40.61115,-7.1692 -6.327658,-5.86383 4.35978,-12.4054 10.08871,-10.37878 8.82186,-0.48985 18.0319,5.0322 26.46192,0.31468 8.20038,-3.78761 14.91225,-13.7643 11.45746,-22.81714 -4.50518,-7.10951 -13.3787,-9.41734 -21.12127,-11.00092 -18.97972,-2.72074 -36.983328,5.73384 -54.847967,10.61543 z"
       id="path4039"
       inkscape:connector-curvature="0" />
    <path
       style="fill:#f6f6f6;fill-opacity:1;stroke:none"
       d="m 202.38839,379.15179 c -19.5711,0.98053 -36.93864,10.96428 -54.3125,19 4.8088,36.27328 6.98773,72.98182 15.09375,108.75 10.04237,3.55486 20.62447,-6.5395 19.91473,-16.58523 1.37267,-8.68702 -0.99739,-17.52041 -4.75848,-25.32102 3.89036,-8.43202 16.20482,-10.72719 23.22661,-4.9036 18.92263,8.94858 33.47377,24.40457 50.06502,36.76001 7.25918,10.24643 26.44607,4.17736 26.44102,-8.39718 -2.23024,-10.58631 -12.79465,-16.35133 -22.29154,-19.37105 -13.82267,-6.31266 -28.28909,-16.19574 -31.94189,-31.90031 -0.79413,-9.51737 4.90503,-18.38624 8.15278,-25.58323 2.93801,-8.26881 0.84892,-13.62956 -3.83145,-19.64446 -5.73515,-7.96191 -15.39243,-15.30194 -25.75805,-12.80393 z m -7.78125,10.96875 c 16.34411,-0.25582 27.08645,22.03347 16.70757,34.66022 -8.89705,6.92345 -17.40043,15.90992 -29.13514,17.47493 -11.98713,-2.88162 -17.201,-16.64617 -16.24074,-27.87603 1.01474,-13.98978 14.81887,-25.30127 28.66831,-24.25912 z"
       id="path4353"
       inkscape:connector-curvature="0"
       sodipodi:nodetypes="cccccccccccccccccc" />
    <path
       style="fill:#f6f6f6;fill-opacity:1;stroke:none"
       d="m 118.64286,395.07143 c -13.09685,0.72681 -25.438688,5.71751 -37.843753,9.40625 -0.53084,31.3139 -6.285129,62.96535 -1.5,94.09375 9.472526,11.5652 26.079533,9.29363 39.375003,10.03125 10.16819,1.02147 23.98333,3.42087 30.59375,-6.46875 4.13834,-9.41411 -5.97674,-20.61822 -15.8125,-17.71875 -12.34929,0.30544 -28.55634,2.78181 -36.906253,-8.59375 -5.754885,-10.24622 6.783113,-24.34752 17.531253,-18.9375 11.50286,2.02454 26.95446,4.60728 34.96875,-6 -2.85546,-5.54277 -10.45367,-4.2657 -15.6875,-5.6875 -13.34254,-1.24261 -30.39748,0.006 -39.312503,-11.9375 -4.425485,-11.27603 9.399053,-21.82653 19.843753,-18.34375 9.0789,1.54696 21.88575,5.158 28.125,-4.03125 3.4418,-4.59509 0.9953,-11.85211 -4.84375,-12.71875 -5.77339,-2.71502 -12.21963,-3.23285 -18.53125,-3.09375 z"
       id="path4324"
       inkscape:connector-curvature="0" />
    <path
       style="fill:#000000;stroke:none"
       d="m 196.41071,228.55357 c -13.17044,0.33236 -26.6591,6.9802 -36.19196,16.57143 -5.11325,16.03867 -6.16969,32.952 -9.71734,49.36453 -4.28705,25.3133 -12.50982,53.83989 -16.74248,79.16226 30.57417,4.26747 64.77834,14.96531 95.95982,14.82142 13.66952,-2.5283 24.45599,-28.95363 18.27679,-40.33482 -3.52258,-8.16795 -17.85099,-11.36833 -26.87054,-10.25 -6.50319,-1.0604 -15.44372,0.83591 -19.40625,-4.88839 2.35547,-3.97377 8.35493,-5.28417 12.37161,-3.11409 10.66134,2.90204 28.16699,7.50268 37.49446,-0.34573 6.55932,-7.52899 1.97967,-23.17996 -2.22321,-31.08482 -8.32624,-11.25879 -27.15132,-3.41863 -37.26786,-11.61161 -3.13074,-2.28737 3.1355,-3.40855 4.65625,-4.3125 13.39683,-3.52938 33.95923,8.13827 45.64286,-1.76786 10.3356,-8.34641 11.23502,-32.31369 0.33035,-39.66518 -13.52535,-11.28797 -39.77119,-10.27199 -56.31087,-12.38294 -3.32971,-0.17689 -6.66774,-0.24004 -10.00163,-0.1617 z"
       id="path4235"
       inkscape:connector-curvature="0"
       sodipodi:nodetypes="ccccccccccccccccc" />
    <path
       style="fill:#eeeeee;stroke:none"
       d="m 160.71428,248.79075 c -7.46958,39.90077 -13.87222,79.98946 -20.71428,120 29.03456,4.45885 57.73489,12.48333 87.12753,13.76297 22.11106,-2.54601 19.41382,-34.95769 0.47054,-40.3223 -11.81975,1.16914 -43.84904,-7.16873 -18.65976,-15.81424 16.05515,4.95017 46.2883,12.35748 39.58104,-15.728 -2.46293,-22.71815 -32.58542,-10.89054 -40.16707,-25.54887 13.74393,-13.95707 38.06758,5.02892 50.8273,-11.6906 13.13172,-19.83297 -9.95334,-36.07182 -28.31014,-36.54841 -22.25454,-3.06957 -50.86571,-7.06813 -68.8198,9.00115 l -1.33536,2.8883 0,0 z"
       id="path3998"
       inkscape:connector-curvature="0" />
    <path
       style="fill:#f6f6f6;fill-opacity:1;stroke:none"
       d="m 196.01786,237.05804 c -9.20041,0.82378 -20.37267,2.34789 -26.17763,10.07169 -7.77099,36.9604 -22.51792,71.92489 -29.09023,109.14706 27.44048,3.76292 64.30841,16.31328 92.26786,13.53125 10.3441,-7.34846 3.23557,-27.34276 -9.77924,-25.15711 -10.59659,-0.59789 -24.25753,-2.99241 -28.28326,-14.31164 -0.40909,-12.25403 15.44478,-18.22367 25.21875,-13.03125 7.48516,1.82133 18.04907,5.73766 23.875,-1.25 3.32683,-9.20347 -4.99997,-19.72743 -14.67567,-18.90334 -9.72449,-1.39666 -23.41749,-4.40521 -25.26183,-15.81541 0.82943,-10.01044 12.89964,-12.90219 21.21875,-13.125 9.98715,-0.29782 22.5893,5.06453 30.5,-3.375 5.63859,-7.99009 -0.89416,-19.63207 -9.9375,-21.625 -15.60581,-6.71668 -33.23148,-5.36173 -49.875,-6.15625 z"
       id="path4094"
       inkscape:connector-curvature="0"
       sodipodi:nodetypes="cccccccccccccc" />
    <path
       style="fill:#cccccf;stroke:none"
       d="m 259.09375,250.53125 c 2.69528,5.61702 2.63393,12.25068 -2.0625,19.34375 -12.75972,16.71952 -37.06857,-2.26957 -50.8125,11.6875 0.65976,1.27558 1.50068,2.33534 2.46875,3.25 13.80185,-13.3112 37.84494,5.20738 50.5,-11.375 5.73442,-8.66075 4.57482,-16.62952 -0.0937,-22.90625 z m -14.03125,51.25 c 0.63585,1.53231 1.09024,3.29365 1.3125,5.34375 6.70726,28.08548 -23.5386,20.66892 -39.59375,15.71875 -10.51901,3.61035 -11.01761,7.16688 -7.21875,10 0.23926,-2.02162 2.91482,-4.22022 9.375,-6.4375 16.05515,4.95017 46.30101,12.36673 39.59375,-15.71875 -0.4216,-3.88889 -1.67796,-6.73578 -3.46875,-8.90625 z m -6.875,48.09375 c 5.46793,11.48891 2.01385,27.34337 -13.1875,29.09375 -28.48947,-1.24032 -56.34532,-8.7877 -84.46875,-13.3125 -0.17765,1.04226 -0.35303,2.08285 -0.53125,3.125 29.03456,4.45885 57.73236,12.50161 87.125,13.78125 16.86554,-1.94201 19.26461,-21.25017 11.0625,-32.6875 z"
       id="path4229"
       inkscape:connector-curvature="0" />
    <path
       style="fill:#000000;stroke:none"
       d="m 62.255076,377.99064 c -23.834581,0.88443 -44.402675,27.39748 -43.102464,51.184 C 17.28044,440.28468 15.56272,452.87801 8.59375,461.75 4.8059488,458.44956 4.677645,452.24109 2.5258553,447.89187 -3.2137425,428.73792 -7.0305252,403.60696 -25.578521,392.84962 c -9.405151,-4.96783 -23.666293,-4.03419 -32.780458,0.42735 -3.528583,0.1777 -15.295793,3.05186 -11.408205,7.60211 14.489694,35.59655 28.86891,78.46976 45.190248,113.21388 13.652973,17.71487 50.673611,28.28561 69.742546,14.27538 25.865045,-21.15265 32.669491,-61.04218 37.172271,-92.64451 1.551323,-11.06656 6.91151,-24.09359 6.827729,-35.33281 -2.399761,-10.69904 -15.398392,-22.95674 -26.910534,-22.40038 z"
       id="path4310"
       inkscape:connector-curvature="0"
       sodipodi:nodetypes="cccccccccccc" />
    <path
       style="fill:#000000;stroke:none"
       d="m -111.75,381.44643 c -44.13376,2.23566 -89.02718,51.16783 -84.58723,95.92355 0.45379,25.33823 22.17564,54.4858 44.91312,65.26395 20.91765,10.75023 46.54829,10.71499 67.875003,1.21875 30.086996,-11.60965 46.333858,-50.81155 46.736607,-81.97768 0.476987,-17.99546 -2.414993,-37.67702 -14.125,-51.84375 -15.458992,-15.9296 -38.931653,-29.01052 -60.8125,-28.58482 z m -9.72321,71.73214 c 13.46457,2.46365 30.323984,-1.46415 38.22321,11.75893 5.690943,14.36221 -8.631697,26.01932 -23.02679,26.05357 -12.56253,1.22821 -25.64987,0.72622 -33.97321,-8.92857 -7.47809,-12.72023 3.83985,-29.03405 18.77679,-28.88393 z"
       id="path4264"
       inkscape:connector-curvature="0"
       sodipodi:nodetypes="cccccccccccc" />
    <path
       style="fill:#000000;stroke:none"
       d="m -42.608979,226.11564 c -21.465422,5.43403 -29.74182,33.68134 -29.109771,54.19686 -0.785585,25.35317 0.0817,51.04932 -5.018218,75.96246 -1.41587,11.24469 -4.568181,29.02309 7.415108,34.06292 19.346241,7.27192 48.602962,-14.31942 44.888644,-34.17148 -0.682104,-11.20081 -8.404385,-24.07156 -5.254284,-35.01015 2.49107,-4.65382 8.323339,-0.95135 11.625,0.65625 13.5006274,7.74981 13.0359952,31.2266 28.135945,36.79061 11.477487,5.3533 28.163694,-3.68311 33.707805,-15.04061 6.074699,-10.91883 2.945889,-24.52217 -4.414979,-34.04843 C 25.728485,287.92188 19.560126,263.63376 5.7956865,242.17735 -8.2880745,238.02829 -28.167478,229.22531 -42.608979,226.11564 z m 6.233979,45.41561 c 6.9421,0.57994 10.56467,13.20985 3.46875,15.78125 -5.802245,-2.38765 -5.220084,-10.27473 -5.71875,-15.25 0.721777,-0.32864 1.479416,-0.41464 2.25,-0.53125 z"
       id="path4201"
       inkscape:connector-curvature="0"
       sodipodi:nodetypes="cccccccccccccccc" />
    <path
       style="fill:#eeeeee;stroke:none"
       d="m -40.316966,233.05357 c -19.71205,4.84277 -28.09644,26.59885 -28.31694,45.0213 -1.60646,23.14168 1.16708,46.61632 -4.07986,69.44342 -1.53548,12.9431 -5.23271,35.28287 12.0158,38.67985 18.2832,2.52501 34.856979,-16.8901 28.846109,-34.55433 0.24066,-10.88021 -6.283389,-29.8966 2.67853,-35.51249 15.58384,-1.58808 23.5355497,14.22323 30.9057297,25.1075 7.34964,14.65053 29.3194303,17.43831 38.0977403,2.61407 9.34926,-12.29948 1.49929,-27.43756 -6.40178,-38.0658 C 22.159563,285.9187 11.165553,265.86582 -0.00446729,245.92857 -13.439557,241.62988 -26.784127,237.04204 -40.316966,233.05357 z m -1.8125,37.875 c 11.569459,-9.90811 23.083179,13.75996 10.688079,19.51699 -9.571259,0.54898 -9.536839,-12.82221 -10.688079,-19.51699 z"
       id="path3976"
       inkscape:connector-curvature="0" />
    <path
       style="fill:#eeeeee;stroke:none"
       d="m -59.285714,401.6479 c 13.333332,34.52381 26.666667,69.04761 39.999997,103.57142 13.7001597,21.14868 47.826,30.16559 64.83992,7.73609 27.72547,-28.60464 26.89776,-70.92171 36.17738,-107.22885 -7.18655,-40.1333 -60.55791,-11.2135 -57.73957,19.32381 -1.75236,13.62646 -11.6326,63.82555 -23.95364029,29.02972 C -6.6079973,429.62345 -18.072117,384.06329 -52.670843,399.54113 l -3.322832,1.0446 -3.292039,1.06217 0,0 z"
       id="path4030"
       inkscape:connector-curvature="0" />
    <path
       style="fill:#cccccf;stroke:none"
       d="m -59.375,246.625 c -6.235148,8.97678 -9.122137,20.7547 -9.25,31.4375 -1.60646,23.14168 1.15319,46.64165 -4.09375,69.46875 -1.53548,12.9431 -5.21726,35.25927 12.03125,38.65625 12.100544,1.67115 23.417633,-6.2559 27.96875,-16.9375 -5.627721,7.41177 -14.784629,12.20811 -24.4375,10.875 -17.24851,-3.39698 -13.56673,-25.71315 -12.03125,-38.65625 5.24694,-22.8271 2.48729,-46.32707 4.09375,-69.46875 0.100721,-8.41507 1.909684,-17.4985 5.71875,-25.375 z m 26.09375,15.875 c -1.714014,0.10509 -3.504772,0.82686 -5.3125,2.375 0.193682,1.12631 0.3533,2.46882 0.53125,3.875 7.024582,-1.67094 12.932286,7.39597 11.84375,14.625 7.980203,-5.89209 1.642794,-21.40873 -7.0625,-20.875 z m 9.09375,47.46875 c -0.472304,0.0163 -0.950505,0.0441 -1.4375,0.0937 -2.274687,1.42541 -3.575534,3.7314 -4.21875,6.53125 0.213786,-0.165 0.421637,-0.32173 0.65625,-0.46875 15.58384,-1.58808 23.53607,14.24073 30.90625,25.125 7.34964,14.65053 29.34669,17.41799 38.125,2.59375 1.228396,-1.61602 2.139037,-3.27139 2.8125,-4.96875 -9.192533,13.57429 -30.212817,10.58936 -37.375,-3.6875 C -1.8586119,324.64331 -9.5460865,309.4626 -24.1875,309.9687 z"
       id="path4188"
       inkscape:connector-curvature="0" />
    <path
       style="fill:#000000;stroke:none"
       d="m 47.964286,205.42857 c -7.722456,1.4481 -17.5657,8.29792 -22.96857,13.35347 C 18.347322,256.85767 13.734198,297.76645 8,335.8125 c 5.061685,11.31408 15.816002,26.24316 29.955357,25.38393 13.377078,-0.13982 21.993677,-14.6184 19.575893,-26.92411 -0.327343,-7.29795 -4.186678,-15.97983 -3.84375,-23.30357 7.338961,11.68548 20.063556,28.36388 34.848214,24.21875 8.844975,-4.03041 13.281126,-18.91607 19.558036,-25.75 2.36148,-3.80797 0.53563,2.20615 0.65625,3.75 -1.95695,15.36668 -12.133887,32.57595 -5.28571,47.80804 8.97413,14.24697 34.67193,17.05653 46.35354,4.04237 6.5199,-28.89784 9.50326,-57.7896 16.84839,-86.52537 3.62688,-14.83813 7.57254,-33.07337 -4.06801,-44.25808 -11.16377,-11.95375 -32.85971,-21.47162 -48.98214,-23.00892 -9.39251,19.28338 -16.928418,37.1728 -26.276784,56.47767 C 84.964867,252.94806 88.49491,242.55 84.566964,228.16071 78.939565,215.61023 61.016571,206.49399 47.964286,205.42857 z"
       id="path4221"
       inkscape:connector-curvature="0"
       sodipodi:nodetypes="ccccccccccccccccc" />
    <path
       style="fill:#000000;stroke:none"
       d="m -127.42735,233.99064 c -26.08392,0.74389 -59.30895,17.58144 -69.98826,42.73319 -11.1702,22.01182 -11.74663,50.3766 2.96875,70.9375 10.1323,18.0338 30.15686,35.30961 52.16561,36.61992 25.55488,2.99404 53.791031,-1.02039 75.957805,-13.63087 19.419011,-15.60908 18.09297,-57.21515 -3.822652,-70.46716 -18.671938,-8.71337 -40.112213,3.9186 -59.072653,6.09803 -5.03898,-0.57164 -10.73758,3.23229 -9.2136,8.80857 -0.70105,7.86306 -4.44408,17.24065 -5.03561,25.11291 7.31156,-0.92406 17.65563,-3.34725 24.96796,-4.26523 -1.13173,6.87804 -7.16463,12.16612 -14.3125,10.9375 -13.81695,-0.69284 -24.67068,-14.50038 -21.71875,-28.125 1.46143,-14.30601 14.39363,-25.38299 28.5,-26.40625 14.69443,-2.63845 29.794931,1.92881 44.28125,1 5.405755,-6.071 13.123551,-10.52012 16.90625,-17.78125 -1.325435,-17.83798 -15.4116,-36.99748 -33.21569,-38.38408 -9.61305,-2.07936 -19.4808,-3.38196 -29.36791,-3.18778 z"
       id="path4193"
       inkscape:connector-curvature="0"
       sodipodi:nodetypes="ccccccccccccccccc" />
    <path
       style="fill:#f6f6f6;fill-opacity:1;stroke:none"
       d="m -41.325893,237.40179 c -16.431237,9.04642 -19.446532,30.02635 -18.375,47.15625 0.234865,26.70466 -2.412475,53.35934 -5.46875,79.8125 0.412311,6.71169 7.109751,13.03728 14.0625,10.1875 12.444484,-2.78563 18.880762,-17.96407 14.5625,-29.3125 -1.662548,-12.17693 -5.763937,-27.49656 3.71875,-37.5 9.964228,-7.09641 23.2566591,-0.20809 30.3437501,7.90625 8.2890528,8.51359 11.4415541,23.52175 24.2187499,26.65625 10.95552,1.85175 21.210967,-10.53309 16.4375,-20.90625 C 33.655323,306.60304 22.143109,295.36086 16.1462,281.24425 9.4984432,270.12038 4.0454558,257.49433 -3.4196429,247.33929 -15.904187,244.20441 -28.11458,236.30486 -41.325893,237.40179 z m 6.96875,19.84375 c 16.65114,-0.31952 23.764664,25.81797 9.78125,34.21875 -9.127099,5.46141 -19.417143,-3.98671 -21.0625,-12.9375 -2.705277,-7.12538 -2.001851,-17.73808 6.28125,-20.6875 1.614961,-0.61406 3.320271,-0.38181 5,-0.59375 z"
       id="path4098"
       inkscape:connector-curvature="0" />
    <path
       style="fill:#eeeeee;stroke:none"
       d="m -83.571426,290.93361 c 5.23809,-5 10.47619,-10 15.71428,-15 -4.66036,-30.78631 -28.05225,-31.43426 -47.857144,-34.28571 -19.37764,-2.78993 -40.91941,2.61349 -57.14285,13.57143 -13.26499,8.95968 -20.65687,25.83796 -24.28572,41.42857 -3.15332,13.54759 -1.71947,29.24952 5,41.42857 9.35334,16.95292 21.98537,36.51794 40.71429,41.42857 24.88418,6.52451 53.009124,-0.0691 76.428574,-10.71428 11.15809,-5.07186 17.85714,-19.88615 17.85714,-32.14286 0,-12.04912 -6.44744,-27.55556 -17.85714,-31.42857 -19.00428,-6.45099 -40.000004,3.33333 -60.000004,5 -0.71429,8.33333 -1.42857,16.66667 -2.14286,25 7.61905,-0.95238 15.23809,-1.90477 22.85714,-2.85715 -1.42857,4.04762 -2.85714,8.09524 -4.28571,12.14286 -10.95238,10.58612 -24.684,4.08627 -32.85714,-3.57143 -7.37152,-6.90663 -7.35429,-20.37583 -4.28572,-30 2.81333,-8.82361 11.23935,-16.28204 20,-19.28571 14.65288,-5.02388 30.92791,-2.82907 46.391184,-1.08536 1.91723,0.12369 3.83445,0.24738 5.75168,0.37107 z"
       id="path3963"
       inkscape:connector-curvature="0"
       sodipodi:nodetypes="ccssssssssccccssscc" />
    <path
       style="fill:#eeeeee;stroke:none"
       d="m -107.46429,390.72768 c -45.46885,0.61092 -85.78705,41.59398 -79.71875,88.21875 1.41433,46.19789 53.89262,74.70873 95.000004,58.25 49.797963,-12.47702 64.248549,-79.45278 42.96875,-120.5625 -11.923312,-16.15201 -32.419053,-22.88622 -51.500004,-25.6875 -2.25609,-0.16936 -4.51382,-0.2488 -6.75,-0.21875 z m -16.71875,55.125 c 17.78014,2.84783 50.008087,4.74365 44.656254,31.15625 -5.182819,22.07697 -34.499304,25.56796 -51.531254,15.4375 -24.73464,-7.71309 -15.35505,-42.60628 6.875,-46.59375 z"
       id="path4005"
       inkscape:connector-curvature="0" />
    <path
       style="fill:#f6f6f6;fill-opacity:1;stroke:none"
       d="m -126.04464,243.74554 c -24.54422,0.12137 -50.79164,13.65015 -58.6875,37.9375 -8.66692,20.37642 -5.07503,45.00774 8.6875,62.375 9.70194,16.23145 27.86384,28.98185 47.53125,26.53125 21.42867,-0.26081 44.168356,-5.0758 60.624997,-19.375 9.938014,-13.45021 7.645492,-37.02019 -8.96875,-43.96875 -16.665312,-4.10923 -33.426667,2.26784 -49.687497,5.375 0.95546,2.81273 -2.11191,9.72801 0.60631,10.08884 8.32338,-1.61307 16.9826,-1.64471 25.36244,-3.21384 -6.48237,10.06267 -6.11535,25.73667 -18.40625,31.09375 -21.96366,9.26054 -48.29706,-13.38235 -43.46875,-36.4375 1.72893,-21.91025 23.47191,-37.81876 44.78125,-36.78125 11.2197,-0.74088 22.427321,1.42272 33.562497,1.8125 3.471593,-4.20565 12.443351,-7.14717 10,-13.96875 -4.686131,-13.85789 -20.439249,-19.84387 -34.195487,-20.11661 -5.87017,-0.87173 -11.79747,-1.53341 -17.74201,-1.35214 z"
       id="path4100"
       inkscape:connector-curvature="0" />
    <path
       style="fill:#cccccf;stroke:none"
       d="m -187.0625,270.75 c -4.79807,7.94605 -8.05252,17.13653 -10.09375,25.90625 -3.15332,13.54759 -1.71947,29.2272 5,41.40625 9.35334,16.95292 21.98983,36.52687 40.71875,41.4375 24.88418,6.52451 53.01805,-0.0736 76.4375,-10.71875 6.022771,-2.73762 10.740264,-8.30104 13.8125,-14.78125 -2.915596,4.47623 -6.729676,8.1811 -11.28125,10.25 -23.41945,10.64518 -51.55332,17.24326 -76.4375,10.71875 -18.72892,-4.91063 -31.36541,-24.48458 -40.71875,-41.4375 -6.71947,-12.17905 -8.15332,-27.88991 -5,-41.4375 1.6622,-7.14128 4.11848,-14.54689 7.5625,-21.34375 z m 118.875,3.34375 -12.84375,12.28125 -5.78125,-0.34375 c -15.46328,-1.74371 -31.72212,-3.96138 -46.375,1.0625 -8.05112,2.7604 -15.79832,9.30037 -19.1875,17.1875 3.98164,-5.79629 10.21543,-10.4167 16.65625,-12.625 14.65288,-5.02388 30.94298,-2.83746 46.40625,-1.09375 l 5.75,0.375 15.71875,-15 c -0.09561,-0.63163 -0.232558,-1.23721 -0.34375,-1.84375 z M -132.84375,310 c -0.72065,0.0797 -1.43803,0.1589 -2.15625,0.21875 l -2.15625,25 22.875,-2.84375 -3.09375,8.75 c 0.44196,-0.36664 0.90999,-0.737 1.34375,-1.15625 l 4.28125,-12.15625 -22.875,2.875 1.78125,-20.6875 z"
       id="path4183"
       inkscape:connector-curvature="0" />
    <path
       style="fill:#eeeeee;stroke:none"
       d="m 10.714283,334.50504 c 6.90476,-37.38095 13.80953,-74.76191 20.71429,-112.14286 7.13143,-4.05925 12.99932,-14.15885 22.12539,-8.99876 14.18298,2.09428 26.94277,12.86585 26.00778,28.00894 1.81275,14.13946 3.62551,28.27893 5.43826,42.4184 10.47619,-21.66667 20.952377,-43.33333 31.428567,-65 15.18355,2.09333 30.15172,6.9552 40.16847,19.18485 12.758,11.56589 9.53354,31.7677 5.53766,46.87385 -5.97247,26.13696 -10.00954,52.66982 -14.72477,79.05272 -10.57511,12.06906 -36.26861,6.13883 -41.20757,-8.44965 -3.33909,-18.36529 8.51142,-37.82363 5.56381,-55.07171 -6.90155,8.32816 -13.462527,17.11273 -20.337597,25.55279 -19.03693,10.19765 -37.03946,-17.37975 -39.18268,-23.86897 -6.45026,17.19173 9.96242,46.65931 -12.46846,54.34465 -15.65948,4.26052 -23.35708,-10.37246 -29.06315,-21.90425 z"
       id="path3992"
       inkscape:connector-curvature="0" />
    <path
       style="fill:#f6f6f6;fill-opacity:1;stroke:none"
       d="m 48.455357,215.65179 c -6.269813,2.89278 -10.714399,9.02493 -10.424951,16.02938 -5.98335,32.46938 -11.966699,64.93875 -17.950049,97.40812 3.384455,7.79246 9.853624,18.56485 19.84375,16.3125 9.013052,-3.58724 8.416963,-15.5667 6.513574,-23.42348 -1.717466,-14.22009 -0.835337,-30.41804 9.486426,-41.35777 3.732494,15.07828 11.920788,33.07784 28.9375,36 10.09351,-1.23105 11.909598,-13.85736 19.125003,-19.34375 4.24964,-5.29648 8.53495,-10.56406 12.84375,-15.8125 10.21655,18.23327 0.36138,38.93796 -1.71875,57.75 -2.21446,8.7843 3.52975,18.3082 12.75,19.4375 5.9609,1.4739 16.55407,0.4808 15.93285,-7.81479 4.84213,-32.63284 14.12019,-64.60047 16.94215,-97.46646 -2.7865,-17.91074 -21.73307,-29.67798 -38.40625,-30.65625 -12.45649,26.52649 -25.767379,53.16023 -38.562503,79.71875 -6.428093,-25.33796 -4.261621,-52.43979 -12.59375,-77.25 -5.397608,-6.2898 -14.454514,-10.91034 -22.71875,-9.53125 z"
       id="path4096"
       inkscape:connector-curvature="0" />
    <path
       style="fill:#cccccf;stroke:none"
       d="M 116.4375,218.78125 87.96875,277.625 88.21875,279.5 117.5,218.9375 c -0.3539,-0.0519 -0.7083,-0.10742 -1.0625,-0.15625 z m -82.21875,1.6875 c -0.912367,0.70159 -1.834951,1.36761 -2.78125,1.90625 L 10.71875,334.5 c 5.70607,11.53179 13.40302,26.16677 29.0625,21.90625 5.083419,-1.7417 8.157064,-4.60478 9.96875,-8.1875 -1.719837,1.60213 -3.910193,2.93327 -6.75,3.90625 -15.65948,4.26052 -23.35643,-10.37446 -29.0625,-21.90625 l 20.28125,-109.75 z m 80.75,75.625 c -6.90155,8.32816 -13.43743,17.12244 -20.3125,25.5625 -19.03693,10.19765 -37.04428,-17.38578 -39.1875,-23.875 -0.908768,2.42212 -1.357555,5.09204 -1.53125,7.90625 5.305975,9.59847 21.013718,29.08133 37.5,20.25 6.87507,-8.44006 13.4422,-17.23434 20.34375,-25.5625 2.94761,17.24808 -8.93284,36.69721 -5.59375,55.0625 4.93896,14.58848 30.64364,20.53781 41.21875,8.46875 0.10026,-0.56098 0.18158,-1.12639 0.28125,-1.6875 -11.77111,8.39077 -33.7517,2.31668 -38.28125,-11.0625 -3.33909,-18.36529 8.51011,-37.81442 5.5625,-55.0625 z"
       id="path4216"
       inkscape:connector-curvature="0" />
    <path
       style="fill:#f6f6f6;fill-opacity:1;stroke:none"
       d="m -112.22321,396.14286 c -41.36587,2.70976 -75.57371,46.53309 -65.59375,87.46875 6.14185,31.6764 41.0343,52.66044 72.28125,46.59375 26.711095,-3.58329 50.403055,-24.5437 55.531246,-51.34375 5.253908,-20.43066 4.472664,-43.77519 -6.9375,-62 -12.691017,-16.11265 -35.3683,-21.24787 -55.281246,-20.71875 z m -11.09375,38.84375 c 17.74996,2.28849 39.32674,4.24551 49.781246,20.8125 10.999264,20.37308 -7.640231,47.25272 -30.031246,46.78125 -18.92429,2.16199 -41.83554,-5.7959 -48.46875,-25.03125 -4.94744,-18.77262 9.17962,-40.64911 28.71875,-42.5625 z"
       id="path4241"
       inkscape:connector-curvature="0" />
    <path
       style="fill:#cccccf;stroke:none"
       d="m -176.3125,430.21875 c -8.80284,14.17002 -13.1777,31.02631 -10.875,48.71875 1.41433,46.19789 53.89262,74.70873 95,58.25 19.279288,-4.83048 33.245286,-17.83957 41.90625,-34.34375 -8.75173,14.1086 -21.740748,25.01157 -39.03125,29.34375 -41.10739,16.45873 -93.58567,-12.05211 -95,-58.25 -2.03696,-15.65063 1.14332,-30.65307 8,-43.71875 z m 55,10.625 c -8.77841,1.57461 -15.53871,7.98848 -19,15.625 3.78578,-5.30834 9.35338,-9.41036 16.125,-10.625 17.78014,2.84783 50.008083,4.74365 44.65625,31.15625 -0.355163,1.51287 -0.836145,2.94134 -1.40625,4.28125 1.953829,-2.62338 3.440964,-5.70193 4.28125,-9.28125 5.351833,-26.4126 -26.87611,-28.30842 -44.65625,-31.15625 z"
       id="path4259"
       inkscape:connector-curvature="0" />
    <path
       style="fill:#f6f6f6;fill-opacity:1;stroke:none"
       d="m 60.516021,390.44495 c -17.369547,1.31411 -28.62034,19.87781 -27,36.25 -1.922844,15.77175 -5.912266,34.79332 -21.1875,42.71875 -11.70652592,3.81836 -23.025151,-6.62755 -25.409147,-17.61335 -6.734762,-16.97474 -7.226605,-39.11332 -24.090853,-50.0429 -1.530626,-1.11878 -7.528593,-2.5409 -6.03125,1.09375 14.916182,31.2442 20.977227,66.94594 41.2500002,95.40625 13.0888948,11.02147 35.4820568,5.68903 42.4062498,-9.84375 18.12911,-26.68057 19.957437,-60.00169 25.71875,-90.8125 -0.17318,-3.06323 -1.927864,-7.47946 -5.65625,-7.15625 z"
       id="path4272"
       inkscape:connector-curvature="0" />
    <path
       style="fill:#cccccf;stroke:none"
       d="m 79.875,399.03125 c -8.414239,35.51777 -8.484701,76.10175 -35.34375,103.8125 -17.01392,22.4295 -51.1123398,13.42993 -64.8125,-7.71875 l -36.40625,-94.3125 -2.59375,0.84375 40,103.5625 c 13.7001597,21.14868 47.82983,30.1795 64.84375,7.75 27.72547,-28.60464 26.87663,-70.94286 36.15625,-107.25 -0.44714,-2.49706 -1.063686,-4.70884 -1.84375,-6.6875 z"
       id="path4305"
       inkscape:connector-curvature="0" />
    <path
       style="fill:#cccccf;stroke:none"
       d="m 147.8125,400.46875 c 2.39134,8.69189 -4.06338,17.9232 -11.875,21.53125 -8.43002,4.71752 -17.64689,-0.80235 -26.46875,-0.3125 -5.72893,-2.02662 -16.421408,4.51117 -10.09375,10.375 0.308096,0.16824 0.6267,0.31216 0.9375,0.46875 0.0158,-4.48143 7.54503,-8.14951 12.03125,-6.5625 8.82186,-0.48985 18.03873,5.03002 26.46875,0.3125 8.20038,-3.78761 14.89229,-13.75966 11.4375,-22.8125 -0.706,-1.11413 -1.53811,-2.10602 -2.4375,-3 z m 5.96875,47.90625 c 0.21272,0.86367 0.28347,1.8102 0.15625,2.84375 -2.90881,9.20577 -13.16259,13.28085 -22.0625,13.84375 -7.94321,1.12234 -15.70917,-1.13728 -23.53125,-2.0625 -7.11781,-2.87304 -11.905113,8.04301 -5.625,11.78125 -0.60836,-4.42634 3.34325,-9.58147 8.5,-7.5 7.82208,0.92522 15.55679,3.21609 23.5,2.09375 8.89991,-0.5629 19.15369,-4.66923 22.0625,-13.875 0.38213,-3.10453 -0.92929,-5.38217 -3,-7.125 z m -1.34375,39.375 c 2.73578,5.56569 3.04319,12.47484 0.1875,18 -5.73585,9.04959 -17.60818,11.31762 -27.59375,10.5 -8.97645,-1.97273 -18.2098,-1.10959 -27.3125,-1.6875 -9.24553,-0.47482 -19.565969,-3.69879 -25.65625,-10.875 5.176726,10.2089 17.583719,14.59563 28.5,15.15625 9.1027,0.57791 18.33605,-0.28523 27.3125,1.6875 9.98557,0.81762 21.8579,-1.45041 27.59375,-10.5 3.65427,-7.07024 2.13342,-16.38846 -3.03125,-22.28125 z"
       id="path4340"
       inkscape:connector-curvature="0" />
    <path
       style="fill:#cccccf;stroke:none"
       d="m 189.90625,398.125 c -2.19704,0.0893 -4.43013,0.78068 -6.46875,2.09375 -5.0168,2.07396 -10.45503,4.65431 -11.46875,10.625 l -0.25,0.78125 -0.3125,0.71875 c 1.93568,5.33658 1.78729,13.76224 5.125,18.28125 -0.72321,-3.6429 -1.18638,-7.47391 -2.25,-10.40625 l 0.3125,-0.71875 0.25,-0.78125 c 1.01372,-5.97069 6.45195,-8.55104 11.46875,-10.625 2.32985,-1.50065 4.91202,-2.18718 7.40625,-2.09375 3.86206,0.14466 7.52862,2.124 9.8125,5.65625 0.17064,-2.43122 -0.53003,-4.89571 -2.375,-7.03125 -2.22327,-4.05433 -6.15544,-6.34429 -10.3125,-6.5 -0.31178,-0.0117 -0.62364,-0.0128 -0.9375,0 z m 56.5,11.125 c -0.0623,2.96246 -1.73304,5.88821 -5.9375,8.78125 -12.80594,9.14991 -13.42748,17.16431 -8.46875,24.125 -0.0884,-4.96606 3.10088,-10.36043 11.34375,-16.25 7.89521,-5.43261 6.75533,-11.06461 3.0625,-16.65625 z M 184.5,465.21875 c 1.71357,2.31308 2.96432,5.00288 3.78125,7.90625 19.78306,0.74071 37.30533,25.34517 56.09375,35.1875 19.74774,25.52845 52.39293,-3.53803 39.3125,-24.15625 2.38644,19.07031 -24.86696,38.672 -42.1875,16.28125 -19.07657,-9.99328 -36.84211,-35.21955 -57,-35.21875 z m 4.3125,10.125 c 4.40695,21.83751 -13.20525,53.24249 -36.65625,35.8125 0.32685,2.12229 0.63141,4.25413 0.96875,6.375 27.45722,23.21303 47.68558,-20.93757 35.6875,-42.1875 z"
       id="path4406"
       inkscape:connector-curvature="0" />
    <g
       id="g4064"
       transform="translate(-184.85792,38.385796)">
      <path
         sodipodi:nodetypes="ccccccccccccccc"
         inkscape:connector-curvature="0"
         id="path3874"
         d="m 462.53125,232.625 c -6.2653,-0.36503 -11.98721,4.68643 -13.25,10.4375 -6.49933,-7.06191 -22.63256,-4.71225 -23.86913,4.98477 -2.62135,8.84418 5.99917,23.17639 16.52538,21.14023 4.02945,-0.5826 10.68983,0.5738 9.8125,6.03125 19.125,54.98958 38.25,109.97917 57.375,164.96875 -6.30713,4.06116 -13.21116,18.38467 -5.98906,23.84803 6.55092,5.4574 21.73323,3.04533 25.70781,-5.94178 -0.054,-2.87678 2.31789,1.80905 4.375,1.375 9.0676,1.59467 20.0089,-5.84611 18.43671,-14.64102 1.56748,-5.81953 -5.37477,-14.42277 -11.90546,-14.01523 -3.31608,-0.9297 -9.43558,2.92162 -9.68333,-2.84996 -20.07431,-55.09168 -40.14861,-110.18336 -60.22292,-165.27504 6.4868,-3.41604 14.30278,-15.5331 8.64331,-22.06625 -2.7156,-5.1707 -9.26843,-8.45539 -15.95581,-7.99625 z"
         style="fill:#000000;stroke:none" />
      <path
         sodipodi:nodetypes="ccsssssssssccssssssssssc"
         inkscape:connector-curvature="0"
         id="path3872"
         d="m 452.04326,266.96858 60.60916,174.25131 c 0,0 -6.22621,5.01603 -7.57615,8.5863 -0.71452,1.88973 -0.9533,4.27966 0,6.06091 1.43215,2.676 4.62221,4.35343 7.57615,5.05076 3.96312,0.93557 9.06039,1.16978 12.12183,-1.51522 3.00865,-2.63871 -0.93834,-11.10353 3.03046,-11.61676 3.06513,-0.39637 1.71406,6.84265 4.54568,8.08122 3.32976,1.45646 8.04994,0.0577 10.6066,-2.52538 2.67201,-2.69959 2.39089,-7.31571 2.52538,-11.11168 0.0784,-2.21302 0.6216,-5.06899 -1.01015,-6.56599 -3.73005,-3.42203 -15.15229,-1.01015 -15.15229,-1.01015 L 466.1854,261.41274 c 0,0 8.10671,-4.92031 9.09137,-9.09138 0.73392,-3.10893 -1.40165,-6.34345 -3.03045,-9.09137 -1.64008,-2.76694 -3.52611,-6.01994 -6.566,-7.07107 -3.06064,-1.0583 -6.93121,-0.32435 -9.59645,1.51523 -2.2342,1.54207 -3.56262,4.39878 -4.04061,7.07107 -0.54095,3.02426 4.32054,7.83878 1.51523,9.09137 -3.93742,1.75808 -4.1533,-8.32231 -8.08122,-10.10152 -3.37739,-1.52984 -8.22078,-1.81654 -11.11168,0.50507 -3.53453,2.83849 -4.32852,8.66869 -3.53553,13.13199 0.61284,3.4493 4.04061,8.58629 6.06092,8.58629 2.0203,0 15.15228,1.01016 15.15228,1.01016 z"
         style="fill:#eeeeee;stroke:none" />
      <path
         sodipodi:nodetypes="cccccccccccccccc"
         inkscape:connector-curvature="0"
         id="path3820"
         d="m 616.34375,311.90625 c -9.15254,0.39012 -14.3046,9.54311 -17.6875,17.03125 -67.0865,11.00164 -134.00967,23.23924 -201.21875,33.34375 -4.04,0.19982 -8.24528,-2.92379 -7.375,-7.34375 -2.99713,-9.93635 -19.20948,-11.69669 -25.23906,-5.08788 -6.79301,6.26667 -5.27388,23.24148 4.48906,26.80663 2.788,0.54835 6.01527,-0.77329 8.34375,-1 -5.40406,3.75493 -13.51609,12.95236 -9.98398,20.21796 5.5014,14.70392 32.02495,10.72097 36.29648,-4.43671 1.37624,-2.34017 0.49849,-8.47872 4.71875,-7.46875 63.3125,-9.67708 126.625,-19.35417 189.9375,-29.03125 5.34431,8.52539 19.13211,19.38802 29.46542,14.30663 7.4527,-2.34516 14.13663,-12.31068 10.34708,-21.05663 -1.21081,-2.2164 -3.72417,-3.41418 -5.84375,-4.34375 7.14177,-2.44467 18.65782,-13.36468 15.09042,-21.66053 -5.60166,-9.46761 -20.99164,-9.47019 -31.34042,-10.27697 z"
         style="fill:#000000;stroke:none" />
      <path
         sodipodi:nodetypes="ccssssssssccssssssssssc"
         inkscape:connector-curvature="0"
         id="path3818"
         d="M 401.42857,365.21932 600.71429,331.6479 c 0,0 5.4918,-13.12491 11.42857,-15.71429 5.49514,-2.39676 12.39054,-0.3183 17.85714,2.14286 5.22861,2.35402 12.97443,5.69568 12.85714,11.42857 -0.13844,6.76652 -9.15466,11.1909 -15.71428,12.85714 -4.93323,1.25311 -13.42775,-7.69812 -15,-2.85714 -2.76363,8.50927 22.12666,2.74618 24.28571,11.42857 1.14914,4.62117 -4.48244,8.9881 -8.57143,11.42857 -4.13473,2.46777 -9.6924,3.58765 -14.28571,2.14286 C 607.62701,362.63527 600,351.6479 600,351.6479 l -196.42857,30 c 0,0 -2.36367,12.51023 -7.14286,15.71428 -5.34329,3.58223 -13.75183,3.99444 -19.28571,0.71429 -3.6639,-2.17174 -6.28578,-7.20791 -5.71429,-11.42857 0.4298,-3.17428 4.39414,-4.66862 6.42857,-7.14286 1.51218,-1.83909 5.29416,-3.55744 4.28572,-5.71429 -1.91869,-4.10368 -9.99339,2.06407 -13.57143,-0.71428 -3.15242,-2.44785 -4.27185,-7.49931 -3.57143,-11.42857 0.6853,-3.84445 3.69167,-7.45849 7.14286,-9.28572 3.58336,-1.89721 8.63266,-2.74369 12.14285,-0.71428 3.68728,2.13179 2.31398,8.86371 5.71429,11.42857 3.09433,2.33405 11.42857,2.14285 11.42857,2.14285 z"
         style="fill:#eeeeee;stroke:none" />
      <path
         id="path3939"
         d="m 469.03125,269.21875 c -4.69201,1.45333 -9.52508,2.85923 -14.84375,3.90625 l 27.34375,78.59375 -52.5,8.84375 c 1.55333,0.89083 3.10618,1.65064 4.4375,2.34375 -3.85438,5.69681 -13.94528,1.58821 -17.0625,8.6875 -1.12529,2.73656 -1.09185,5.50538 -0.3125,8.15625 l 71.375,-10.90625 20.6875,59.46875 c 6.43846,-0.3122 13.38686,-4.07331 15.21875,-9.96875 L 504.40625,366.25 l 87.875,-13.40625 c -0.4772,-5.04866 -0.16411,-9.99961 1.125,-15.40625 -0.0507,-1.5087 -0.19113,-3.00067 -0.34375,-4.5 l -94.96875,16 -29.0625,-79.71875 z"
         style="fill:#77503d;fill-opacity:0.30316743;stroke:none"
         inkscape:connector-curvature="0" />
      <path
         sodipodi:nodetypes="sccccccccccccccccccccccs"
         inkscape:connector-curvature="0"
         id="path3783"
         d="m 491.53346,262.13091 c -13.7196,2.18942 -23.53241,7.19191 -37.02232,9.74107 -6.40344,1.84717 -14.88512,6.98547 -13.96875,14.65625 0.60371,2.81672 4.44262,5.37552 1.0625,7.8125 -9.4772,14.48856 -17.88496,32.54984 -15.98661,49.98214 1.55999,4.8633 7.08138,7.23133 10.71875,9.125 -3.50757,5.18422 -12.69452,1.44575 -15.53125,7.90625 -3.69733,8.99139 6.05726,18.22077 13.70536,22.29911 6.33491,3.82437 14.35875,1.49184 18.71875,-4.0625 3.47637,-3.31862 6.75472,-9.32847 11.78125,-9.5 -1.29814,4.29407 -7.13203,5.63942 -10.03125,8.84375 -5.38641,3.39306 -9.51853,14.11608 -4.05357,18.71875 7.05332,7.67008 25.25841,5.56677 28.80357,-5.8125 1.43729,-3.31069 1.81559,-8.78811 5.40625,-10.1875 1.04988,5.49426 -4.09682,10.52875 -3.03125,16.28125 0.17457,8.91391 11.87522,14.20621 19.22321,14.89286 8.06373,1.21167 19.03745,-4.6638 17,-13.9375 -0.86017,-3.75778 -4.40238,-7.7325 -3.1875,-11.6875 2.6828,5.65392 5.91045,14.83417 13.9375,12.84375 16.15476,-3.90731 26.44015,-18.99171 37.68304,-30.04911 10.02735,1.17005 18.81483,-9.77934 15.125,-19.25 -1.5476,-7.01169 -1.73146,-13.28649 -0.0179,-20.47321 -1.12465,-33.48183 -30.32697,-64.98428 -63.60714,-67.42411 -6.85316,-0.8466 -14.76557,-2.62771 -26.72768,-0.71875 z"
         style="fill:#000000;stroke:none" />
      <path
         sodipodi:nodetypes="sssssssssssssssss"
         inkscape:connector-curvature="0"
         id="path2996"
         d="m 440.85936,355.14934 c 6.57734,-14.32953 -22.3454,8.32894 -5.35715,-42.5 3.92334,-11.73866 14.8,-28.26149 26.42858,-32.5 23.76373,-8.66166 53.29114,-6.70221 75.71428,5 15.54302,8.11161 26.36315,24.7861 32.85714,41.07143 3.6729,9.21073 2.3931,25.46796 -2.14286,34.28571 -7.03253,13.67098 -27.71189,32.00212 -42.85714,34.64286 -7.40619,1.29135 -8.73914,-18.65387 -13.92857,-13.21429 -5.91949,6.20483 6.15373,14.79888 0.71429,21.42857 -5.44154,6.63224 -19.68401,5.03043 -25.71429,-1.07143 -5.60914,-5.67573 6.87794,-21.47205 -0.71428,-23.92857 -7.43082,-2.4043 -6.7802,16.41158 -14.28572,18.57143 -6.58797,1.89581 -17.21694,-0.60713 -19.28571,-7.14285 -2.66068,-8.40572 20.90617,-15.23954 15,-21.78572 -6.81644,-7.55508 -16.81096,16.65465 -26.78572,14.64285 -8.05552,-1.62471 -17.05676,-11.24566 -15.35714,-19.28571 1.22245,-5.78277 13.24864,-2.84256 15.71429,-8.21428 z"
         style="fill:#eeeeee;stroke:none" />
      <path
         sodipodi:nodetypes="sccsscs"
         inkscape:connector-curvature="0"
         id="path3814"
         d="m 542.82364,369.43506 c 3.10674,-10.36756 8.09651,-22.80612 2.85714,-50.89286 l 24.46429,39.82143 c 0,0 -12.00175,13.5276 -18.92857,19.28571 -5.90339,4.90735 -11.91398,10.17563 -19.10714,12.85714 -2.30369,0.85878 -4.97581,1.62944 -7.32143,0.89286 8.66171,-5.9318 17.20679,-19.19806 18.03571,-21.96428 z"
         style="fill:#dacbc1;fill-opacity:1;stroke:none" />
      <path
         sodipodi:nodetypes="csssccc"
         inkscape:connector-curvature="0"
         id="path3004"
         d="m 457.85164,278.83787 c 0,0 13.71062,-9.8038 28.5368,-11.36422 23.21015,-2.4428 47.85506,-0.7344 65.40738,14.64722 13.96722,12.23989 25.07899,31.19738 24.24367,49.75001 -0.49959,11.09597 -4.79823,25.75889 -4.79823,25.75889 L 525.7844,297.02062 z"
         style="fill:#980101;stroke:none" />
      <path
         sodipodi:nodetypes="ccssc"
         inkscape:connector-curvature="0"
         id="path2998"
         d="m 455.25536,317.10663 42.64706,2.13235 c 0,0 -10.32991,16.64144 -18.88656,19.80043 -4.6918,1.73214 -10.89115,1.43145 -14.92647,-1.52312 -5.9813,-4.37938 -8.83403,-20.40966 -8.83403,-20.40966 z"
         style="fill:#000000;stroke:none" />
      <path
         sodipodi:nodetypes="ccssc"
         inkscape:connector-curvature="0"
         id="path3000"
         d="m 508.74941,324.60045 24.20446,44.65303 c 0,0 -23.34987,1.6675 -31.71618,-5.00781 -4.6845,-3.73765 -7.19536,-10.7223 -6.6771,-16.69273 0.77785,-8.96099 14.18882,-22.95249 14.18882,-22.95249 z"
         style="fill:#000000;stroke:none" />
      <path
         inkscape:connector-curvature="0"
         id="path3774"
         d="m 512.63614,267.37198 c -0.58115,0.015 -1.17007,0.0459 -1.75,0.0937 -5.55383,0.45845 -14.06295,1.20362 -17.59375,5 26.588,6.31302 54.69288,23.76056 71.5625,44.8125 0.54424,-0.28178 1.08476,-0.62333 1.59375,-1.0625 5.38738,-4.64832 -0.43584,-14.82841 -4.03125,-20.96875 -5.40262,-9.22675 -15.01058,-15.76084 -24.5,-20.6875 -7.74676,-4.02191 -16.56395,-7.41323 -25.28125,-7.1875 z"
         style="fill:#d40000;stroke:none" />
      <path
         sodipodi:nodetypes="ccssssc"
         inkscape:connector-curvature="0"
         id="path3002"
         d="m 447.28793,291.22077 c 19.68483,-23.65256 125.28502,38.46753 117.5,75.35714 0,0 4.27584,0.90001 7.5,-0.35714 2.90291,-1.13188 7.1458,-5.09852 7.14285,-8.21429 -0.0458,-48.53344 -84.17329,-100.05745 -128.57143,-81.42857 -3.5008,1.4689 -7.2259,4.78486 -7.5,8.57143 -0.17404,2.40424 3.92858,6.07143 3.92858,6.07143 z"
         style="fill:#980101;stroke:none" />
      <path
         style="fill:#d40000;stroke:none"
         d="m 449.30824,287.18016 c 27.10337,-22.90904 125.229,39.47243 117.44398,76.36204 0,0 4.81155,-0.70714 8.03571,-1.96429 2.90291,-1.13188 4.83546,-5.1474 4.28571,-8.21429 -8.7958,-49.06915 -82.38758,-95.9503 -126.78572,-77.32142 -3.5008,1.4689 -6.63416,4.49425 -6.90826,8.28082 -0.17404,2.40424 3.92858,2.85714 3.92858,2.85714 z"
         id="path3779"
         inkscape:connector-curvature="0"
         sodipodi:nodetypes="ccssssc" />
      <path
         sodipodi:nodetypes="ccc"
         inkscape:connector-curvature="0"
         id="path3804"
         d="m 450.85935,331.93505 c 20.72975,23.54979 32.15789,6.40503 45.71429,-1.42857 -17.74766,26.5756 -32.72559,24.34606 -45.71429,1.42857 z"
         style="fill:#dacbc1;fill-opacity:1;stroke:none" />
      <path
         sodipodi:nodetypes="ccc"
         inkscape:connector-curvature="0"
         id="path3806"
         d="m 490.14507,348.00648 c -3.96669,23.08058 6.83884,32.61996 37.14286,24.28572 -18.64884,0.95838 -35.39097,-0.83739 -37.14286,-24.28572 z"
         style="fill:#dacbc1;fill-opacity:1;stroke:none" />
      <path
         sodipodi:nodetypes="csscssc"
         inkscape:connector-curvature="0"
         id="path3808"
         d="m 438.35935,358.89934 c 0,0 -7.70036,6.29334 -7.32142,8.21428 0.74239,3.76341 4.12912,7.11683 7.67857,8.57143 3.53188,1.4474 10.53571,0 10.53571,0 0,0 -7.45564,4.88339 -11.42857,4.10715 -4.5507,-0.88913 -10.85598,-9.17451 -11.60714,-13.75001 -0.50953,-3.10365 12.14285,-7.14285 12.14285,-7.14285 z"
         style="fill:#dacbc1;fill-opacity:1;stroke:none" />
      <path
         sodipodi:nodetypes="csssscssssc"
         inkscape:connector-curvature="0"
         id="path3810"
         d="m 461.57364,380.68505 c 0,0 -6.02016,2.8794 -7.14286,5.71429 -0.61991,1.56531 -0.32978,3.67925 0.71429,5 2.41973,3.06097 6.99755,4.05939 10.89286,4.28571 2.08999,0.12143 4.52921,-0.19138 6.07142,-1.60714 2.46882,-2.26639 3.39286,-9.46428 3.39286,-9.46428 0,0 -3.53455,5.69719 -6.42857,6.96428 -1.58127,0.69233 -3.50152,0.40894 -5.17857,0 -1.75881,-0.42888 -3.9555,-0.91018 -4.82143,-2.5 -0.60061,-1.1027 0.0299,-2.53774 0.35714,-3.75 0.44425,-1.64559 2.14286,-4.64286 2.14286,-4.64286 z"
         style="fill:#dacbc1;fill-opacity:1;stroke:none" />
      <path
         sodipodi:nodetypes="cssssscssssc"
         inkscape:connector-curvature="0"
         id="path3812"
         d="m 490.14507,389.43505 c 0,0 -2.49999,5.09151 -1.96429,7.67858 0.47318,2.28513 2.3519,4.22955 4.28572,5.53571 3.07609,2.07767 7.0666,3.72381 10.71428,3.03571 2.12915,-0.40164 4.00342,-2.10824 5.17858,-3.92857 1.15908,-1.79543 1.56105,-4.11705 1.42857,-6.25 -0.17276,-2.78147 -2.85715,-7.85714 -2.85715,-7.85714 0,0 0.66,5.94445 -0.71428,8.39286 -1.08387,1.93102 -3.1798,3.52505 -5.35714,3.92857 -2.00194,0.37101 -4.18497,-0.49875 -5.89286,-1.60714 -1.4193,-0.9211 -2.40554,-2.4424 -3.21429,-3.92858 -0.83679,-1.53771 -1.60714,-5 -1.60714,-5 z"
         style="fill:#dacbc1;fill-opacity:1;stroke:none" />
      <path
         sodipodi:nodetypes="cssscssc"
         inkscape:connector-curvature="0"
         id="path3816"
         d="m 434.60935,324.97077 c 0,0 3.99514,-15.21539 7.85715,-21.96429 3.04335,-5.31828 6.30433,-11.36843 11.78571,-14.10714 4.10558,-2.0513 9.20556,-1.35592 13.75,-0.71429 10.47528,1.479 30,10.35715 30,10.35715 0,0 -22.43417,-4.07093 -33.03571,-1.07143 -7.68858,2.17534 -14.22857,7.68826 -20,13.21428 -4.24835,4.06771 -10.35715,14.28572 -10.35715,14.28572 z"
         style="fill:#f6f6f6;fill-opacity:1;stroke:none" />
      <path
         sodipodi:nodetypes="sssssssss"
         inkscape:connector-curvature="0"
         id="path3832"
         d="m 369.71583,369.7516 c -1.38263,-1.04541 -2.34492,-2.82175 -2.52538,-4.54569 -0.1192,-1.13874 -0.0841,-2.94597 1.01015,-3.28299 1.54539,-0.47598 2.44525,2.12956 3.78808,3.03045 1.43943,0.9657 3.28299,2.52539 4.54568,2.52539 1.26269,0 3.40842,-0.7109 3.78807,0.50507 0.37296,1.19455 -1.62752,2.0328 -2.77792,2.52538 -1.08614,0.46506 -2.35779,0.34683 -3.53553,0.25254 -1.46544,-0.11733 -3.12049,-0.1235 -4.29315,-1.01015 z"
         style="fill:#dacbc1;fill-opacity:1;stroke:none" />
      <path
         inkscape:connector-curvature="0"
         id="path3836"
         d="m 380.35714,388.43361 c -7.01985,0.21419 -3.33945,10.27561 2.31437,9.87581 5.63971,0.94537 11.61486,-2.73511 14.33582,-7.51974 2.72128,-4.22707 -2.65341,-6.28241 -5.32364,-3.10543 -3.49887,1.72439 -7.63105,2.00656 -11.32655,0.74936 z"
         style="fill:#dacbc1;fill-opacity:1;stroke:none" />
      <path
         inkscape:connector-curvature="0"
         id="path3849"
         d="m 610.53572,355.57647 c -4.06157,3.9135 3.4241,7.09121 6.85429,6.35342 5.61676,0.54914 12.13693,-2.13523 13.99229,-7.80588 -0.75278,-6.44368 -7.84639,-2.16614 -11.24951,-0.61786 -3.08882,1.22343 -6.5394,0.90334 -9.59707,2.07032 z"
         style="fill:#dacbc1;fill-opacity:1;stroke:none" />
      <path
         inkscape:connector-curvature="0"
         id="path3859"
         d="m 627.85714,321.46932 c 5.1828,-1.018 9.83413,3.88557 9.47136,8.9549 0.42432,4.63631 -3.56831,7.98271 -7.69027,9.04505 -2.21967,1.14805 -9.7305,0.93768 -6.85394,-2.71839 3.43263,-1.49347 9.5554,-2.02266 9.16333,-7.0701 0.14443,-3.70984 -5.86119,-4.26267 -4.09048,-8.21146 z"
         style="fill:#dacbc1;fill-opacity:1;stroke:none" />
      <path
         inkscape:connector-curvature="0"
         id="path3882"
         d="m 435,251.82647 c 4.01362,4.43654 12.34181,2.23878 14.87516,8.37693 -1.00249,6.94943 -11.83329,4.5222 -14.95381,0.0971 -1.78215,-2.41745 -2.4118,-6.27938 0.0786,-8.47398 z"
         style="fill:#dacbc1;fill-opacity:1;stroke:none" />
      <path
         inkscape:connector-curvature="0"
         id="path3900"
         d="m 470.17857,248.79075 c -0.66474,2.77885 -3.36655,4.17562 -5.30836,5.9592 -2.01179,1.69013 -0.32532,4.68205 2.06008,3.11177 2.03746,-0.49593 4.06446,-1.57764 4.86892,-3.63653 0.7617,-1.68306 1.7362,-4.31053 -0.0211,-5.68102 -0.5292,-0.23466 -1.12682,-0.0151 -1.59958,0.24658 z"
         style="fill:#dacbc1;fill-opacity:1;stroke:none" />
      <path
         inkscape:connector-curvature="0"
         id="path3910"
         d="m 509.64286,448.25504 c -2.17064,1.71966 -2.0806,5.19171 -0.25131,7.13126 1.47912,2.18768 4.17279,2.40268 6.37016,3.34571 2.66404,1.03082 6.42984,0.63018 7.84506,-2.1597 0.45002,-1.78525 1.3044,-4.39007 -0.18405,-5.84021 -1.83961,-1.13551 -2.75448,1.1716 -3.64524,2.32511 -1.9308,2.12694 -5.66129,1.28842 -6.93664,-1.14869 -1.10808,-1.14925 0.0637,-3.38844 -1.61456,-3.99503 -0.54309,-0.12775 -1.14195,-4.5e-4 -1.58342,0.34155 z"
         style="fill:#dacbc1;fill-opacity:1;stroke:none" />
      <path
         inkscape:connector-curvature="0"
         id="path3926"
         d="m 531.07143,445.3979 c 3.81944,2.37039 8.25265,-2.88157 11.64597,-0.32977 2.3356,3.98041 -2.69674,7.92039 -6.5382,7.27496 -3.53224,0.0323 -6.49432,-3.55176 -5.10777,-6.94519 z"
         style="fill:#dacbc1;fill-opacity:1;stroke:none" />
    </g>
  </g>
</svg>
