<?xml version="1.0" encoding="UTF-8" standalone="no"?>
<!-- Generator: Adobe Illustrator 16.0.0, SVG Export Plug-In . SVG Version: 6.00 Build 0)  -->

<svg
   xmlns:dc="http://purl.org/dc/elements/1.1/"
   xmlns:cc="http://creativecommons.org/ns#"
   xmlns:rdf="http://www.w3.org/1999/02/22-rdf-syntax-ns#"
   xmlns:svg="http://www.w3.org/2000/svg"
   xmlns="http://www.w3.org/2000/svg"
   xmlns:sodipodi="http://sodipodi.sourceforge.net/DTD/sodipodi-0.dtd"
   xmlns:inkscape="http://www.inkscape.org/namespaces/inkscape"
   version="1.1"
   x="0px"
   y="0px"
   width="256"
   height="256"
   viewBox="0 0 256 256"
   enable-background="new 0 0 82.5 66.26"
   xml:space="preserve"
   id="svg2"
   inkscape:version="0.48.4 r9939"
   sodipodi:docname="bonhomme.svg"
   inkscape:export-filename="C:\Users\Nicolas\Desktop\PA\cf_heritage\Design\Gentil-Morceaux\bonhomme.png"
   inkscape:export-xdpi="90"
   inkscape:export-ydpi="90"><metadata
   id="metadata36"><rdf:RDF><cc:Work
       rdf:about=""><dc:format>image/svg+xml</dc:format><dc:type
         rdf:resource="http://purl.org/dc/dcmitype/StillImage" /><dc:title></dc:title></cc:Work></rdf:RDF></metadata><defs
   id="defs34" /><sodipodi:namedview
   pagecolor="#ffffff"
   bordercolor="#666666"
   borderopacity="1"
   objecttolerance="10"
   gridtolerance="10"
   guidetolerance="10"
   inkscape:pageopacity="0"
   inkscape:pageshadow="2"
   inkscape:window-width="1440"
   inkscape:window-height="837"
   id="namedview32"
   showgrid="false"
   inkscape:zoom="1.9169014"
   inkscape:cx="138.35987"
   inkscape:cy="132.07078"
   inkscape:window-x="-8"
   inkscape:window-y="-8"
   inkscape:window-maximized="1"
   inkscape:current-layer="layer5" />
<g
   id="sous_cul"
   display="none"
   style="display:none"
   transform="translate(0,189.74)">
</g>
<g
   id="Layer_6"
   transform="translate(0,189.74)">
</g>
<g
   id="FOOT"
   transform="translate(0,189.74)">
</g>

<g
   id="BRAS"
   transform="translate(0,189.74)">
</g>
<g
   id="HEAD"
   transform="translate(0,189.74)">
</g>
<g
   inkscape:groupmode="layer"
   id="layer1"
   inkscape:label="Foot 2"
   transform="translate(0,189.74)"><g
     transform="translate(40.263436,-104.26651)"
     id="FOOT-7"><path
       style="fill:#ffe3a7"
       inkscape:connector-curvature="0"
       d="m 27.917,11.48 c 0,0 -5.573,4.442 -10.241,4.443 C 12.25,15.924 7.303,14.12 4.667,12.262 1.167,9.795 0.917,5.253 5.25,5.465 c 3.164,0.154 14.833,0.246 18.5,-1.004 3.667,-1.25 7.75,3.954 4.167,7.019 z"
       id="path7" /><path
       style="fill:#e3c78b"
       inkscape:connector-curvature="0"
       d="m 25.123,4.278 c 3.192,0.195 5.931,4.519 2.794,7.202 0,0 -5.573,4.442 -10.241,4.443 C 12.25,15.924 7.303,14.12 4.667,12.262 1.167,9.795 0.917,5.253 5.25,5.465 c 0,0 -3.23,-0.212 -1.932,1.924 1.262,2.073 7.396,3.255 11.432,2.711 3.188,-0.43 8.625,-3.207 9.375,-3.617 0.75,-0.41 0.998,-2.205 0.998,-2.205 z"
       id="path9" /></g></g><g
   inkscape:groupmode="layer"
   id="layer3"
   inkscape:label="Foot 1"
   transform="translate(0,189.74)"><g
     transform="translate(-27.514746,25.491848)"
     id="Layer_6-4" /><g
     transform="translate(39.694416,-162.29675)"
     id="FOOT-8"><path
       style="fill:#ffe3a7"
       inkscape:connector-curvature="0"
       d="m 26.548,17.698 c 0,0 -6.68,2.489 -11.116,1.04 C 10.275,17.052 6.134,13.8 4.206,11.215 1.646,7.782 2.819,3.387 6.872,4.936 c 2.96,1.13 14.021,4.844 17.896,4.795 3.874,-0.048 6.137,6.166 1.78,7.967 z"
       id="path7-8" /><path
       style="fill:#e3c78b"
       inkscape:connector-curvature="0"
       d="m 26.13,9.984 c 2.974,1.178 4.232,6.138 0.418,7.714 0,0 -6.631,3.032 -12.547,1.158 C 8.829,17.217 6.134,13.8 4.206,11.214 1.646,7.782 2.819,3.387 6.872,4.936 c 0,0 -3.455,-0.83 -2.038,0.753 1.705,1.905 6.624,4.867 10.628,5.604 3.162,0.582 8.193,0.633 9.034,0.476 0.841,-0.156 1.634,-1.785 1.634,-1.785 z"
       id="path9-2" /></g><g
     transform="translate(-27.514746,25.491848)"
     id="BODY-45" /><g
     transform="translate(-27.514746,25.491848)"
     id="BRAS-5" /><g
     transform="translate(-27.514746,25.491848)"
     id="HEAD-1" /></g><g
   inkscape:groupmode="layer"
   id="layer2"
   inkscape:label="Body"
   transform="translate(0,189.74)"><g
     transform="translate(-23.522232,21.123937)"
     id="Layer_6-1" /><g
     transform="translate(-23.522232,21.123937)"
     id="BODY-4" /><g
     transform="translate(-23.522232,21.123937)"
     id="BRAS-0" /><g
     transform="translate(-23.522232,21.123937)"
     id="HEAD-9" /><g
     id="BODY"
     transform="translate(22.432034,-24.518732)"><path
       style="fill:#ffffff"
       inkscape:connector-curvature="0"
       d="m 11.833,6.167 c 0.526,-0.023 37.5,-1.5 52.667,1 15.167,2.5 13.666,9.5 13.333,17.5 -0.333,8 -2.5,20.501 -4.333,25.667 C 71.667,55.5 67.333,61.668 62,62.334 56.667,63 22.834,62.167 15.667,59.167 8.5,56.167 4.334,54.001 4.5,45.834 4.666,37.667 4.156,18.333 4.495,14.5 4.834,10.667 6.673,6.398 11.833,6.167 z"
       id="path8" /><g
       id="g10"><path
         style="fill:#003b73"
         inkscape:connector-curvature="0"
         d="M 59,6.595 C 58,6.441 56,6.312 54,6.203 v 56.346 c 2,0.003 4,-0.023 5,-0.077 V 6.595 z"
         id="path12" /><path
         style="fill:#003b73"
         inkscape:connector-curvature="0"
         d="M 49,5.955 C 48,5.893 46,5.846 44,5.809 v 56.547 c 2,0.06 4,0.104 5,0.136 V 5.955 z"
         id="path14" /><path
         style="fill:#003b73"
         inkscape:connector-curvature="0"
         d="M 39,5.733 C 38,5.718 36,5.711 34,5.713 v 56.153 c 2,0.106 4,0.201 5,0.281 V 5.733 z"
         id="path16" /><path
         style="fill:#003b73"
         inkscape:connector-curvature="0"
         d="m 24,60.999 c 2,0.183 4,0.348 5,0.497 V 5.742 c -1,0.017 -3,0.04 -5,0.068 v 55.189 z"
         id="path18" /><path
         style="fill:#003b73"
         inkscape:connector-curvature="0"
         d="M 9,6.451 C 6,7.495 4.29,11.162 3.995,14.5 3.656,18.333 3.916,37.667 3.75,45.834 3.635,51.516 6,54.292 9,56.466 V 6.451 z"
         id="path20" /><path
         style="fill:#003b73"
         inkscape:connector-curvature="0"
         d="M 64,7.257 V 61.356 C 68,59.29 71.525,54.491 73,50.335 74.833,45.169 76.75,32.668 77.083,24.668 77.412,16.758 79,9.83 64,7.257 z"
         id="path22" /><path
         style="fill:#003b73"
         inkscape:connector-curvature="0"
         d="m 19,5.914 c -1,0.049 -3,0.099 -5,0.141 v 52.83 c 1,0.094 0.438,0.187 0.667,0.282 C 15.651,59.579 18,59.949 19,60.281 V 5.914 z"
         id="path24" /></g><path
       style="fill:none;stroke:#003b73;stroke-width:2;stroke-miterlimit:10"
       inkscape:connector-curvature="0"
       stroke-miterlimit="10"
       d="m 11.833,6.167 c 0.526,-0.023 37.5,-1.5 52.667,1 15.167,2.5 13.666,9.5 13.333,17.5 -0.333,8 -2.5,20.501 -4.333,25.667 C 71.667,55.5 67.333,61.668 62,62.334 56.667,63 22.834,62.167 15.667,59.167 8.5,56.167 4.334,54.001 4.5,45.834 4.666,37.667 4.156,18.333 4.495,14.5 4.834,10.667 6.673,6.398 11.833,6.167 z"
       id="path26" /><path
       style="opacity:0.2;stroke:#000000;stroke-width:2;stroke-miterlimit:10"
       inkscape:connector-curvature="0"
       stroke-miterlimit="10"
       d="M 4.398,16.971 C 4.377,31.458 15.895,45.481 57.5,41.41 l 16,8.924 C 71.667,55.5 67.333,61.668 62,62.334 56.667,63 22.834,62.167 15.667,59.167 8.5,56.167 4.334,54.001 4.5,45.834 4.643,38.818 4.287,23.562 4.398,16.971 z"
       id="path28" /></g></g><g
   inkscape:groupmode="layer"
   id="layer4"
   inkscape:label="Arm"
   transform="translate(0,189.74)"><g
     transform="translate(-30.162272,45.247111)"
     id="Layer_6-7" /><g
     transform="translate(-30.162272,45.247111)"
     id="FOOT-1" /><g
     transform="translate(-30.162272,45.247111)"
     id="BODY-1" /><g
     transform="translate(187.74583,7.4184092)"
     id="BRAS-52"><g
       id="g9"><path
         style="fill:#003b73"
         inkscape:connector-curvature="0"
         d="m 19.322,18.815 c -0.885,-0.001 -1.35,-0.307 -1.4,-0.342 -0.225,-0.156 -0.281,-0.465 -0.127,-0.691 1.361,-2.003 1.415,-5.209 0.123,-7.3 C 16.149,7.618 11.202,7.335 11.152,7.332 11.007,7.325 10.874,7.255 10.784,7.141 10.695,7.027 10.659,6.88 10.686,6.738 11.328,3.385 19.607,2.681 26.438,2.681 c 1.677,0 2.792,0.048 2.792,0.048 0.108,-0.012 0.268,-0.018 0.42,-0.018 1.588,0 2.231,0.704 2.492,1.293 0.98,2.226 -1.758,6.398 -4.647,9.562 -3.963,4.338 -6.632,5.249 -8.173,5.249 l 0,0 z"
         id="path11" /><path
         style="fill:#003b73"
         inkscape:connector-curvature="0"
         d="m 26.438,3.182 c 1.664,0 2.771,0.047 2.771,0.047 0.154,-0.012 0.301,-0.018 0.441,-0.018 4.17,0 1.87,5.208 -2.524,10.018 -3.934,4.306 -6.478,5.086 -7.804,5.086 -0.753,0 -1.114,-0.252 -1.114,-0.252 1.416,-2.083 1.584,-5.5 0.136,-7.844 -1.928,-3.12 -7.166,-3.387 -7.166,-3.387 0.62,-3.24 10.361,-3.65 15.26,-3.65 m -0.313,-1 v 1 -1 c -10,0 -15.52,1.501 -16.086,4.463 -0.055,0.284 0.096,0.578 0.273,0.805 0.179,0.228 0.486,0.367 0.775,0.381 0.046,0.002 4.761,0.284 6.386,2.914 1.196,1.937 1.157,4.904 -0.103,6.756 -0.308,0.453 -0.189,1.069 0.261,1.383 0.145,0.102 0.698,0.432 1.688,0.432 1.641,0 4.457,-0.939 8.543,-5.412 1.454,-1.591 6.093,-7.022 4.735,-10.1 -0.32,-0.726 -1.091,-1.592 -2.948,-1.592 -0.146,0 -0.455,0.005 -0.615,0.016 -0.252,-0.01 -0.909,-0.046 -2.909,-0.046 l 0,0 z"
         id="path13" /></g><path
       style="fill:#0b2d49;stroke:#0a2a44;stroke-linecap:round;stroke-linejoin:round;stroke-miterlimit:10"
       inkscape:connector-curvature="0"
       stroke-miterlimit="10"
       d="m 20.125,9.563 c 2.062,4.5 1.558,8.119 0.404,8.567 -1.53,0.595 -2.992,-0.352 -2.992,-0.352 1.416,-2.083 2.255,-5.216 0.807,-7.56 C 16.416,7.098 11.178,6.831 11.178,6.831 11.329,6.04 11.74,5.433 13.059,4.93 c 1.319,-0.503 4.76,-0.398 7.066,4.633 z"
       id="path15" /><path
       style="fill:#ffe3a7"
       inkscape:connector-curvature="0"
       d="m 18.458,9.563 c 0,0 -3,-4.405 -8.5,-2.369 -5.5,2.036 -8.999,3.537 -8.666,8.203 0.333,4.666 1.834,7.333 5.5,6.833 3.666,-0.5 10.885,-3.277 12.225,-6.174 1.191,-2.576 -0.351,-6.528 -0.559,-6.493 z"
       id="path17" /><path
       style="fill:#e3c78b"
       inkscape:connector-curvature="0"
       d="m 4.002,21.831 c 0.874,1.148 3,0.612 4.124,0.459 3.666,-0.5 7.698,-2.692 10.249,-5.31 2.385,-2.447 0.083,-7.417 0.083,-7.417 0,0 -6.824,0.961 -10.333,2 -2.249,0.666 -3.745,1.696 -4.123,4 -0.287,1.75 -0.928,5.049 0,6.268 z"
       id="path19" /></g><g
     transform="translate(-30.162272,45.247111)"
     id="HEAD-7" /></g><g
   inkscape:groupmode="layer"
   id="layer5"
   inkscape:label="Head"
   transform="translate(0,189.74)"><g
     transform="translate(0,-41.918995)"
     id="Layer_6-6" /><g
     transform="translate(0,-41.918995)"
     id="FOOT-14" /><g
     transform="translate(0,-41.918995)"
     id="BODY-2" /><g
     transform="translate(0,-41.918995)"
     id="BRAS-3" /><g
     transform="translate(139.46118,-178.85875)"
     id="HEAD-2"><path
       style="fill:#ffe4a8"
       inkscape:connector-curvature="0"
       d="m 8.021,42.752 c 0,0 -1.834,12.666 -1.5,21.5 0.334,8.834 -0.041,27 5.5,33.167 6.193,6.894 27.334,10.666 42.167,10.833 14.833,0.167 31.833,0.011 38.333,-7.333 6.85,-7.739 8.5,-22.333 8.5,-37 0,-14.667 -0.833,-34.167 -4.833,-38.333 -4,-4.166 -33.375,-5.833 -42.438,-5.5 -9.063,0.333 -44.23,6.005 -45.729,22.666 z"
       id="path10" /><path
       style="fill:#e3c78b"
       inkscape:connector-curvature="0"
       d="m 95.904,95.777 c 1.32,-1.704 -2.073,3.663 -3.383,5.143 -6.5,7.344 -23.5,7.5 -38.333,7.333 C 39.355,108.086 18.214,104.314 12.021,97.42 6.48,91.253 6.855,73.087 6.521,64.253 c -0.334,-8.834 1.5,-21.5 1.5,-21.5 0.698,-7.766 8.71,-13.144 17.984,-16.707 0,0 -8.15,42.541 -0.317,56.541 7.833,14 23.935,20.096 33.5,21.333 14.166,1.832 29.5,1.166 36.716,-8.143 z"
       id="path12-2" /><ellipse
       d="m 75.188004,51.042 c 0,7.247633 -2.275737,13.123 -5.083001,13.123 -2.807263,0 -5.083,-5.875367 -5.083,-13.123 0,-7.247633 2.275737,-13.123 5.083,-13.123 2.807264,0 5.083001,5.875367 5.083001,13.123 z"
       style="fill:#ffffff"
       sodipodi:ry="13.123"
       sodipodi:rx="5.0830002"
       sodipodi:cy="51.042"
       sodipodi:cx="70.105003"
       cx="70.105003"
       cy="51.042"
       rx="5.0830002"
       ry="13.123"
       id="ellipse14" /><ellipse
       d="m 75.188004,48.695999 c 0,3.742834 -1.175253,6.777 -2.625,6.777 -1.449748,0 -2.625,-3.034166 -2.625,-6.777 0,-3.742834 1.175252,-6.777 2.625,-6.777 1.449747,0 2.625,3.034166 2.625,6.777 z"
       sodipodi:ry="6.777"
       sodipodi:rx="2.625"
       sodipodi:cy="48.695999"
       sodipodi:cx="72.563004"
       cx="72.563004"
       cy="48.695999"
       rx="2.625"
       ry="6.777"
       id="ellipse16" /><ellipse
       d="m 75.188999,48.450001 c 0,1.950117 -0.612474,3.531 -1.368,3.531 -0.755525,0 -1.368,-1.580883 -1.368,-3.531 0,-1.950118 0.612475,-3.531 1.368,-3.531 0.755526,0 1.368,1.580882 1.368,3.531 z"
       style="fill:#ffffff"
       sodipodi:ry="3.5309999"
       sodipodi:rx="1.368"
       sodipodi:cy="48.450001"
       sodipodi:cx="73.820999"
       cx="73.820999"
       cy="48.450001"
       rx="1.368"
       ry="3.5309999"
       id="ellipse18" /><ellipse
       d="m 91.188004,51.042 c 0,7.247633 -2.275737,13.123 -5.083001,13.123 -2.807263,0 -5.083,-5.875367 -5.083,-13.123 0,-7.247633 2.275737,-13.123 5.083,-13.123 2.807264,0 5.083001,5.875367 5.083001,13.123 z"
       style="fill:#ffffff"
       sodipodi:ry="13.123"
       sodipodi:rx="5.0830002"
       sodipodi:cy="51.042"
       sodipodi:cx="86.105003"
       cx="86.105003"
       cy="51.042"
       rx="5.0830002"
       ry="13.123"
       id="ellipse20" /><ellipse
       d="m 91.188004,48.695999 c 0,3.742834 -1.175253,6.777 -2.625,6.777 -1.449748,0 -2.625,-3.034166 -2.625,-6.777 0,-3.742834 1.175252,-6.777 2.625,-6.777 1.449747,0 2.625,3.034166 2.625,6.777 z"
       sodipodi:ry="6.777"
       sodipodi:rx="2.625"
       sodipodi:cy="48.695999"
       sodipodi:cx="88.563004"
       cx="88.563004"
       cy="48.695999"
       rx="2.625"
       ry="6.777"
       id="ellipse22" /><ellipse
       d="m 91.188999,48.450001 c 0,1.950117 -0.612474,3.531 -1.368,3.531 -0.755525,0 -1.368,-1.580883 -1.368,-3.531 0,-1.950118 0.612475,-3.531 1.368,-3.531 0.755526,0 1.368,1.580882 1.368,3.531 z"
       style="fill:#ffffff"
       sodipodi:ry="3.5309999"
       sodipodi:rx="1.368"
       sodipodi:cy="48.450001"
       sodipodi:cx="89.820999"
       cx="89.820999"
       cy="48.450001"
       rx="1.368"
       ry="3.5309999"
       id="ellipse24" /><ellipse
       d="m 79.522003,81.065002 c 0,1.070328 -0.746341,1.938 -1.667,1.938 -0.920658,0 -1.667,-0.867672 -1.667,-1.938 0,-1.070327 0.746342,-1.938 1.667,-1.938 0.920659,0 1.667,0.867673 1.667,1.938 z"
       sodipodi:ry="1.938"
       sodipodi:rx="1.6670001"
       sodipodi:cy="81.065002"
       sodipodi:cx="77.855003"
       cx="77.855003"
       cy="81.065002"
       rx="1.6670001"
       ry="1.938"
       id="ellipse26" /><path
       style="fill:#ff1e17"
       inkscape:connector-curvature="0"
       d="m 46.271,0.752 c 9.104,-1.17 29.5,-1.125 41.625,15.375 0,0 10.5,2.521 13.625,6.375 1.182,1.458 2.632,3.552 2.125,6 -0.75,3.625 -3.5,5.375 -6.75,3.5 -3.25,-1.875 -22.5,-7 -41.25,-4.25 -18.75,2.75 -38.551,14.246 -44.5,18.875 -4.242,3.301 -5.237,4.023 -7.875,2.75 -3.625,-1.75 -3.875,-6.375 -2.5,-9.75 1.375,-3.375 5,-6.125 7.375,-7.25 0,0 7,-27.625 38.125,-31.625 z"
       id="path28-1" /><path
       style="fill:#cf2122"
       inkscape:connector-curvature="0"
       d="m 87.896,16.127 c -2.788,-3.795 -6.014,-6.719 -9.439,-8.958 0,0 1.972,2.149 0,4.479 -2.311,2.729 -16.686,2.731 -21.811,2.979 -3.288,0.159 -7.5,0.75 -16.375,2.5 -8.875,1.75 -16.125,2.625 -18,-1 C 20.396,12.502 31.519,5 31.519,5 12.821,13.927 8.146,32.377 8.146,32.377 c 0,0 15.5,-9.625 28.375,-13.125 12.875,-3.5 26.957,-4.25 33.416,-4.25 6.459,0 17.959,1.125 17.959,1.125 z"
       id="path30" /><path
       style="fill:#cf2122"
       inkscape:connector-curvature="0"
       d="m 93.537,17.87 c 3.016,1.112 6.422,2.706 7.984,4.633 1.182,1.458 2.632,3.552 2.125,6 -0.75,3.625 -3.5,5.375 -6.75,3.5 -3.25,-1.875 -22.5,-7 -41.25,-4.25 -18.75,2.75 -38.551,14.246 -44.5,18.875 -4.242,3.301 -5.237,4.023 -7.875,2.75 -3.625,-1.75 -3.875,-6.375 -2.5,-9.75 0.924,-2.268 2.864,-4.253 4.76,-5.653 0,0 -3.385,5.737 -1.26,7.945 2.125,2.208 7,0.958 12.125,-1.917 5.125,-2.875 25.207,-10.875 35.479,-13.125 10.272,-2.25 23.521,-1.969 31.271,-1.734 7.75,0.235 12.375,2.734 13.875,-1.266 1.018,-2.715 -3.484,-6.008 -3.484,-6.008 z"
       id="path32" /></g></g></svg>